<?xml version="1.0" encoding="UTF-8"?>
<svg width="128px" height="30px" viewBox="0 0 128 30" version="1.1" xmlns="http://www.w3.org/2000/svg" xmlns:xlink="http://www.w3.org/1999/xlink">
    <!-- Generator: Sketch 55.2 (78181) - https://sketchapp.com -->
    <title>logo</title>
    <desc>Created with Sketch.</desc>
    <g id="Page-1" stroke="none" stroke-width="1" fill="none" fill-rule="evenodd">
        <g id="logo" fill="#394149" fill-rule="nonzero">
            <path d="M36.51,9.26 L39.72,9.26 L39.72,22.26 L36.51,22.26 L36.51,9.26 Z M41,17.37 C41,14.15 43,12.22 46,12.22 C49,12.22 51,14.15 51,17.37 C51,20.59 49.07,22.54 46,22.54 C42.93,22.54 41,20.66 41,17.37 Z M47.82,17.37 C47.82,15.6 47.13,14.56 46.03,14.56 C44.93,14.56 44.25,15.56 44.25,17.37 C44.25,19.18 44.93,20.17 46.03,20.17 C47.13,20.17 47.84,19.18 47.84,17.38 L47.82,17.37 Z M52.28,22.93 L55.38,22.93 C55.6700374,23.615889 56.3813533,24.0246912 57.12,23.93 C58.35,23.93 58.99,23.27 58.99,22.29 L58.99,20.49 L59,20.49 C58.4577802,21.6372875 57.2655708,22.3327429 56,22.24 C53.65,22.24 52.09,20.45 52.09,17.37 C52.09,14.29 53.58,12.37 56.09,12.37 C57.3895082,12.3004756 58.5916589,13.0578305 59.09,14.26 L59,14.26 L59,12.45 L62.18,12.45 L62.18,22.19 C62.18,24.54 60.1,26.01 57.04,26.01 C54.26,26 52.48,24.73 52.3,22.94 L52.28,22.93 Z M59,17.37 C59,15.8 58.28,14.81 57.14,14.81 C56,14.81 55.3,15.81 55.3,17.37 C55.3,18.93 55.99,19.85 57.14,19.85 C58.29,19.85 59,19 59,17.37 Z M63.45,17.37 C63.45,14.15 65.45,12.22 68.45,12.22 C71.45,12.22 73.45,14.15 73.45,17.37 C73.45,20.59 71.51,22.54 68.45,22.54 C65.39,22.54 63.47,20.66 63.47,17.37 L63.45,17.37 Z M70.27,17.37 C70.27,15.6 69.57,14.56 68.48,14.56 C67.39,14.56 66.7,15.56 66.7,17.37 C66.7,19.18 67.38,20.17 68.48,20.17 C69.58,20.17 70.29,19.18 70.29,17.38 L70.27,17.37 Z M74.75,10.08 C74.7214215,9.41105116 75.1023679,8.79190405 75.7123763,8.51586235 C76.3223847,8.23982065 77.0389433,8.36232358 77.5226025,8.82533877 C78.0062617,9.28835397 78.1598851,9.99889116 77.9106979,10.6203532 C77.6615107,11.2418152 77.0595587,11.6493898 76.39,11.65 C75.9675181,11.6607314 75.5583463,11.501761 75.2539259,11.2086154 C74.9495055,10.9154698 74.7752133,10.512586 74.77,10.09 L74.75,10.08 Z M74.75,12.44 L78,12.44 L78,22.3 L74.8,22.3 L74.75,12.44 Z M89.69,17.37 C89.69,20.58 88.25,22.44 85.8,22.44 C84.5152425,22.5192455 83.3174694,21.7886039 82.8,20.61 L82.74,20.61 L82.74,25.47 L79.53,25.47 L79.53,12.47 L82.72,12.47 L82.72,14.23 L82.78,14.23 C83.2798979,13.0279261 84.4795962,12.2681172 85.78,12.33 C88.3,12.31 89.75,14.16 89.75,17.38 L89.69,17.37 Z M86.42,17.37 C86.42,15.81 85.69,14.8 84.56,14.8 C83.43,14.8 82.72,15.8 82.71,17.37 C82.7,18.94 83.43,19.93 84.56,19.93 C85.69,19.93 86.48,19 86.48,17.38 L86.42,17.37 Z M95.17,12.21 C97.86,12.21 99.53,13.48 99.55,15.52 L96.62,15.52 C96.62,14.81 96.03,14.37 95.15,14.37 C94.27,14.37 93.85,14.71 93.85,15.22 C93.85,15.73 94.22,15.89 94.96,16.04 L97.02,16.46 C99.02,16.88 99.82,17.68 99.82,19.17 C99.82,21.17 97.97,22.53 95.22,22.53 C92.47,22.53 90.68,21.21 90.55,19.2 L93.66,19.2 C93.75,19.93 94.33,20.36 95.27,20.36 C96.21,20.36 96.65,20.06 96.65,19.53 C96.65,19 96.35,18.91 95.58,18.75 L93.72,18.36 C91.79,17.95 90.78,16.94 90.78,15.43 C90.84,13.47 92.52,12.22 95.23,12.22 L95.17,12.21 Z M110.57,22.29 L107.46,22.29 L107.46,20.44 L107.4,20.44 C107.041404,21.7110838 105.848678,22.5630314 104.53,22.49 C103.552404,22.5218235 102.607723,22.1347696 101.933495,21.4261622 C101.259268,20.7175547 100.919636,19.7548072 101,18.78 L101,12.45 L104.21,12.45 L104.21,18.09 C104.21,19.25 104.82,19.88 105.82,19.88 C106.294686,19.876429 106.744539,19.6673529 107.053311,19.3067985 C107.362084,18.9462441 107.499482,18.4695873 107.43,18 L107.43,12.45 L110.63,12.45 L110.57,22.29 Z M112.12,12.44 L115.24,12.44 L115.24,14.34 L115.31,14.34 C115.664549,13.0882409 116.819268,12.2335021 118.12,12.26 C119.435706,12.1456092 120.622497,13.0508621 120.86,14.35 L121,14.35 C121.410906,13.054044 122.641949,12.1964173 124,12.26 C124.887849,12.2262097 125.747992,12.5725539 126.364691,13.212164 C126.981389,13.851774 127.296141,14.7239731 127.23,15.61 L127.23,22.3 L124,22.3 L124,16.43 C124,15.43 123.53,14.87 122.62,14.87 C122.21157,14.8632954 121.820583,15.0353062 121.549559,15.3409294 C121.278534,15.6465526 121.154508,16.0553021 121.21,16.46 L121.21,22.3 L118.15,22.3 L118.15,16.4 C118.15,15.4 117.66,14.87 116.78,14.87 C116.36739,14.8667164 115.973472,15.0418223 115.699459,15.3503267 C115.425446,15.6588311 115.298048,16.07066 115.35,16.48 L115.35,22.3 L112.14,22.3 L112.12,12.44 Z" id="Shape"></path>
            <path d="M30.16,10.11 C30.16,6.0363957 27.6601957,2.38026721 23.8640759,0.902523588 C20.0679561,-0.575220032 15.7540208,0.428396824 13,3.43 L0.52,3.43 L0.52,29.77 L26.87,29.77 L26.87,17.46 C28.9616994,15.5891283 30.1581048,12.9163078 30.16,10.11 L30.16,10.11 Z M25.0900104,10.11 C25.0940465,12.0604129 23.9222603,13.8210266 22.1214738,14.5702228 C20.3206873,15.3194191 18.2458813,14.9095123 16.8652967,13.5317921 C15.4847122,12.1540718 15.0704973,10.0801216 15.8159519,8.27778299 C16.5614066,6.47544444 18.3195829,5.3 20.27,5.3 C22.9281121,5.3 25.0844852,7.45189358 25.0900104,10.11 L25.0900104,10.11 Z M21.8,24.7 L5.59,24.7 L5.59,8.5 L10.53,8.5 C10.434575,9.03146111 10.3843951,9.57005785 10.38,10.11 C10.3855122,15.5698113 14.8101887,19.9944878 20.27,20 C20.7826397,19.997291 21.2942522,19.9538207 21.8,19.87 L21.8,24.7 Z" id="Shape"></path>
        </g>
    </g>
</svg>