<?xml version="1.0" encoding="UTF-8"?>
<svg xmlns="http://www.w3.org/2000/svg" width="81" height="16" viewBox="0 0 81 16" fill="none">
    <g clip-path="url(#clip0_2193_2898)">
        <path fill-rule="evenodd" clip-rule="evenodd" d="M10.6211 4.67412C9.96978 4.2346 9.20408 4 8.42079 4V0C9.98737 0 11.5188 0.469192 12.8213 1.34824C14.1239 2.22729 15.1391 3.47672 15.7387 4.93852C16.3381 6.40032 16.495 8.00888 16.1894 9.56072C15.8838 11.1126 15.1294 12.538 14.0216 13.6568C12.9139 14.7757 11.5025 15.5376 9.96606 15.8463C8.42958 16.155 6.83695 15.9965 5.38962 15.391C3.9423 14.7855 2.70524 13.7602 1.8349 12.4446C0.964547 11.129 0.5 9.58224 0.5 8H4.4604C4.4604 8.79112 4.69267 9.56448 5.12784 10.2223C5.56301 10.8801 6.18154 11.3928 6.90523 11.6955C7.62887 11.9983 8.42519 12.0775 9.19343 11.9231C9.96166 11.7688 10.6673 11.3878 11.2212 10.8284C11.7751 10.269 12.1523 9.55628 12.3051 8.78036C12.4579 8.00444 12.3795 7.20016 12.0797 6.46928C11.78 5.73836 11.2724 5.11364 10.6211 4.67412Z" fill="#1E5DFF"/>
        <path fill-rule="evenodd" clip-rule="evenodd" d="M4.46039 2.11397e-06C4.46039 0.52529 4.35796 1.04543 4.15893 1.53074C3.9599 2.01604 3.66818 2.45699 3.30042 2.82843C2.93267 3.19987 2.49608 3.4945 2.01558 3.69552C1.53508 3.89654 1.02008 4 0.5 4L0.5 8C1.54017 8 2.57016 7.79308 3.53116 7.39104C4.49216 6.989 5.36534 6.39972 6.10083 5.65684C6.83635 4.914 7.4198 4.03208 7.81786 3.06147C8.21592 2.09086 8.42079 1.05057 8.42079 0L4.46039 2.11397e-06Z" fill="#1E5DFF"/>
        <path d="M50.2497 5.78125H48.3281V11.9462H50.2497V5.78125Z" fill="#1E5DFF"/>
        <path d="M48.542 4.62669C48.7428 4.82965 48.9939 4.93113 49.2953 4.93113C49.5967 4.93113 49.8438 4.82965 50.0363 4.62669C50.2292 4.41529 50.3254 4.16157 50.3254 3.86559C50.3254 3.56116 50.2292 3.30744 50.0363 3.10449C49.8438 2.90152 49.5967 2.80005 49.2953 2.80005C48.9939 2.80005 48.7428 2.90152 48.542 3.10449C48.3492 3.30744 48.2529 3.56116 48.2529 3.86559C48.2529 4.16157 48.3492 4.41529 48.542 4.62669Z" fill="#1E5DFF"/>
        <path d="M20.7598 11.9459V2.99023H22.7316V10.1954H26.6627V11.9459H20.7598Z" fill="#1E5DFF"/>
        <path fill-rule="evenodd" clip-rule="evenodd" d="M30.2138 12.0854C29.5859 12.0854 29.0165 11.9458 28.5058 11.6668C28.0034 11.3792 27.6057 10.9902 27.3126 10.4997C27.0196 10.0092 26.873 9.45956 26.873 8.85068C26.873 8.2418 27.0196 7.69636 27.3126 7.21432C27.6057 6.73228 28.0034 6.35172 28.5058 6.07268C29.0081 5.78512 29.5775 5.64136 30.2138 5.64136C30.8502 5.64136 31.4195 5.78092 31.9219 6.05996C32.4243 6.33904 32.822 6.72384 33.1151 7.21432C33.4081 7.69636 33.5547 8.2418 33.5547 8.85068C33.5547 9.45956 33.4081 10.0092 33.1151 10.4997C32.822 10.9902 32.4243 11.3792 31.9219 11.6668C31.4195 11.9458 30.8502 12.0854 30.2138 12.0854ZM30.2138 10.3222C30.4902 10.3222 30.733 10.263 30.9423 10.1446C31.1516 10.0177 31.3107 9.84436 31.4195 9.62448C31.5368 9.39616 31.5954 9.1382 31.5954 8.85068C31.5954 8.56316 31.5368 8.31368 31.4195 8.10228C31.3023 7.8824 31.1391 7.71328 30.9297 7.59488C30.7288 7.468 30.4902 7.4046 30.2138 7.4046C29.9459 7.4046 29.7073 7.468 29.498 7.59488C29.2887 7.71328 29.1254 7.8824 29.0081 8.10228C28.8909 8.32216 28.8323 8.57584 28.8323 8.86336C28.8323 9.14244 28.8909 9.39616 29.0081 9.62448C29.1254 9.84436 29.2887 10.0177 29.498 10.1446C29.7073 10.263 29.9459 10.3222 30.2138 10.3222Z" fill="#1E5DFF"/>
        <path fill-rule="evenodd" clip-rule="evenodd" d="M35.0767 14.3558C35.5874 14.5925 36.1777 14.7109 36.8475 14.7109C37.5006 14.7109 38.0826 14.5798 38.5933 14.3177C39.1041 14.0555 39.5059 13.6919 39.799 13.2268C40.092 12.7617 40.2388 12.212 40.2388 11.5777V5.78069H38.3546V6.19489C38.2145 6.07577 38.0554 5.97577 37.8774 5.89485C37.5508 5.73417 37.1782 5.65381 36.7596 5.65381C36.1986 5.65381 35.7004 5.78913 35.2651 6.05973C34.8296 6.32189 34.4864 6.68553 34.2352 7.15065C33.9839 7.60733 33.8584 8.12317 33.8584 8.69825C33.8584 9.26485 33.9839 9.78069 34.2352 10.2458C34.4864 10.7109 34.8296 11.0788 35.2651 11.3494C35.7004 11.62 36.1986 11.7553 36.7596 11.7553C37.1699 11.7553 37.5425 11.675 37.8774 11.5143C38.0396 11.4365 38.1862 11.3448 38.317 11.2391V11.6285C38.317 12.0598 38.1788 12.3938 37.9025 12.6306C37.6346 12.8674 37.262 12.9858 36.7847 12.9858C36.3996 12.9858 36.0689 12.9181 35.7925 12.7828C35.5246 12.6475 35.2818 12.4488 35.0641 12.1866L33.8835 13.379C34.1765 13.8018 34.5743 14.1274 35.0767 14.3558ZM37.8146 9.85257C37.622 9.97097 37.3918 10.0302 37.1238 10.0302C36.8559 10.0302 36.6214 9.97097 36.4205 9.85257C36.2279 9.73417 36.0772 9.57349 35.9684 9.37053C35.8595 9.15913 35.8051 8.93501 35.8051 8.69825C35.8051 8.44453 35.8595 8.21621 35.9684 8.01325C36.0772 7.81029 36.2321 7.64961 36.4331 7.53121C36.634 7.41281 36.8643 7.35361 37.1238 7.35361C37.3918 7.35361 37.622 7.41281 37.8146 7.53121C38.0155 7.64961 38.1662 7.81029 38.2668 8.01325C38.3756 8.21621 38.43 8.44453 38.43 8.69825C38.43 8.95193 38.3756 9.18025 38.2668 9.38321C38.1662 9.57773 38.0155 9.73417 37.8146 9.85257Z" fill="#1E5DFF"/>
        <path fill-rule="evenodd" clip-rule="evenodd" d="M44.2824 12.0854C43.6543 12.0854 43.0848 11.9458 42.5743 11.6668C42.0717 11.3792 41.6741 10.9902 41.381 10.4997C41.0879 10.0092 40.9414 9.45956 40.9414 8.85068C40.9414 8.2418 41.0879 7.69636 41.381 7.21432C41.6741 6.73228 42.0717 6.35172 42.5743 6.07268C43.0765 5.78512 43.646 5.64136 44.2824 5.64136C44.9184 5.64136 45.4879 5.78092 45.9901 6.05996C46.4927 6.33904 46.8903 6.72384 47.1834 7.21432C47.4765 7.69636 47.623 8.2418 47.623 8.85068C47.623 9.45956 47.4765 10.0092 47.1834 10.4997C46.8903 10.9902 46.4927 11.3792 45.9901 11.6668C45.4879 11.9458 44.9184 12.0854 44.2824 12.0854ZM44.2824 10.3222C44.5584 10.3222 44.8012 10.263 45.0107 10.1446C45.2198 10.0177 45.379 9.84436 45.4879 9.62448C45.6052 9.39616 45.6638 9.1382 45.6638 8.85068C45.6638 8.56316 45.6052 8.31368 45.4879 8.10228C45.3707 7.8824 45.2075 7.71328 44.998 7.59488C44.7972 7.468 44.5584 7.4046 44.2824 7.4046C44.0143 7.4046 43.7755 7.468 43.5664 7.59488C43.3569 7.71328 43.1937 7.8824 43.0765 8.10228C42.9592 8.32216 42.9006 8.57584 42.9006 8.86336C42.9006 9.14244 42.9592 9.39616 43.0765 9.62448C43.1937 9.84436 43.3569 10.0177 43.5664 10.1446C43.7755 10.263 44.0143 10.3222 44.2824 10.3222Z" fill="#1E5DFF"/>
        <path fill-rule="evenodd" clip-rule="evenodd" d="M54.869 12.0724C54.4591 12.0724 54.082 11.9921 53.7387 11.8314C53.5581 11.7469 53.3949 11.6459 53.2492 11.5286V14.546H51.3525V5.78069H53.2741V6.20617C53.4135 6.09101 53.5684 5.99145 53.7387 5.90753C54.082 5.73837 54.4591 5.65381 54.869 5.65381C55.4468 5.65381 55.9577 5.79337 56.4013 6.07245C56.8535 6.35149 57.2052 6.73205 57.4563 7.21409C57.7161 7.69613 57.8456 8.24581 57.8456 8.86313C57.8456 9.48049 57.7161 10.0302 57.4563 10.5122C57.2052 10.9942 56.8535 11.3748 56.4013 11.6538C55.9577 11.9329 55.4468 12.0724 54.869 12.0724ZM54.5177 10.3219C54.7937 10.3219 55.0325 10.2585 55.2333 10.1316C55.4428 10.0048 55.606 9.83141 55.7232 9.61157C55.8405 9.39169 55.8991 9.14221 55.8991 8.86313C55.8991 8.57561 55.8405 8.32193 55.7232 8.10205C55.606 7.88217 55.4428 7.71305 55.2333 7.59465C55.0325 7.46777 54.7981 7.40437 54.53 7.40437C54.2622 7.40437 54.0234 7.46777 53.8143 7.59465C53.6131 7.71305 53.4543 7.88217 53.3371 8.10205C53.2199 8.32193 53.1613 8.57561 53.1613 8.86313C53.1613 9.14221 53.2155 9.39169 53.3244 9.61157C53.4416 9.83141 53.6048 10.0048 53.8143 10.1316C54.0234 10.2585 54.2579 10.3219 54.5177 10.3219Z" fill="#1E5DFF"/>
        <path d="M59.7257 11.9587C60.0774 12.0518 60.433 12.0982 60.793 12.0982C61.555 12.0982 62.1578 11.9207 62.6017 11.5655C63.0536 11.2103 63.2797 10.7325 63.2797 10.1321C63.2797 9.74308 63.2088 9.43016 63.0663 9.1934C62.9241 8.94816 62.7399 8.75364 62.5138 8.60988C62.2877 8.46612 62.0488 8.35192 61.7978 8.26736C61.5467 8.1828 61.3078 8.11092 61.0821 8.05172C60.856 7.99252 60.6718 7.92488 60.5292 7.84876C60.3871 7.77264 60.3158 7.67116 60.3158 7.54432C60.3158 7.42592 60.3704 7.33712 60.4789 7.27792C60.5879 7.21028 60.751 7.17648 60.9688 7.17648C61.195 7.17648 61.4251 7.22296 61.6595 7.316C61.9023 7.409 62.1201 7.56972 62.3126 7.79804L63.4053 6.68176C63.1292 6.32656 62.7692 6.06016 62.3253 5.8826C61.89 5.69656 61.4128 5.60352 60.8936 5.60352C60.3997 5.60352 59.9684 5.68808 59.6001 5.8572C59.2314 6.02636 58.9467 6.25892 58.7459 6.55488C58.5451 6.8424 58.4445 7.18492 58.4445 7.5824C58.4445 7.95448 58.5158 8.26316 58.658 8.5084C58.8001 8.74516 58.9847 8.93124 59.2104 9.06652C59.4366 9.20184 59.6754 9.30756 59.9265 9.38364C60.1776 9.45976 60.4164 9.53164 60.6425 9.59932C60.8682 9.65852 61.0528 9.7304 61.195 9.81496C61.3459 9.89108 61.4211 10.0052 61.4211 10.1574C61.4211 10.2758 61.3581 10.3688 61.2326 10.4365C61.1154 10.5042 60.9439 10.538 60.7178 10.538C60.391 10.538 60.0896 10.4788 59.8136 10.3604C59.5372 10.2336 59.2983 10.0602 59.0976 9.84032L58.0049 10.9566C58.2144 11.1849 58.4655 11.3879 58.7585 11.5655C59.0599 11.7346 59.3823 11.8657 59.7257 11.9587Z" fill="#1E5DFF"/>
        <path d="M66.7843 12.0857C66.2235 12.0857 65.7253 11.9715 65.29 11.7432C64.8627 11.5064 64.528 11.185 64.2853 10.7791C64.0421 10.3648 63.9209 9.89121 63.9209 9.35841V5.78125H65.8425V9.33305C65.8425 9.54445 65.8758 9.72629 65.9431 9.87849C66.0183 10.0307 66.1272 10.1491 66.2694 10.2337C66.412 10.3182 66.5835 10.3605 66.7843 10.3605C67.069 10.3605 67.2952 10.2717 67.4627 10.0941C67.6302 9.90809 67.7138 9.65441 67.7138 9.33305V5.78125H69.6354V9.34573C69.6354 9.88697 69.5142 10.3648 69.271 10.7791C69.0282 11.185 68.6936 11.5064 68.2662 11.7432C67.8393 11.9715 67.3455 12.0857 66.7843 12.0857Z" fill="#1E5DFF"/>
        <path d="M72.5124 5.78069H70.5908V11.9456H72.5124V8.34305C72.5124 8.13165 72.5544 7.95405 72.6379 7.81029C72.7302 7.66653 72.8518 7.55657 73.0023 7.48049C73.1532 7.39589 73.3247 7.35361 73.5172 7.35361C73.7936 7.35361 74.0237 7.44241 74.2078 7.62001C74.4007 7.78913 74.497 8.03017 74.497 8.34305V11.9456H76.4185V8.34305C76.4185 8.13165 76.4605 7.95405 76.5441 7.81029C76.6364 7.66653 76.7576 7.55657 76.9084 7.48049C77.0589 7.39589 77.2308 7.35361 77.4233 7.35361C77.6997 7.35361 77.9298 7.44241 78.114 7.62001C78.3065 7.78913 78.4027 8.03017 78.4027 8.34305V11.9456H80.3247V8.12741C80.3247 7.61157 80.2158 7.17181 79.9979 6.80817C79.7884 6.43605 79.4997 6.15277 79.1314 5.95829C78.7714 5.75529 78.3568 5.65381 77.8879 5.65381C77.4106 5.65381 76.9793 5.75953 76.5944 5.97097C76.3441 6.10565 76.1255 6.27949 75.9381 6.49245C75.7635 6.26969 75.5512 6.08741 75.3005 5.94557C74.9659 5.75109 74.5849 5.65381 74.1579 5.65381C73.7057 5.65381 73.2997 5.75109 72.9397 5.94557C72.7829 6.02649 72.6407 6.12341 72.5124 6.23633V5.78069Z" fill="#1E5DFF"/>
    </g>
    <defs>
        <clipPath id="clip0_2193_2898">
            <rect width="80" height="16" fill="white" transform="translate(0.5)"/>
        </clipPath>
    </defs>
</svg>