<?xml version="1.0" encoding="UTF-8"?>
<svg width="376px" height="83px" viewBox="0 0 376 83" version="1.1" xmlns="http://www.w3.org/2000/svg" xmlns:xlink="http://www.w3.org/1999/xlink">
  <!-- Generator: Sketch 57.1 (83088) - https://sketch.com -->
  <title>Group 3 Copy 3</title>
  <desc>Created with Sketch.</desc>
  <defs>
    <linearGradient x1="0%" y1="36.483964%" x2="100%" y2="63.516036%" id="linearGradient-1">
      <stop stop-color="#001F76" offset="0%"></stop>
      <stop stop-color="#003FEF" offset="100%"></stop>
    </linearGradient>
    <path
      d="M145.443633,3.3180669 C145.501093,3.48627244 145.548234,3.65782788 145.584793,3.83177659 L148.734129,18.818308 L45.7368421,18.8192982 C44.2626473,18.8192982 43.0572384,19.9701073 42.9699711,21.4223698 L42.9649123,21.5912281 L42.9649123,45.1701754 C42.9649123,46.70107 44.2059475,47.9421053 45.7368421,47.9421053 L45.7368421,47.9421053 L154.855129,47.941308 L157.830632,62.0969457 C158.284613,64.256968 157.056178,66.4163243 154.967472,67.1298386 L111.82142,81.8687851 C109.538109,82.6487778 107.05481,81.4300972 106.274818,79.1467859 C106.217358,78.9785804 106.170217,78.8070249 106.133657,78.6330762 L105.070129,73.574308 L80.7905246,81.8687851 C78.5072132,82.6487778 76.0239147,81.4300972 75.243922,79.1467859 C75.186462,78.9785804 75.1393208,78.8070249 75.1027612,78.6330762 L74.0391286,73.574308 L49.7596287,81.8687851 C47.4763174,82.6487778 44.9930188,81.4300972 44.2130262,79.1467859 C44.1555662,78.9785804 44.108425,78.8070249 44.0718654,78.6330762 L43.0081286,73.574308 L18.7287329,81.8687851 C16.4454216,82.6487778 13.962123,81.4300972 13.1821303,79.1467859 C13.1246703,78.9785804 13.0775291,78.8070249 13.0409696,78.6330762 L0.795131035,20.3679071 C0.341149946,18.2078848 1.56958506,16.0485285 3.65829103,15.3350142 L46.8043425,0.59606766 C49.0876539,-0.183925007 51.5709524,1.03475557 52.3509451,3.3180669 C52.4084051,3.48627244 52.4555463,3.65782788 52.4921059,3.83177659 L53.5541286,8.89030799 L77.8352384,0.59606766 C80.1185497,-0.183925007 82.6018483,1.03475557 83.3818409,3.3180669 C83.4393009,3.48627244 83.4864421,3.65782788 83.5230017,3.83177659 L84.5851286,8.88930799 L108.866134,0.59606766 C111.149446,-0.183925007 113.632744,1.03475557 114.412737,3.3180669 C114.470197,3.48627244 114.517338,3.65782788 114.553898,3.83177659 L115.616129,8.88930799 L139.89703,0.59606766 C142.180341,-0.183925007 144.66364,1.03475557 145.443633,3.3180669 Z"
      id="path-2"></path>
    <linearGradient x1="19.9019025%" y1="0%" x2="80.0980975%" y2="100%" id="linearGradient-4">
      <stop stop-color="#001F76" offset="0%"></stop>
      <stop stop-color="#003FEF" offset="100%"></stop>
    </linearGradient>
    <linearGradient x1="19.9019025%" y1="0%" x2="80.0980975%" y2="100%" id="linearGradient-5">
      <stop stop-color="#0030B5" offset="0%"></stop>
      <stop stop-color="#0044FF" offset="100%"></stop>
    </linearGradient>
    <linearGradient x1="36.9072698%" y1="0%" x2="63.0927302%" y2="100%" id="linearGradient-6">
      <stop stop-color="#0034C5" offset="0%"></stop>
      <stop stop-color="#0038D5" offset="100%"></stop>
    </linearGradient>
    <linearGradient x1="19.9019025%" y1="0%" x2="80.0980975%" y2="100%" id="linearGradient-7">
      <stop stop-color="#003DE6" offset="0%"></stop>
      <stop stop-color="#1B58FF" offset="100%"></stop>
    </linearGradient>
    <linearGradient x1="36.9072698%" y1="0%" x2="63.0927302%" y2="100%" id="linearGradient-8">
      <stop stop-color="#0643EC" offset="0%"></stop>
      <stop stop-color="#003FED" offset="100%"></stop>
    </linearGradient>
    <linearGradient x1="19.9019025%" y1="0%" x2="80.0980975%" y2="100%" id="linearGradient-9">
      <stop stop-color="#0044FF" offset="0%"></stop>
      <stop stop-color="#4576FF" offset="100%"></stop>
    </linearGradient>
    <linearGradient x1="36.9072698%" y1="0%" x2="63.0927302%" y2="100%" id="linearGradient-10">
      <stop stop-color="#1654FF" offset="0%"></stop>
      <stop stop-color="#1552F9" offset="100%"></stop>
    </linearGradient>
  </defs>
  <g id="Page-1" stroke="none" stroke-width="1" fill="none" fill-rule="evenodd">
    <g id="logo_final" transform="translate(-709.000000, -440.000000)">
      <g id="Group-3-Copy-3" transform="translate(709.000000, 440.000000)">
        <path
          d="M186.607407,14.4620793 L186.607407,9.7810992 L203.02267,9.7810992 L203.02267,14.4620793 L197.475443,14.4620793 L197.475443,33.1859997 L192.154634,33.1859997 L192.154634,14.4620793 L186.607407,14.4620793 Z M211.932861,23.7956699 L211.932861,33.1859997 L206.612052,33.1859997 L206.612052,9.7810992 L211.932861,9.7810992 L211.932861,19.1146898 L219.46124,19.1146898 L219.46124,9.7810992 L224.782049,9.7810992 L224.782049,33.1859997 L219.46124,33.1859997 L219.46124,23.7956699 L211.932861,23.7956699 Z M243.201771,9.7810992 L243.201771,14.4620793 L235.163953,14.4620793 L235.163953,19.1146898 L242.862145,19.1146898 L242.862145,23.7956699 L235.163953,23.7956699 L235.163953,28.5050196 L243.201771,28.5050196 L243.201771,33.1859997 L229.843144,33.1859997 L229.843144,9.7810992 L243.201771,9.7810992 Z M254.484351,14.4620793 L254.484351,9.7810992 L270.899613,9.7810992 L270.899613,14.4620793 L265.352386,14.4620793 L265.352386,33.1859997 L260.031577,33.1859997 L260.031577,14.4620793 L254.484351,14.4620793 Z M279.809804,23.7956699 L279.809804,33.1859997 L274.488995,33.1859997 L274.488995,9.7810992 L279.809804,9.7810992 L279.809804,19.1146898 L287.338183,19.1146898 L287.338183,9.7810992 L292.658992,9.7810992 L292.658992,33.1859997 L287.338183,33.1859997 L287.338183,23.7956699 L279.809804,23.7956699 Z M303.040896,9.7810992 L303.040896,33.1859997 L297.720087,33.1859997 L297.720087,9.7810992 L303.040896,9.7810992 Z M313.4228,18.6607766 L313.4228,33.1859997 L308.101991,33.1859997 L308.101991,9.7810992 L313.4228,9.7810992 L322.705914,24.3063223 L322.762519,24.3063223 L322.762519,9.7810992 L328.083328,9.7810992 L328.083328,33.1859997 L322.762519,33.1859997 L313.479405,18.6607766 L313.4228,18.6607766 Z M354.257846,20.0792554 L354.257846,25.1574096 C352.984248,31.086651 348.05967,33.6115433 343.474717,33.6115433 C337.191634,33.6115433 332.097242,28.1929543 332.097242,21.4977342 C332.097242,14.7741446 336.908612,9.35555556 343.474717,9.35555556 C347.578533,9.35555556 350.437053,10.8875127 352.474809,13.3556658 L348.993642,17.1855586 C347.635137,15.0011012 345.8521,14.1783835 343.786041,14.1783835 C340.502989,14.1783835 337.842584,17.4408848 337.842584,21.4977342 C337.842584,25.4694749 340.502989,28.7036066 343.786041,28.7036066 C346.333237,28.7036066 348.852131,27.0581712 348.852131,24.192844 L343.474717,24.192844 L343.474717,20.0792554 L354.257846,20.0792554 Z M366.309579,9.35555556 C370.554905,9.35555556 373.554936,11.5683825 373.554936,11.5683825 L371.403971,15.823819 C371.403971,15.823819 369.083192,14.2067531 366.677507,14.2067531 C364.866168,14.2067531 363.903894,15.0294708 363.903894,16.3061018 C363.903894,17.6111023 366.111464,18.5472983 368.771868,19.6820813 C371.375669,20.7884948 374.234188,23.0013218 374.234188,26.065236 C374.234188,31.6540426 369.988862,33.6115433 365.432212,33.6115433 C359.969892,33.6115433 356.658537,30.5192595 356.658537,30.5192595 L359.318942,26.0368664 C359.318942,26.0368664 362.432181,28.6752371 365.035981,28.6752371 C366.19637,28.6752371 368.40394,28.5617587 368.40394,26.3773014 C368.40394,24.6751268 365.913349,23.9091482 363.139735,22.519039 C360.33782,21.1289297 358.696294,18.9444724 358.696294,16.5046888 C358.696294,12.135774 362.54539,9.35555556 366.309579,9.35555556 Z M199.278652,43.0473348 C204.593623,43.0473348 208.349536,45.8177014 208.349536,45.8177014 L205.656617,51.1453295 C205.656617,51.1453295 202.7511,49.1208308 199.739283,49.1208308 C197.471562,49.1208308 196.266836,50.1508389 196.266836,51.7491273 C196.266836,53.3829333 199.03062,54.5550114 202.361335,55.9757123 C205.621184,57.3608956 209.199931,60.1312622 209.199931,63.9671544 C209.199931,70.9641059 203.88496,73.4148148 198.180225,73.4148148 C191.341629,73.4148148 187.195952,69.5434051 187.195952,69.5434051 L190.526667,63.9316368 C190.526667,63.9316368 194.424312,67.2347662 197.684161,67.2347662 C199.13692,67.2347662 201.900705,67.0926962 201.900705,64.3578471 C201.900705,62.2267959 198.782588,61.2678228 195.310141,59.5274643 C191.80226,57.7871058 189.747138,55.0522567 189.747138,51.99775 C189.747138,46.5280518 194.566045,43.0473348 199.278652,43.0473348 Z M225.281789,49.4404885 L225.281789,43.5800976 L245.83301,43.5800976 L245.83301,49.4404885 L238.888114,49.4404885 L238.888114,72.882052 L232.226684,72.882052 L232.226684,49.4404885 L225.281789,49.4404885 Z M277.895213,43.5800976 L289.694448,72.882052 L282.536954,72.882052 L280.375533,67.0216611 L269.249527,67.0216611 L267.088106,72.882052 L259.930612,72.882052 L271.729847,43.5800976 L277.895213,43.5800976 Z M278.107812,61.1612702 L274.847963,52.6370653 L274.777097,52.6370653 L271.517248,61.1612702 L278.107812,61.1612702 Z M321.756652,66.8440735 C325.158233,66.8440735 327.49682,65.03268 327.49682,65.03268 L330.331471,70.7154833 C330.331471,70.7154833 327.071623,73.4148148 320.729091,73.4148148 C312.47317,73.4148148 304.890478,66.6664859 304.890478,58.2843511 C304.890478,49.8666987 312.437736,43.0473348 320.729091,43.0473348 C327.071623,43.0473348 330.331471,45.7466663 330.331471,45.7466663 L327.49682,51.4294696 C327.49682,51.4294696 325.158233,49.6180761 321.756652,49.6180761 C315.059789,49.6180761 312.118838,54.3063888 312.118838,58.213316 C312.118838,62.1557608 315.059789,66.8440735 321.756652,66.8440735 Z M376,72.882052 L366.822817,72.882052 L356.051143,60.4509198 L356.051143,72.882052 L349.389713,72.882052 L349.389713,43.5800976 L356.051143,43.5800976 L356.051143,55.549502 L366.078721,43.5800976 L374.157477,43.5800976 L362.393675,57.4674481 L376,72.882052 Z"
          id="THETHINGSSTACK"
          fill="#333333"
          fill-rule="nonzero"></path>
        <g id="Group-2">
          <g transform="translate(0.000000, 0.210000)">
            <mask id="mask-3" fill="white">
              <use xlink:href="#path-2"></use>
            </mask>
            <use id="Combined-Shape" fill="url(#linearGradient-1)" xlink:href="#path-2"></use>
            <g id="Group-5" mask="url(#mask-3)">
              <g transform="translate(0.000000, -1.000000)">
                <path
                  d="M3.65829103,16.3350142 L46.8043425,1.59606766 C49.0876539,0.816074993 51.5709524,2.03475557 52.3509451,4.3180669 C52.4084051,4.48627244 52.4555463,4.65782788 52.4921059,4.83177659 L64.7379444,63.0969457 C65.1919255,65.256968 63.9634904,67.4163243 61.8747844,68.1298386 L18.7287329,82.8687851 C16.4454216,83.6487778 13.962123,82.4300972 13.1821303,80.1467859 C13.1246703,79.9785804 13.0775291,79.8070249 13.0409696,79.6330762 L0.795131035,21.3679071 C0.341149946,19.2078848 1.56958506,17.0485285 3.65829103,16.3350142 Z"
                  id="Rectangle-Copy-102"
                  fill="url(#linearGradient-4)"></path>
                <path
                  d="M34.6891869,16.3350142 L77.8352384,1.59606766 C80.1185497,0.816074993 82.6018483,2.03475557 83.3818409,4.3180669 C83.4393009,4.48627244 83.4864421,4.65782788 83.5230017,4.83177659 L95.7688402,63.0969457 C96.2228213,65.256968 94.9943862,67.4163243 92.9056802,68.1298386 L49.7596287,82.8687851 C47.4763174,83.6487778 44.9930188,82.4300972 44.2130262,80.1467859 C44.1555662,79.9785804 44.108425,79.8070249 44.0718654,79.6330762 L31.8260269,21.3679071 C31.3720458,19.2078848 32.6004809,17.0485285 34.6891869,16.3350142 Z"
                  id="Rectangle-Copy-103"
                  fill="url(#linearGradient-5)"></path>
                <path
                  d="M53.5550244,9.89033811 L64.7379444,63.0969457 C65.1919255,65.256968 63.9634904,67.4163243 61.8747844,68.1298386 L43.0080244,74.5743381 L31.8260269,21.3679071 C31.3720458,19.2078848 32.6004809,17.0485285 34.6891869,16.3350142 L53.5550244,9.89033811 Z"
                  id="Combined-Shape"
                  fill="url(#linearGradient-6)"></path>
                <path
                  d="M65.7200827,16.3350142 L108.866134,1.59606766 C111.149446,0.816074993 113.632744,2.03475557 114.412737,4.3180669 C114.470197,4.48627244 114.517338,4.65782788 114.553898,4.83177659 L126.799736,63.0969457 C127.253717,65.256968 126.025282,67.4163243 123.936576,68.1298386 L80.7905246,82.8687851 C78.5072132,83.6487778 76.0239147,82.4300972 75.243922,80.1467859 C75.186462,79.9785804 75.1393208,79.8070249 75.1027612,79.6330762 L62.8569227,21.3679071 C62.4029416,19.2078848 63.6313767,17.0485285 65.7200827,16.3350142 Z"
                  id="Rectangle-Copy-104"
                  fill="url(#linearGradient-7)"></path>
                <path
                  d="M84.5859203,9.89033811 L95.7688402,63.0969457 C96.2228213,65.256968 94.9943862,67.4163243 92.9056802,68.1298386 L74.0389203,74.5743381 L62.8569227,21.3679071 C62.4029416,19.2078848 63.6313767,17.0485285 65.7200827,16.3350142 L84.5859203,9.89033811 Z"
                  id="Combined-Shape"
                  fill="url(#linearGradient-8)"></path>
                <path
                  d="M96.7509785,16.3350142 L139.89703,1.59606766 C142.180341,0.816074993 144.66364,2.03475557 145.443633,4.3180669 C145.501093,4.48627244 145.548234,4.65782788 145.584793,4.83177659 L157.830632,63.0969457 C158.284613,65.256968 157.056178,67.4163243 154.967472,68.1298386 L111.82142,82.8687851 C109.538109,83.6487778 107.05481,82.4300972 106.274818,80.1467859 C106.217358,79.9785804 106.170217,79.8070249 106.133657,79.6330762 L93.8878185,21.3679071 C93.4338374,19.2078848 94.6622725,17.0485285 96.7509785,16.3350142 Z"
                  id="Rectangle-Copy-111"
                  fill="url(#linearGradient-9)"></path>
                <path
                  d="M115.616816,9.89033811 L126.799736,63.0969457 C127.253717,65.256968 126.025282,67.4163243 123.936576,68.1298386 L105.069816,74.5743381 L93.8878185,21.3679071 C93.4338374,19.2078848 94.6622725,17.0485285 96.7509785,16.3350142 L115.616816,9.89033811 Z"
                  id="Combined-Shape"
                  fill="url(#linearGradient-10)"></path>
              </g>
            </g>
            <path
              d="M59.0559649,27.6478947 L59.0559649,29.9347368 L55.1198246,29.9347368 L55.1198246,32.2077193 L58.8896491,32.2077193 L58.8896491,34.4945614 L55.1198246,34.4945614 L55.1198246,36.7952632 L59.0559649,36.7952632 L59.0559649,39.0821053 L52.5142105,39.0821053 L52.5142105,27.6478947 L59.0559649,27.6478947 Z M63.9736946,31.9859649 L63.9736946,39.0821053 L61.3680806,39.0821053 L61.3680806,27.6478947 L63.9736946,27.6478947 L68.5196595,34.7440351 L68.5473788,34.7440351 L68.5473788,27.6478947 L71.1529929,27.6478947 L71.1529929,39.0821053 L68.5473788,39.0821053 L64.0014139,31.9859649 L63.9736946,31.9859649 Z M72.2454594,29.9347368 L72.2454594,27.6478947 L80.2840559,27.6478947 L80.2840559,29.9347368 L77.5675647,29.9347368 L77.5675647,39.0821053 L74.9619506,39.0821053 L74.9619506,29.9347368 L72.2454594,29.9347368 Z M88.58354,27.6478947 L88.58354,29.9347368 L84.6473996,29.9347368 L84.6473996,32.2077193 L88.4172242,32.2077193 L88.4172242,34.4945614 L84.6473996,34.4945614 L84.6473996,36.7952632 L88.58354,36.7952632 L88.58354,39.0821053 L82.0417856,39.0821053 L82.0417856,27.6478947 L88.58354,27.6478947 Z M90.8956556,27.6478947 L94.9842521,27.6478947 C97.1047784,27.6478947 98.7124977,28.7982456 98.7124977,31.0435088 C98.7124977,32.7621053 97.7700416,33.9124561 96.370217,34.3559649 L100.306357,39.0821053 L96.9939012,39.0821053 L93.5012697,34.5638596 L93.5012697,39.0821053 L90.8956556,39.0821053 L90.8956556,27.6478947 Z M93.5012697,32.7205263 L93.8061819,32.7205263 C94.790217,32.7205263 95.9682872,32.6512281 95.9682872,31.2236842 C95.9682872,29.7961404 94.790217,29.7268421 93.8061819,29.7268421 L93.5012697,29.7268421 L93.5012697,32.7205263 Z M101.634438,27.6478947 L105.806192,27.6478947 C108.037596,27.6478947 109.714613,28.7982456 109.714613,31.1682456 C109.714613,33.524386 108.037596,34.8410526 105.806192,34.8410526 L104.240052,34.8410526 L104.240052,39.0821053 L101.634438,39.0821053 L101.634438,27.6478947 Z M104.240052,32.7621053 L104.974613,32.7621053 C106.000227,32.7621053 106.970403,32.415614 106.970403,31.2514035 C106.970403,30.0733333 106.000227,29.7268421 104.974613,29.7268421 L104.240052,29.7268421 L104.240052,32.7621053 Z M111.680238,27.6478947 L115.768834,27.6478947 C117.889361,27.6478947 119.49708,28.7982456 119.49708,31.0435088 C119.49708,32.7621053 118.554624,33.9124561 117.154799,34.3559649 L121.09094,39.0821053 L117.778483,39.0821053 L114.285852,34.5638596 L114.285852,39.0821053 L111.680238,39.0821053 L111.680238,27.6478947 Z M114.285852,32.7205263 L114.590764,32.7205263 C115.574799,32.7205263 116.752869,32.6512281 116.752869,31.2236842 C116.752869,29.7961404 115.574799,29.7268421 114.590764,29.7268421 L114.285852,29.7268421 L114.285852,32.7205263 Z M125.024634,27.6478947 L125.024634,39.0821053 L122.41902,39.0821053 L122.41902,27.6478947 L125.024634,27.6478947 Z M131.439206,27.44 C133.518153,27.44 134.987276,28.5210526 134.987276,28.5210526 L133.933943,30.6 C133.933943,30.6 132.797452,29.81 131.619381,29.81 C130.732364,29.81 130.261136,30.2119298 130.261136,30.835614 C130.261136,31.4731579 131.342188,31.9305263 132.644995,32.4849123 C133.920083,33.0254386 135.319908,34.1064912 135.319908,35.6033333 C135.319908,38.3336842 133.24096,39.29 131.009557,39.29 C128.334645,39.29 126.713066,37.7792982 126.713066,37.7792982 L128.015873,35.5894737 C128.015873,35.5894737 129.540434,36.8784211 130.815522,36.8784211 C131.383767,36.8784211 132.46482,36.8229825 132.46482,35.7557895 C132.46482,34.9242105 131.245171,34.55 129.886925,33.8708772 C128.51482,33.1917544 127.71096,32.1245614 127.71096,30.9326316 C127.71096,28.7982456 129.595873,27.44 131.439206,27.44 Z M143.896585,27.6478947 L143.896585,29.9347368 L139.960444,29.9347368 L139.960444,32.2077193 L143.730269,32.2077193 L143.730269,34.4945614 L139.960444,34.4945614 L139.960444,36.7952632 L143.896585,36.7952632 L143.896585,39.0821053 L137.35483,39.0821053 L137.35483,27.6478947 L143.896585,27.6478947 Z"
              id="ENTERPRISE"
              fill="#002488"
              fill-rule="nonzero"></path>
          </g>
        </g>
      </g>
    </g>
  </g>
</svg>
