<svg width="874" height="458" xmlns="http://www.w3.org/2000/svg"><g fill="none" fill-rule="evenodd"><path d="M285.888 16.536c.318.94.58 1.9.782 2.872l2.532 12.174-106.397 36.711c-19.35 6.677-30.683 26.798-26.502 46.89l62.322 299.506-117.605 40.579-1.235.426c-12.638 4.36-26.384-2.453-30.701-15.218a24.62 24.62 0 01-.781-2.872L.52 111.858C-1.993 99.78 4.807 87.709 16.368 83.72L255.187 1.318a23.94 23.94 0 017.632-1.317h.38c9.984.08 19.278 6.45 22.69 16.535zm6.666 31.152l14.044 67.494 47.854 229.972c2.513 12.077-4.287 24.149-15.848 28.138l-104.427 36.031-61.897-297.465c-2.513-12.077 4.287-24.149 15.848-28.138l104.426-36.032z" fill="#0047FF"/><path d="M457.648 16.536c.318.94.579 1.9.781 2.872l2.757 13.248L357.9 68.293c-19.35 6.677-30.683 26.798-26.502 46.89l62.099 298.432-120.718 41.653-1.235.426c-12.639 4.36-26.384-2.453-30.701-15.218a24.62 24.62 0 01-.782-2.872L172.28 111.858c-2.513-12.077 4.287-24.149 15.848-28.138L426.947 1.318a23.94 23.94 0 017.632-1.317h.379c9.985.08 19.28 6.45 22.69 16.535zm6.889 32.226l61.675 296.392c2.512 12.077-4.287 24.149-15.848 28.138L409.05 408.25l-61.674-296.391c-2.513-12.077 4.287-24.149 15.848-28.138l101.313-34.958z" fill="#1E5DFF"/><path d="M632.744 16.536c.318.94.579 1.9.781 2.872l2.533 12.174L529.66 68.293c-19.35 6.677-30.683 26.798-26.502 46.89l62.322 299.506-117.605 40.579-1.235.426c-12.639 4.36-26.384-2.453-30.702-15.218-.318-.94-.579-1.9-.78-2.872l-67.783-325.746c-2.513-12.077 4.287-24.149 15.848-28.138L602.043 1.318a23.94 23.94 0 017.631-1.317h.38c9.984.08 19.279 6.45 22.69 16.535zm6.666 31.152l14.044 67.494 47.853 229.972c2.513 12.077-4.286 24.149-15.848 28.138l-104.426 36.031-61.897-297.465c-2.513-12.077 4.286-24.149 15.848-28.138L639.41 47.688z" fill="#3D73FF"/><path d="M804.504 16.536c.318.94.579 1.9.781 2.872l67.782 325.746c2.513 12.077-4.287 24.149-15.848 28.138L618.4 455.694c-12.638 4.36-26.383-2.453-30.7-15.218-.319-.94-.58-1.9-.782-2.872l-67.782-325.746c-2.513-12.077 4.286-24.149 15.848-28.138L773.802 1.318c12.639-4.36 26.384 2.453 30.702 15.218z" fill="#6C95FF"/></g></svg>