<svg viewBox="0 0 368 87" xmlns="http://www.w3.org/2000/svg" xmlns:xlink="http://www.w3.org/1999/xlink"><defs><linearGradient id="c" x1="50%" x2="50%" y2="100%"><stop stop-color="#2380FF" offset="0"/><stop stop-color="#006CFF" offset="1"/></linearGradient><linearGradient id="d" x1="50%" x2="50%" y2="100%"><stop stop-color="#579BFF" offset="0"/><stop stop-color="#006CFF" offset="1"/></linearGradient><linearGradient id="e" x1="50%" x2="50%" y2="100%"><stop stop-color="#579BFF" offset="0"/><stop stop-color="#2B81FF" offset="1"/></linearGradient><linearGradient id="f" x1="50%" x2="50%" y2="100%"><stop stop-color="#0643EC" offset="0"/><stop stop-color="#003FED" offset="1"/></linearGradient><linearGradient id="g" x1="50%" x2="50%" y2="100%"><stop stop-color="#003DE6" offset="0"/><stop stop-color="#1B58FF" offset="1"/></linearGradient><linearGradient id="h" x1="50%" x2="50%" y2="100%"><stop stop-color="#1654FF" offset="0"/><stop stop-color="#1552F9" offset="1"/></linearGradient><linearGradient id="i" x1="50%" x2="50%" y2="100%"><stop stop-color="#2380FF" offset="0"/><stop stop-color="#4576FF" offset="1"/></linearGradient><linearGradient id="l" x1="19.698%" x2="50%" y2="100%"><stop stop-color="#fff" offset="0"/><stop stop-color="#ddd" offset="1"/></linearGradient><filter id="j" x="-17.9%" y="-12.8%" width="135.9%" height="135.9%"><feOffset dy="2" in="SourceAlpha" result="shadowOffsetOuter1"/><feGaussianBlur in="shadowOffsetOuter1" result="shadowBlurOuter1" stdDeviation="2"/><feColorMatrix in="shadowBlurOuter1" values="0 0 0 0 0 0 0 0 0 0 0 0 0 0 0 0 0 0 0.247596154 0"/></filter><circle id="a" cx="43.253" cy="43.253" r="43.253"/><path id="k" d="M43.5 24C32.929 24 24 32.929 24 43.5S32.929 63 43.5 63 63 54.071 63 43.5 54.071 24 43.5 24zm0 9.75c3.368 0 5.85 2.48 5.85 5.85s-2.482 5.85-5.85 5.85c-3.366 0-5.85-2.48-5.85-5.85s2.484-5.85 5.85-5.85zm-9.957 19.055c1.75-2.574 4.667-4.29 8.007-4.29h3.9c3.342 0 6.258 1.716 8.007 4.29-2.492 2.668-6.028 4.345-9.957 4.345s-7.465-1.677-9.957-4.345z"/></defs><g fill="none" fill-rule="evenodd"><mask id="b" fill="#fff"><use xlink:href="#a"/></mask><use fill="#D8D8D8" xlink:href="#a"/><g mask="url(#b)"><path fill="url(#c)" d="M0 0h32.529v89.365H0z" transform="rotate(-15 39.147 57.107)"/><path fill="url(#d)" d="M32.171 0H64.7v89.365H32.171z" transform="rotate(-15 39.147 57.107)"/><path fill="url(#e)" d="M64.343 0h32.529v89.365H64.343z" transform="rotate(-15 39.147 57.107)"/><path fill="url(#f)" d="M96.157 0h32.529v89.365H96.157z" transform="rotate(-15 39.147 57.107)"/><path fill="url(#g)" d="M128.33 0h32.529v89.365H128.33z" transform="rotate(-15 39.147 57.107)"/><path fill="url(#h)" d="M160.5 0h32.529v89.365H160.5z" transform="rotate(-15 39.147 57.107)"/><path fill="url(#i)" d="M192.67 0h32.529v89.365H192.67z" transform="rotate(-15 39.147 57.107)"/></g><g fill-rule="nonzero"><use fill="#000" filter="url(#j)" xlink:href="#k"/><use fill="url(#l)" xlink:href="#k"/></g><path d="M130.28 44.44l2.501-6.765h12.874l2.501 6.765h8.282l-13.653-33.825h-7.134L121.998 44.44h8.282zm12.751-13.53h-7.626l3.772-9.84h.082l3.772 9.84zm35.137 14.145c7.339 0 11.111-3.116 11.111-3.116l-3.28-6.56s-2.706 2.091-6.642 2.091c-7.749 0-11.152-5.412-11.152-9.963 0-4.51 3.403-9.922 11.152-9.922 3.936 0 6.642 2.091 6.642 2.091l3.28-6.56-.016-.013c-.268-.214-4.028-3.103-11.095-3.103-9.594 0-18.327 7.872-18.327 17.589 0 9.676 8.774 17.466 18.327 17.466zm35.793 0c7.339 0 11.111-3.116 11.111-3.116l-3.28-6.56s-2.706 2.091-6.642 2.091c-7.749 0-11.152-5.412-11.152-9.963 0-4.51 3.403-9.922 11.152-9.922 3.936 0 6.642 2.091 6.642 2.091l3.28-6.56-.016-.013c-.268-.214-4.028-3.103-11.095-3.103-9.594 0-18.327 7.872-18.327 17.589 0 9.676 8.774 17.466 18.327 17.466zm34.522 0c9.717 0 17.015-7.667 17.015-17.548S257.872 10 248.483 10c-9.307 0-17.056 7.626-17.056 17.507s7.052 17.548 17.056 17.548zm0-7.462c-6.314 0-8.733-5.043-8.733-10.086s2.788-10.086 8.733-10.086c5.986 0 8.692 5.043 8.692 10.086s-2.542 10.086-8.692 10.086zm38.13 7.462c8.61 0 13.202-4.264 13.202-12.628V10.615h-7.708v19.557c0 5.658-1.722 7.298-5.494 7.298s-5.494-1.64-5.494-7.298V10.615h-7.708v21.812c0 8.364 4.592 12.628 13.202 12.628zm30.34-.615V23.448h.082l13.448 20.992h7.708V10.615h-7.708v20.992h-.082l-13.448-20.992h-7.708V44.44h7.708zm42.722 0V17.38h8.036v-6.765h-23.78v6.765h8.036v27.06h7.708zm-232.18 32l1.525-4.125h7.85l1.525 4.125h5.05l-8.325-20.625h-4.35l-8.325 20.625h5.05zm7.775-8.25h-4.65l2.3-6h.05l2.3 6zm20.547 8.25v-7.65h2.825c4.025 0 7.05-2.375 7.05-6.625 0-4.275-3.025-6.35-7.05-6.35h-7.525V76.44h4.7zm1.325-11.4h-1.325v-5.475h1.325c1.85 0 3.6.625 3.6 2.75 0 2.1-1.75 2.725-3.6 2.725zm22.197 11.4v-7.65h2.825c4.025 0 7.05-2.375 7.05-6.625 0-4.275-3.025-6.35-7.05-6.35h-7.525V76.44h4.7zm1.325-11.4h-1.325v-5.475h1.325c1.85 0 3.6.625 3.6 2.75 0 2.1-1.75 2.725-3.6 2.725zm29.297 11.4v-4.125h-7.1v-16.5h-4.7V76.44h11.8zm13.897 0V55.815h-4.7V76.44h4.7zm19.322.375c4.475 0 6.775-1.9 6.775-1.9l-2-4s-1.65 1.275-4.05 1.275c-4.725 0-6.8-3.3-6.8-6.075 0-2.75 2.075-6.05 6.8-6.05 2.4 0 4.05 1.275 4.05 1.275l2-4s-2.3-1.9-6.775-1.9c-5.85 0-11.175 4.8-11.175 10.725 0 5.9 5.35 10.65 11.175 10.65zm18.297-.375l1.525-4.125h7.85l1.525 4.125h5.05l-8.325-20.625h-4.35l-8.325 20.625h5.05zm7.775-8.25h-4.65l2.3-6h.05l2.3 6zm22.947 8.25v-16.5h4.9v-4.125h-14.5v4.125h4.9v16.5h4.7zm18.172 0V55.815h-4.7V76.44h4.7zm19.347.375c5.925 0 10.375-4.675 10.375-10.7s-4.65-10.675-10.375-10.675c-5.675 0-10.4 4.65-10.4 10.675s4.3 10.7 10.4 10.7zm0-4.55c-3.85 0-5.325-3.075-5.325-6.15s1.7-6.15 5.325-6.15c3.65 0 5.3 3.075 5.3 6.15s-1.55 6.15-5.3 6.15zm24.022 4.175v-12.8h.05l8.2 12.8h4.7V55.815h-4.7v12.8h-.05l-8.2-12.8h-4.7V76.44h4.7z" fill="#333" fill-rule="nonzero"/></g></svg>
