<?xml version="1.0" encoding="UTF-8"?>
<svg version="1.1" viewBox="0 0 368 87" xmlns="http://www.w3.org/2000/svg" xmlns:xlink="http://www.w3.org/1999/xlink">
<title>Group 7 Copy 2</title>
<desc>Created with Sketch.</desc>
<defs>
<circle id="b" cx="43.253" cy="43.253" r="43.253"/>
<linearGradient id="j" x1="50%" x2="50%" y2="100%">
<stop stop-color="#2380FF" offset="0"/>
<stop stop-color="#006CFF" offset="1"/>
</linearGradient>
<linearGradient id="i" x1="50%" x2="50%" y2="100%">
<stop stop-color="#579BFF" offset="0"/>
<stop stop-color="#006CFF" offset="1"/>
</linearGradient>
<linearGradient id="h" x1="50%" x2="50%" y2="100%">
<stop stop-color="#579BFF" offset="0"/>
<stop stop-color="#2B81FF" offset="1"/>
</linearGradient>
<linearGradient id="g" x1="50%" x2="50%" y2="100%">
<stop stop-color="#0643EC" offset="0"/>
<stop stop-color="#003FED" offset="1"/>
</linearGradient>
<linearGradient id="f" x1="50%" x2="50%" y2="100%">
<stop stop-color="#003DE6" offset="0"/>
<stop stop-color="#1B58FF" offset="1"/>
</linearGradient>
<linearGradient id="e" x1="50%" x2="50%" y2="100%">
<stop stop-color="#1654FF" offset="0"/>
<stop stop-color="#1552F9" offset="1"/>
</linearGradient>
<linearGradient id="d" x1="50%" x2="50%" y2="100%">
<stop stop-color="#2380FF" offset="0"/>
<stop stop-color="#4576FF" offset="1"/>
</linearGradient>
<linearGradient id="k" x1="19.698%" x2="50%" y2="100%">
<stop stop-color="#fff" offset="0"/>
<stop stop-color="#ddd" offset="1"/>
</linearGradient>
<path id="a" d="m43.5 24c-10.571 0-19.5 8.929-19.5 19.5s8.929 19.5 19.5 19.5 19.5-8.929 19.5-19.5-8.929-19.5-19.5-19.5zm0 9.75c3.3676 0 5.85 2.4804 5.85 5.85s-2.4824 5.85-5.85 5.85c-3.3657 0-5.85-2.4804-5.85-5.85s2.4843-5.85 5.85-5.85zm-9.9567 19.055c1.7492-2.574 4.6664-4.29 8.0067-4.29h3.9c3.3423 0 6.2576 1.716 8.0067 4.29-2.4921 2.6676-6.0274 4.3446-9.9567 4.3446s-7.4646-1.677-9.9567-4.3446z"/>
<filter id="l" x="-17.9%" y="-12.8%" width="135.9%" height="135.9%">
<feOffset dx="0" dy="2" in="SourceAlpha" result="shadowOffsetOuter1"/>
<feGaussianBlur in="shadowOffsetOuter1" result="shadowBlurOuter1" stdDeviation="2"/>
<feColorMatrix in="shadowBlurOuter1" values="0 0 0 0 0   0 0 0 0 0   0 0 0 0 0  0 0 0 0.247596154 0"/>
</filter>
</defs>
<g fill="none" fill-rule="evenodd">
<g transform="translate(-536 -527)">
<g transform="translate(536 527)">
<mask id="c" fill="white">
<use xlink:href="#b"/>
</mask>
<use fill="#D8D8D8" xlink:href="#b"/>
<g mask="url(#c)">
<g transform="translate(107.35 26.298) rotate(-15) translate(-113 -45)">
<rect width="32.529" height="89.365" fill="url(#j)"/>
<rect x="32.171" width="32.529" height="89.365" fill="url(#i)"/>
<rect x="64.343" width="32.529" height="89.365" fill="url(#h)"/>
<rect x="96.157" width="32.529" height="89.365" fill="url(#g)"/>
<rect x="128.33" width="32.529" height="89.365" fill="url(#f)"/>
<rect x="160.5" width="32.529" height="89.365" fill="url(#e)"/>
<rect x="192.67" width="32.529" height="89.365" fill="url(#d)"/>
</g>
</g>
<g fill-rule="nonzero">
<use fill="black" filter="url(#l)" xlink:href="#a"/>
<use fill="url(#k)" xlink:href="#a"/>
</g>
<path d="m130.28 44.44 2.501-6.765h12.874l2.501 6.765h8.282l-13.653-33.825h-7.134l-13.653 33.825h8.282zm12.751-13.53h-7.626l3.772-9.84h0.082l3.772 9.84zm35.137 14.145c7.339 0 11.111-3.116 11.111-3.116l-3.28-6.56s-2.706 2.091-6.642 2.091c-7.749 0-11.152-5.412-11.152-9.963 0-4.51 3.403-9.922 11.152-9.922 3.936 0 6.642 2.091 6.642 2.091l3.28-6.56-0.015512-0.012506c-0.26879-0.21403-4.0283-3.1035-11.095-3.1035-9.594 0-18.327 7.872-18.327 17.589 0 9.676 8.774 17.466 18.327 17.466zm35.793 0c7.339 0 11.111-3.116 11.111-3.116l-3.28-6.56s-2.706 2.091-6.642 2.091c-7.749 0-11.152-5.412-11.152-9.963 0-4.51 3.403-9.922 11.152-9.922 3.936 0 6.642 2.091 6.642 2.091l3.28-6.56-0.015512-0.012506c-0.26879-0.21403-4.0283-3.1035-11.095-3.1035-9.594 0-18.327 7.872-18.327 17.589 0 9.676 8.774 17.466 18.327 17.466zm34.522 0c9.717 0 17.015-7.667 17.015-17.548s-7.626-17.507-17.015-17.507c-9.307 0-17.056 7.626-17.056 17.507s7.052 17.548 17.056 17.548zm0-7.462c-6.314 0-8.733-5.043-8.733-10.086s2.788-10.086 8.733-10.086c5.986 0 8.692 5.043 8.692 10.086s-2.542 10.086-8.692 10.086zm38.13 7.462c8.61 0 13.202-4.264 13.202-12.628v-21.812h-7.708v19.557c0 5.658-1.722 7.298-5.494 7.298s-5.494-1.64-5.494-7.298v-19.557h-7.708v21.812c0 8.364 4.592 12.628 13.202 12.628zm30.34-0.615v-20.992h0.082l13.448 20.992h7.708v-33.825h-7.708v20.992h-0.082l-13.448-20.992h-7.708v33.825h7.708zm42.722 0v-27.06h8.036v-6.765h-23.78v6.765h8.036v27.06h7.708zm-232.18 32 1.525-4.125h7.85l1.525 4.125h5.05l-8.325-20.625h-4.35l-8.325 20.625h5.05zm7.775-8.25h-4.65l2.3-6h0.05l2.3 6zm20.547 8.25v-7.65h2.825c4.025 0 7.05-2.375 7.05-6.625 0-4.275-3.025-6.35-7.05-6.35h-7.525v20.625h4.7zm1.325-11.4h-1.325v-5.475h1.325c1.85 0 3.6 0.625 3.6 2.75 0 2.1-1.75 2.725-3.6 2.725zm22.197 11.4v-7.65h2.825c4.025 0 7.05-2.375 7.05-6.625 0-4.275-3.025-6.35-7.05-6.35h-7.525v20.625h4.7zm1.325-11.4h-1.325v-5.475h1.325c1.85 0 3.6 0.625 3.6 2.75 0 2.1-1.75 2.725-3.6 2.725zm29.297 11.4v-4.125h-7.1v-16.5h-4.7v20.625h11.8zm13.897 0v-20.625h-4.7v20.625h4.7zm19.322 0.375c4.475 0 6.775-1.9 6.775-1.9l-2-4s-1.65 1.275-4.05 1.275c-4.725 0-6.8-3.3-6.8-6.075 0-2.75 2.075-6.05 6.8-6.05 2.4 0 4.05 1.275 4.05 1.275l2-4s-2.3-1.9-6.775-1.9c-5.85 0-11.175 4.8-11.175 10.725 0 5.9 5.35 10.65 11.175 10.65zm18.297-0.375 1.525-4.125h7.85l1.525 4.125h5.05l-8.325-20.625h-4.35l-8.325 20.625h5.05zm7.775-8.25h-4.65l2.3-6h0.05l2.3 6zm22.947 8.25v-16.5h4.9v-4.125h-14.5v4.125h4.9v16.5h4.7zm18.172 0v-20.625h-4.7v20.625h4.7zm19.347 0.375c5.925 0 10.375-4.675 10.375-10.7s-4.65-10.675-10.375-10.675c-5.675 0-10.4 4.65-10.4 10.675s4.3 10.7 10.4 10.7zm0-4.55c-3.85 0-5.325-3.075-5.325-6.15s1.7-6.15 5.325-6.15c3.65 0 5.3 3.075 5.3 6.15s-1.55 6.15-5.3 6.15zm24.022 4.175v-12.8h0.05l8.2 12.8h4.7v-20.625h-4.7v12.8h-0.05l-8.2-12.8h-4.7v20.625h4.7z" fill="#333" fill-rule="nonzero"/>
</g>
</g>
</g>
</svg>
