<svg width="128" height="128" xmlns="http://www.w3.org/2000/svg" xmlns:xlink="http://www.w3.org/1999/xlink"><style>#dark{display:none}@media (prefers-color-scheme:dark){#dark{display:inline}#light{display:none}}</style><defs><linearGradient x1="20.541%" y1="0%" x2="79.459%" y2="100%" id="linearGradient-3"><stop stop-color="#2380FF" offset="0%"/><stop stop-color="#006CFF" offset="100%"/></linearGradient><linearGradient x1="20.541%" y1="0%" x2="79.459%" y2="100%" id="linearGradient-4"><stop stop-color="#579BFF" offset="0%"/><stop stop-color="#2B81FF" offset="100%"/></linearGradient><linearGradient x1="39.392%" y1="0%" x2="60.608%" y2="100%" id="linearGradient-5"><stop stop-color="#579BFF" offset="0%"/><stop stop-color="#006CFF" offset="100%"/></linearGradient><linearGradient x1="20.541%" y1="0%" x2="79.459%" y2="100%" id="linearGradient-6"><stop stop-color="#88B8FF" offset="0%"/><stop stop-color="#5D9FFF" offset="100%"/></linearGradient><linearGradient x1="39.392%" y1="0%" x2="60.608%" y2="100%" id="linearGradient-7"><stop stop-color="#88B8FF" offset="0%"/><stop stop-color="#2B81FF" offset="100%"/></linearGradient><linearGradient x1="20.541%" y1="0%" x2="79.459%" y2="100%" id="linearGradient-8"><stop stop-color="#BDD7FF" offset="0%"/><stop stop-color="#6DA6FF" offset="100%"/></linearGradient><linearGradient x1="39.392%" y1="0%" x2="60.608%" y2="100%" id="linearGradient-9"><stop stop-color="#BDD7FF" offset="0%"/><stop stop-color="#5D9FFF" offset="100%"/></linearGradient><linearGradient x1="20.972%" y1="0%" x2="79.028%" y2="100%" id="linearGradient-10"><stop stop-color="#2380FF" offset="0%"/><stop stop-color="#006CFF" offset="100%"/></linearGradient><linearGradient x1="20.972%" y1="0%" x2="79.028%" y2="100%" id="linearGradient-11"><stop stop-color="#579BFF" offset="0%"/><stop stop-color="#2B81FF" offset="100%"/></linearGradient><linearGradient x1="37.13%" y1="0%" x2="62.87%" y2="100%" id="linearGradient-12"><stop stop-color="#579BFF" offset="0%"/><stop stop-color="#006CFF" offset="100%"/></linearGradient><linearGradient x1="20.972%" y1="0%" x2="79.028%" y2="100%" id="linearGradient-13"><stop stop-color="#88B8FF" offset="0%"/><stop stop-color="#5D9FFF" offset="100%"/></linearGradient><linearGradient x1="37.13%" y1="0%" x2="62.87%" y2="100%" id="linearGradient-14"><stop stop-color="#88B8FF" offset="0%"/><stop stop-color="#2B81FF" offset="100%"/></linearGradient><linearGradient x1="20.972%" y1="0%" x2="79.028%" y2="100%" id="linearGradient-15"><stop stop-color="#BDD7FF" offset="0%"/><stop stop-color="#6DA6FF" offset="100%"/></linearGradient><linearGradient x1="37.13%" y1="0%" x2="62.87%" y2="100%" id="linearGradient-16"><stop stop-color="#BDD7FF" offset="0%"/><stop stop-color="#5D9FFF" offset="100%"/></linearGradient><circle id="path-1" cx="64" cy="64" r="64"/></defs><g id="favicon" stroke="none" stroke-width="1" fill="none" fill-rule="evenodd"><g id="dark"><mask id="mask-2" fill="#fff"><use xlink:href="#path-1"/></mask><use id="Oval" fill="#FFF" xlink:href="#path-1"/><g id="Group-5-Copy-7" mask="url(#mask-2)"><g transform="translate(8 32)" id="Group"><path d="M2.275 11.675l30.874-10.66a2.734 2.734 0 013.57 2.027l8.73 41.991a2.734 2.734 0 01-1.784 3.142L12.79 58.835a2.734 2.734 0 01-3.57-2.028L.49 14.816a2.734 2.734 0 011.785-3.141z" id="Rectangle-Copy-102" fill="url(#linearGradient-3)"/><path d="M24.028 11.675l30.874-10.66a2.734 2.734 0 013.57 2.027l8.73 41.991a2.734 2.734 0 01-1.784 3.142l-30.874 10.66a2.734 2.734 0 01-3.57-2.028l-8.731-41.991a2.734 2.734 0 011.785-3.141z" id="Rectangle-Copy-103" fill="url(#linearGradient-4)"/><path d="M37.543 7.008l7.907 38.025a2.734 2.734 0 01-1.785 3.142L30.15 52.84l-7.907-38.025a2.734 2.734 0 011.785-3.141l13.515-4.667z" id="Combined-Shape" fill="url(#linearGradient-5)"/><path d="M45.78 11.675l30.875-10.66a2.734 2.734 0 013.57 2.027l8.73 41.991a2.734 2.734 0 01-1.784 3.142l-30.874 10.66a2.734 2.734 0 01-3.57-2.028l-8.731-41.991a2.734 2.734 0 011.785-3.141z" id="Rectangle-Copy-104" fill="url(#linearGradient-6)"/><path d="M59.296 7.008l7.907 38.025a2.734 2.734 0 01-1.785 3.142L51.903 52.84l-7.907-38.025a2.734 2.734 0 011.785-3.141l13.515-4.667z" id="Combined-Shape" fill="url(#linearGradient-7)"/><path d="M67.534 11.675l30.874-10.66a2.734 2.734 0 013.57 2.027l8.73 41.991a2.734 2.734 0 01-1.784 3.142L78.05 58.835a2.734 2.734 0 01-3.57-2.028L65.75 14.816a2.734 2.734 0 011.785-3.141z" id="Rectangle-Copy-111" fill="url(#linearGradient-8)"/><path d="M81.049 7.008l7.907 38.025a2.734 2.734 0 01-1.785 3.142L73.656 52.84l-7.907-38.025a2.734 2.734 0 011.785-3.141l13.515-4.667z" id="Combined-Shape" fill="url(#linearGradient-9)"/></g></g></g><g id="light" transform="translate(1 28)"><g id="Group"><path d="M2.264 13.334l35.387-12.31a2.734 2.734 0 013.576 2.03l9.97 48.306a2.734 2.734 0 01-1.78 3.136L14.032 66.805a2.734 2.734 0 01-3.576-2.03L.485 16.469a2.734 2.734 0 011.78-3.135z" id="Rectangle-Copy-102" fill="url(#linearGradient-10)"/><path d="M26.736 13.334l35.387-12.31a2.734 2.734 0 013.576 2.03l9.97 48.306a2.734 2.734 0 01-1.78 3.136L38.505 66.805a2.734 2.734 0 01-3.577-2.03l-9.97-48.306a2.734 2.734 0 011.78-3.135z" id="Rectangle-Copy-103" fill="url(#linearGradient-11)"/><path d="M42.236 7.942l8.961 43.418a2.734 2.734 0 01-1.78 3.136l-15.499 5.39-8.961-43.417a2.734 2.734 0 011.78-3.135l15.499-5.392z" id="Combined-Shape" fill="url(#linearGradient-12)"/><path d="M51.209 13.334l35.386-12.31a2.734 2.734 0 013.576 2.03l9.97 48.306a2.734 2.734 0 01-1.779 3.136L62.976 66.805a2.734 2.734 0 01-3.577-2.03l-9.97-48.306a2.734 2.734 0 011.78-3.135z" id="Rectangle-Copy-104" fill="url(#linearGradient-13)"/><path d="M66.708 7.942L75.67 51.36a2.734 2.734 0 01-1.78 3.136l-15.5 5.39L49.43 16.47a2.734 2.734 0 011.78-3.135l15.499-5.392z" id="Combined-Shape" fill="url(#linearGradient-14)"/><path d="M75.68 13.334l35.387-12.31a2.734 2.734 0 013.577 2.03l9.97 48.306a2.734 2.734 0 01-1.78 3.136L87.448 66.805a2.734 2.734 0 01-3.576-2.03l-9.97-48.306a2.734 2.734 0 011.779-3.135z" id="Rectangle-Copy-111" fill="url(#linearGradient-15)"/><path d="M91.18 7.942l8.962 43.418a2.734 2.734 0 01-1.78 3.136l-15.5 5.39-8.96-43.417a2.734 2.734 0 011.779-3.135l15.5-5.392z" id="Combined-Shape" fill="url(#linearGradient-16)"/></g></g></g></svg>
