<svg width="376" height="82" xmlns="http://www.w3.org/2000/svg"><defs><linearGradient x1="19.902%" y1="0%" x2="80.098%" y2="100%" id="a"><stop stop-color="#2380FF" offset="0%"/><stop stop-color="#006CFF" offset="100%"/></linearGradient><linearGradient x1="19.902%" y1="0%" x2="80.098%" y2="100%" id="b"><stop stop-color="#579BFF" offset="0%"/><stop stop-color="#2B81FF" offset="100%"/></linearGradient><linearGradient x1="36.907%" y1="0%" x2="63.093%" y2="100%" id="c"><stop stop-color="#579BFF" offset="0%"/><stop stop-color="#006CFF" offset="100%"/></linearGradient><linearGradient x1="19.902%" y1="0%" x2="80.098%" y2="100%" id="d"><stop stop-color="#88B8FF" offset="0%"/><stop stop-color="#5D9FFF" offset="100%"/></linearGradient><linearGradient x1="36.907%" y1="0%" x2="63.093%" y2="100%" id="e"><stop stop-color="#88B8FF" offset="0%"/><stop stop-color="#2B81FF" offset="100%"/></linearGradient><linearGradient x1="19.902%" y1="0%" x2="80.098%" y2="100%" id="f"><stop stop-color="#BDD7FF" offset="0%"/><stop stop-color="#6DA6FF" offset="100%"/></linearGradient><linearGradient x1="36.907%" y1="0%" x2="63.093%" y2="100%" id="g"><stop stop-color="#BDD7FF" offset="0%"/><stop stop-color="#5D9FFF" offset="100%"/></linearGradient></defs><g fill="none" fill-rule="evenodd"><path d="M186.607 12.462v-4.68h16.416v4.68h-5.548v18.724h-5.32V12.462h-5.548zm25.326 9.334v9.39h-5.32V7.781h5.32v9.334h7.528V7.78h5.321v23.405h-5.32v-9.39h-7.53zM243.202 7.78v4.681h-8.038v4.653h7.698v4.68h-7.698v4.71h8.038v4.681h-13.359V7.781h13.359zm11.282 4.681v-4.68H270.9v4.68h-5.548v18.724h-5.32V12.462h-5.548zm25.326 9.334v9.39h-5.321V7.781h5.32v9.334h7.53V7.78h5.32v23.405h-5.32v-9.39h-7.53zM303.04 7.78v23.405h-5.32V7.781h5.32zm10.383 8.88v14.525h-5.321V7.781h5.32l9.284 14.525h.057V7.781h5.32v23.405h-5.32l-9.284-14.525h-.056zm40.835 1.418v5.078c-1.274 5.93-6.198 8.455-10.783 8.455-6.283 0-11.378-5.419-11.378-12.114 0-6.724 4.812-12.142 11.378-12.142 4.104 0 6.962 1.532 9 4l-3.481 3.83c-1.359-2.185-3.142-3.008-5.208-3.008-3.283 0-5.943 3.263-5.943 7.32 0 3.971 2.66 7.206 5.943 7.206 2.547 0 5.066-1.646 5.066-4.511h-5.377v-4.114h10.783zM366.31 7.356c4.245 0 7.245 2.212 7.245 2.212l-2.151 4.256s-2.32-1.617-4.726-1.617c-1.812 0-2.774.822-2.774 2.1 0 1.304 2.207 2.24 4.868 3.375 2.604 1.106 5.462 3.32 5.462 6.383 0 5.589-4.245 7.547-8.802 7.547-5.462 0-8.773-3.093-8.773-3.093l2.66-4.482s3.113 2.638 5.717 2.638c1.16 0 3.368-.113 3.368-2.298 0-1.702-2.49-2.468-5.264-3.858-2.802-1.39-4.444-3.575-4.444-6.014 0-4.37 3.85-7.15 7.614-7.15zM199.279 41.047c5.315 0 9.07 2.77 9.07 2.77l-2.692 5.328s-2.906-2.024-5.918-2.024c-2.267 0-3.472 1.03-3.472 2.628 0 1.634 2.764 2.806 6.094 4.227 3.26 1.385 6.839 4.155 6.839 7.991 0 6.997-5.315 9.448-11.02 9.448-6.838 0-10.984-3.872-10.984-3.872l3.33-5.611s3.898 3.303 7.158 3.303c1.453 0 4.217-.142 4.217-2.877 0-2.131-3.118-3.09-6.59-4.83-3.509-1.74-5.564-4.476-5.564-7.53 0-5.47 4.819-8.95 9.532-8.95zm26.003 6.393v-5.86h20.551v5.86h-6.945v23.442h-6.661V47.44h-6.945zm52.613-5.86l11.8 29.302h-7.158l-2.161-5.86H269.25l-2.162 5.86h-7.157L271.73 41.58h6.165zm.213 17.581l-3.26-8.524h-.07l-3.26 8.524h6.59zm43.649 5.683c3.401 0 5.74-1.811 5.74-1.811l2.834 5.682s-3.26 2.7-9.602 2.7c-8.256 0-15.839-6.749-15.839-15.13 0-8.418 7.548-15.238 15.84-15.238 6.342 0 9.601 2.7 9.601 2.7l-2.834 5.682s-2.339-1.81-5.74-1.81c-6.697 0-9.638 4.687-9.638 8.594 0 3.943 2.94 8.631 9.638 8.631zM376 70.882h-9.177L356.05 58.451v12.431h-6.661V41.58h6.661v11.97l10.028-11.97h8.078l-11.763 13.887L376 70.882z" fill="#333" fill-rule="nonzero"/><path d="M3.618 16.154L46.286 1.578a4.32 4.32 0 0 1 5.625 3.2l12.11 57.62a4.32 4.32 0 0 1-2.831 4.978L18.52 81.95a4.32 4.32 0 0 1-5.624-3.2L.787 21.131a4.32 4.32 0 0 1 2.83-4.977z" fill="url(#a)" transform="translate(0 -1)"/><path d="M34.305 16.154L76.973 1.578a4.32 4.32 0 0 1 5.625 3.2l12.11 57.62a4.32 4.32 0 0 1-2.83 4.978L49.207 81.95a4.32 4.32 0 0 1-5.624-3.2l-12.11-57.62a4.32 4.32 0 0 1 2.831-4.977z" fill="url(#b)" transform="translate(0 -1)"/><path d="M52.962 9.78l11.06 52.618a4.32 4.32 0 0 1-2.832 4.978l-18.657 6.373-11.06-52.618a4.32 4.32 0 0 1 2.832-4.977l18.657-6.373z" fill="url(#c)" transform="translate(0 -1)"/><path d="M64.992 16.154l42.669-14.576a4.32 4.32 0 0 1 5.625 3.2l12.11 57.62a4.32 4.32 0 0 1-2.832 4.978L79.896 81.95a4.32 4.32 0 0 1-5.625-3.2l-12.11-57.62a4.32 4.32 0 0 1 2.831-4.977z" fill="url(#d)" transform="translate(0 -1)"/><path d="M83.65 9.78l11.059 52.618a4.32 4.32 0 0 1-2.832 4.978L73.22 73.749 62.16 21.131a4.32 4.32 0 0 1 2.831-4.977L83.65 9.781z" fill="url(#e)" transform="translate(0 -1)"/><path d="M95.68 16.154l42.668-14.576a4.32 4.32 0 0 1 5.625 3.2l12.11 57.62a4.32 4.32 0 0 1-2.831 4.978L110.583 81.95a4.32 4.32 0 0 1-5.624-3.2l-12.11-57.62a4.32 4.32 0 0 1 2.83-4.977z" fill="url(#f)" transform="translate(0 -1)"/><path d="M114.337 9.78l11.059 52.618a4.32 4.32 0 0 1-2.832 4.978l-18.657 6.373-11.059-52.618a4.32 4.32 0 0 1 2.832-4.977l18.657-6.373z" fill="url(#g)" transform="translate(0 -1)"/></g></svg>
