<svg width="150" height="29" viewBox="0 0 150 29" fill="none" xmlns="http://www.w3.org/2000/svg">
<path d="M69.9411 16.5857C70.6078 16.5857 71.1928 16.7355 71.7235 17.0078C72.734 17.5327 73.2515 18.2743 73.3211 19.4814L73.3214 19.4878L73.3215 19.4943C73.3215 19.6177 73.2214 19.7178 73.0979 19.7178H71.0036C70.8806 19.7178 70.7739 19.6331 70.7459 19.5134L70.7381 19.4811C70.6023 18.9385 70.317 18.7373 69.873 18.7373C69.3968 18.7373 68.9886 19.0777 68.9886 19.5271C68.9886 20.1263 69.5329 20.3987 70.635 20.8753C72.8528 21.8285 73.4106 22.632 73.4106 23.953C73.4106 25.9004 72.0772 27.0443 69.9002 27.0443C67.7097 27.0443 66.2673 25.9004 66.2673 23.7351L66.2678 23.7202C66.2755 23.6068 66.3699 23.5172 66.4852 23.5172H68.6477C68.7447 23.5172 68.8256 23.5914 68.834 23.6881L68.8373 23.7228C68.91 24.4367 69.3015 24.8927 69.8866 24.8927C70.4172 24.8927 70.8527 24.4705 70.8527 23.9258C70.8527 23.302 70.18 22.949 69.4525 22.6503L69.3862 22.6233C69.3309 22.6009 69.2754 22.5788 69.2199 22.5568L69.1534 22.5306C69.0427 22.4869 68.9326 22.4439 68.8253 22.4006C67.179 21.7333 66.4306 20.8618 66.4306 19.5544C66.4306 17.8386 68.0906 16.5856 69.9411 16.5856L69.9411 16.5857ZM97.6082 16.5857C98.996 16.5857 100.112 16.967 101.119 17.8249C101.913 18.5065 102.443 19.2639 102.699 20.0971L102.716 20.1527L102.722 20.1769C102.727 20.2013 102.73 20.2263 102.73 20.2513C102.73 20.4393 102.582 20.5928 102.397 20.6025L102.378 20.603H100.474C100.268 20.603 100.079 20.4866 99.9871 20.3024C99.971 20.2702 99.9562 20.2421 99.9428 20.2182C99.4551 19.3496 98.6091 18.8463 97.6898 18.8463C96.0842 18.8463 94.9958 20.2218 94.9958 21.7878C94.9958 23.4221 96.1115 24.7838 97.7034 24.7838C98.6209 24.7838 99.4175 24.3214 99.9546 23.4064C99.9625 23.393 99.971 23.378 99.9802 23.3614C100.072 23.1956 100.244 23.0902 100.432 23.082L100.456 23.0815H102.422C102.455 23.0815 102.487 23.0868 102.517 23.097C102.667 23.1473 102.75 23.3054 102.708 23.4557L102.703 23.4724L102.681 23.5381C101.924 25.6971 99.9586 27.0444 97.7307 27.0444C96.3293 27.0444 95.0095 26.5541 93.9754 25.5328C92.8869 24.4706 92.4243 23.1905 92.4243 21.6653C92.4243 18.9961 94.7238 16.5858 97.6082 16.5858L97.6082 16.5857ZM80.7736 16.7763C81.0742 16.7763 81.3179 17.02 81.3179 17.3207V18.4926C81.3179 18.7933 81.0742 19.037 80.7736 19.037H79.345V26.3094C79.345 26.61 79.1013 26.8537 78.8007 26.8537H77.3179C77.0172 26.8537 76.7735 26.61 76.7735 26.3094V19.037H75.3314C75.0308 19.037 74.7871 18.7933 74.7871 18.4926V17.3207C74.7871 17.02 75.0308 16.7763 75.3314 16.7763H80.7736ZM87.4656 16.7763C87.6887 16.7763 87.8893 16.9125 87.9716 17.1198L91.5397 26.1085C91.5651 26.1724 91.5781 26.2405 91.5781 26.3093C91.5781 26.6099 91.3344 26.8537 91.0337 26.8537H89.4375C89.2037 26.8537 88.996 26.7044 88.9215 26.4828L88.5563 25.3965H85.0595L84.6593 26.4956C84.581 26.7106 84.3766 26.8537 84.1478 26.8537H82.5716C82.5021 26.8537 82.4334 26.8404 82.369 26.8146C82.0899 26.7027 81.9544 26.3858 82.0663 26.1067L85.6708 17.1181C85.7536 16.9117 85.9537 16.7763 86.1761 16.7763L87.4656 16.7763ZM106.514 16.7763C106.815 16.7763 107.059 17.02 107.059 17.3207V21.3112L107.067 21.3104C107.081 21.3081 107.093 21.3001 107.1 21.2881L109.77 17.0315C109.869 16.8727 110.043 16.7763 110.231 16.7763H111.609C111.716 16.7763 111.821 16.8079 111.91 16.867C112.161 17.0332 112.229 17.371 112.063 17.6215L109.29 21.8014L112.239 25.9963C112.303 26.088 112.338 26.1973 112.338 26.3093C112.338 26.6099 112.094 26.8537 111.793 26.8537H110.135C109.948 26.8537 109.774 26.7578 109.674 26.5997L107.086 22.4959L107.08 22.4966C107.068 22.4994 107.059 22.5102 107.059 22.5231V26.3093C107.059 26.61 106.815 26.8537 106.514 26.8537H105.032C104.731 26.8537 104.487 26.61 104.487 26.3093V17.3207C104.487 17.02 104.731 16.7763 105.032 16.7763L106.514 16.7763ZM86.8017 19.9085L85.7676 23.3539H87.8765L86.8424 19.9221L86.8016 19.9085L86.8017 19.9085ZM136.217 2.42248C138.328 2.42248 140.368 3.75022 141.105 5.56521L141.127 5.62036L141.134 5.63944C141.142 5.66516 141.146 5.69195 141.146 5.71893C141.146 5.86329 141.033 5.98134 140.891 5.98989L140.874 5.99038H138.664C138.484 5.99038 138.316 5.9015 138.214 5.75291C138.19 5.71741 138.169 5.68733 138.15 5.66266C137.67 5.03557 136.98 4.68307 136.149 4.68307C134.53 4.68307 133.401 5.9904 133.401 7.61092C133.401 9.28594 134.462 10.6341 136.163 10.6341C137.346 10.6341 138.237 10.0624 138.56 9.05027L138.571 9.01349H136.108C135.815 9.01349 135.576 8.78099 135.565 8.49003L135.564 8.46915V7.50154C135.564 7.2079 135.797 6.96857 136.088 6.9576L136.108 6.9572H141.007C141.3 6.9572 141.54 7.18971 141.55 7.48066L141.551 7.50154V7.52916C141.551 10.2392 139.564 12.8947 136.176 12.8947C133.197 12.8947 130.829 10.566 130.829 7.61088C130.829 4.56041 133.292 2.42236 136.217 2.42236L136.217 2.42248ZM146.53 2.42248C147.197 2.42248 147.782 2.57228 148.313 2.84464C149.309 3.36225 149.826 4.09056 149.907 5.26818L149.91 5.3182L149.911 5.32464L149.911 5.33108C149.911 5.4494 149.819 5.54625 149.703 5.55411L149.687 5.55463H147.593C147.476 5.55463 147.373 5.47749 147.34 5.36637L147.335 5.35026L147.327 5.31795C147.192 4.77537 146.906 4.57413 146.462 4.57413C145.986 4.57413 145.578 4.91458 145.578 5.36398C145.578 5.96317 146.122 6.23553 147.224 6.71212C149.442 7.66538 150 8.46887 150 9.78981C150 11.7372 148.667 12.8811 146.49 12.8811C144.321 12.8811 142.886 11.7599 142.857 9.63652L142.857 9.57187L142.857 9.55695C142.865 9.4485 142.951 9.36182 143.06 9.35448L143.075 9.35398H145.237C145.329 9.35398 145.406 9.42058 145.422 9.50977L145.423 9.52484L145.427 9.55958C145.499 10.2734 145.891 10.7294 146.476 10.7294C147.007 10.7294 147.442 10.3073 147.442 9.76259C147.442 9.15821 146.811 8.80812 146.11 8.51523L146.042 8.48706L145.976 8.46004C145.965 8.45556 145.954 8.45109 145.942 8.44663L145.876 8.42C145.854 8.41116 145.832 8.40235 145.809 8.39357L145.743 8.36732C145.721 8.35859 145.699 8.34989 145.676 8.3412L145.61 8.31518C145.544 8.2892 145.479 8.26331 145.415 8.23736C143.768 7.57007 143.02 6.69856 143.02 5.39113C143.02 3.67529 144.68 2.42238 146.53 2.42238L146.53 2.42248ZM122.307 2.61313C122.488 2.61313 122.657 2.70326 122.757 2.85256L122.77 2.87237L126.529 8.98635L126.43 3.16677C126.43 3.16367 126.43 3.16057 126.43 3.15747C126.43 2.86384 126.662 2.6245 126.953 2.61353L126.974 2.61314H128.339C128.632 2.61314 128.872 2.84564 128.883 3.1366L128.883 3.15748V12.1461C128.883 12.4398 128.651 12.6791 128.36 12.6901L128.339 12.6905H126.953C126.774 12.6905 126.606 12.6024 126.505 12.4559L126.492 12.4356L122.788 6.53512L122.85 12.1401C122.85 12.1421 122.85 12.1441 122.85 12.1461C122.85 12.4397 122.617 12.6791 122.326 12.6901L122.305 12.6904H120.937C120.644 12.6904 120.404 12.4579 120.393 12.167L120.393 12.1461V3.15745C120.393 2.86381 120.625 2.62448 120.916 2.61351L120.937 2.61311H122.306L122.307 2.61313ZM72.2539 2.61313C72.5476 2.61313 72.7869 2.84563 72.7979 3.13659L72.7983 3.15747V4.32943C72.7983 4.62307 72.5658 4.8624 72.2748 4.87337L72.2539 4.87377H70.8254V12.1462C70.8254 12.4398 70.5929 12.6792 70.302 12.6901L70.2811 12.6905H68.7982C68.5046 12.6905 68.2653 12.458 68.2543 12.1671L68.2539 12.1462V4.87376H66.8118C66.5181 4.87376 66.2788 4.64126 66.2678 4.3503L66.2674 4.32942V3.15746C66.2674 2.86382 66.4999 2.62449 66.7909 2.61352L66.8118 2.61312H72.2541L72.2539 2.61313ZM76.4039 2.61313C76.6975 2.61313 76.9368 2.84563 76.9478 3.13659L76.9482 3.15747V6.39898H80.2409V3.15747C80.2409 2.86383 80.4734 2.62449 80.7643 2.61352L80.7852 2.61313H82.2681C82.5617 2.61313 82.801 2.84564 82.812 3.13659L82.8124 3.15747V12.1461C82.8124 12.4398 82.5799 12.6791 82.2889 12.6901L82.2681 12.6905H80.7852C80.4916 12.6905 80.2522 12.458 80.2413 12.167L80.2409 12.1461V8.65955H76.9482V12.1461C76.9482 12.4398 76.7157 12.6791 76.4247 12.6901L76.4039 12.6905H74.921C74.6274 12.6905 74.388 12.458 74.3771 12.167L74.3767 12.1461V3.15746C74.3767 2.86383 74.6092 2.62449 74.9001 2.61352L74.921 2.61313H76.4039ZM90.2274 2.61313C90.521 2.61313 90.7603 2.84563 90.7713 3.13659L90.7717 3.15747V4.32943C90.7717 4.62307 90.5392 4.8624 90.2482 4.87337L90.2274 4.87377H87.6423V6.43987H90.1321C90.4258 6.43987 90.6651 6.67237 90.6761 6.96333L90.6765 6.9842V8.15617C90.6765 8.44981 90.444 8.68914 90.153 8.70011L90.1321 8.7005H87.6423V10.43H90.2274C90.521 10.43 90.7603 10.6625 90.7713 10.9535L90.7717 10.9744V12.1463C90.7717 12.44 90.5392 12.6793 90.2482 12.6903L90.2274 12.6907H85.7239C85.4303 12.6907 85.1909 12.4582 85.18 12.1672L85.1796 12.1463V3.15768C85.1796 2.86405 85.4121 2.62471 85.703 2.61374L85.7239 2.61335H90.2274L90.2274 2.61313ZM102.528 2.61313C102.821 2.61313 103.061 2.84563 103.072 3.13659L103.072 3.15747V4.32943C103.072 4.62307 102.839 4.8624 102.548 4.87337L102.528 4.87377H101.099V12.1462C101.099 12.4398 100.867 12.6792 100.576 12.6901L100.555 12.6905H99.0719C98.7782 12.6905 98.5389 12.458 98.5279 12.1671L98.5275 12.1462V4.87376H97.0854C96.7918 4.87376 96.5524 4.64126 96.5414 4.3503L96.5411 4.32942V3.15746C96.5411 2.86382 96.7736 2.62449 97.0645 2.61352L97.0854 2.61312H102.528L102.528 2.61313ZM106.678 2.61313C106.971 2.61313 107.21 2.84563 107.221 3.13659L107.222 3.15747V6.39898H110.515V3.15747C110.515 2.86383 110.747 2.62449 111.038 2.61352L111.059 2.61313H112.542C112.835 2.61313 113.075 2.84564 113.086 3.13659L113.086 3.15747V12.1461C113.086 12.4398 112.854 12.6791 112.563 12.6901L112.542 12.6905H111.059C110.765 12.6905 110.526 12.458 110.515 12.167L110.515 12.1461V8.65955H107.222V12.1461C107.222 12.4398 106.989 12.6791 106.698 12.6901L106.677 12.6905H105.195C104.901 12.6905 104.662 12.458 104.651 12.167L104.65 12.1461V3.15746C104.65 2.86383 104.883 2.62449 105.174 2.61352L105.195 2.61313H106.678ZM117.481 2.61313C117.775 2.61313 118.014 2.84563 118.025 3.13659L118.026 3.15747V12.1461C118.026 12.4398 117.793 12.6791 117.502 12.6901L117.481 12.6905H115.998C115.705 12.6905 115.465 12.458 115.454 12.167L115.454 12.1461V3.15746C115.454 2.86383 115.687 2.62449 115.978 2.61352L115.998 2.61313H117.481Z" fill="black"/>
<path fill-rule="evenodd" clip-rule="evenodd" d="M11.3672 11.0067C10.5985 9.43047 11.2531 7.52945 12.8293 6.76066L24.2456 1.19255C25.5707 0.546296 27.1252 0.905819 28.0437 1.97313C28.225 2.18385 28.1323 2.49715 27.8824 2.61903L22.4979 5.24525C20.0832 6.42297 19.0804 9.33513 20.2581 11.7498L26.4838 24.5144C26.7886 25.1392 26.5291 25.8927 25.9043 26.1975L23.0001 27.6139C21.4239 28.3827 19.5229 27.7282 18.7541 26.1519L11.3672 11.0067ZM33.5714 6.76266C31.9952 7.53145 31.3406 9.43247 32.1094 11.0087L39.4962 26.1539C40.265 27.7302 42.166 28.3847 43.7423 27.6159L55.1586 22.0478C56.7348 21.279 57.3894 19.378 56.6207 17.8018L49.2338 2.65654C48.465 1.08032 46.564 0.425766 44.9878 1.19455L33.5714 6.76266ZM23.2402 6.76272C21.664 7.53151 21.0094 9.43253 21.7782 11.0088L29.165 26.154C29.9338 27.7302 31.8348 28.3848 33.411 27.616L36.2542 26.2293C36.879 25.9246 37.1385 25.171 36.8337 24.5462L30.5922 11.7491C29.4145 9.33448 30.4173 6.42227 32.832 5.24455L38.2689 2.59278C38.5207 2.46996 38.6124 2.15319 38.4268 1.94331C37.5049 0.900777 35.9683 0.554839 34.6566 1.19461L23.2402 6.76272ZM2.45883 6.76384C0.882576 7.53263 0.227989 9.43365 0.996762 11.0099L8.38362 26.1551C9.15237 27.7313 11.0534 28.3859 12.6297 27.6171L15.5057 26.2144C16.1305 25.9096 16.39 25.1561 16.0852 24.5313L9.85013 11.7475C8.67243 9.33284 9.67517 6.42063 12.0899 5.2429L17.4975 2.60542C17.7485 2.48299 17.8406 2.16765 17.6568 1.95741C16.7363 0.904779 15.1923 0.553312 13.8751 1.19574L2.45883 6.76384Z" fill="#1E5DFF"/>
</svg>
