<svg width="47" height="23" viewBox="0 0 47 23" fill="none" xmlns="http://www.w3.org/2000/svg">
<path id="tts-logo-icon" fill-rule="evenodd" clip-rule="evenodd" d="M9.21803 8.29976C8.58856 7.00912 9.12455 5.45252 10.4152 4.82302L19.7631 0.263737C20.8186 -0.251035 22.0519 0.0135566 22.8106 0.832883C22.9995 1.03687 22.9065 1.35105 22.6566 1.47292L18.332 3.58217C16.3548 4.54651 15.5338 6.93105 16.4981 8.90824L21.4959 19.1552C21.8006 19.78 21.5411 20.5335 20.9163 20.8382L18.7433 21.8981C17.4526 22.5276 15.896 21.9916 15.2666 20.701L9.21803 8.29976ZM27.4 4.82472C26.1094 5.45422 25.5734 7.01082 26.2028 8.30146L32.2513 20.7027C32.8808 21.9933 34.4374 22.5293 35.7281 21.8998L45.076 17.3405C46.3666 16.711 46.9026 15.1545 46.2732 13.8638L40.2247 1.46255C39.5952 0.171905 38.0386 -0.364054 36.7479 0.265444L27.4 4.82472ZM18.9407 4.82472C17.6501 5.45422 17.1141 7.01082 17.7436 8.30146L23.792 20.7027C24.4216 21.9933 25.9782 22.5293 27.2688 21.8998L29.3919 20.8643C30.0167 20.5596 30.2761 19.806 29.9714 19.1812L24.9606 8.90767C23.9964 6.93053 24.8174 4.54595 26.7946 3.58161L31.1612 1.45192C31.413 1.3291 31.5048 1.01144 31.3116 0.808532C30.5511 0.00969992 29.3328 -0.243834 28.2887 0.265444L18.9407 4.82472ZM1.92378 4.82587C0.633118 5.45537 0.0971286 7.01196 0.726616 8.30261L6.77512 20.7038C7.40459 21.9945 8.96119 22.5305 10.2519 21.9009L12.4019 20.8523C13.0267 20.5476 13.2861 19.7941 12.9814 19.1693L7.97593 8.90655C7.01161 6.92941 7.83267 4.54484 9.80988 3.58049L14.1528 1.4623C14.4038 1.33987 14.4961 1.02365 14.3047 0.82029C13.5449 0.013099 12.3205 -0.244935 11.2717 0.266591L1.92378 4.82587Z" fill="#1E5DFF"/>
</svg>
