<?xml version="1.0" encoding="UTF-8"?>
<svg width="2160px" height="619px" viewBox="0 0 2160 619" version="1.1" xmlns="http://www.w3.org/2000/svg" xmlns:xlink="http://www.w3.org/1999/xlink">
    <!-- Generator: Sketch 63.1 (92452) - https://sketch.com -->
    <title>Group 21</title>
    <desc>Created with Sketch.</desc>
    <defs>
        <linearGradient x1="0%" y1="50%" x2="100%" y2="50%" id="linearGradient-1">
            <stop stop-color="#0037EA" offset="0%"></stop>
            <stop stop-color="#0067FF" offset="100%"></stop>
        </linearGradient>
        <rect id="path-2" x="0.5" y="0.25" width="2160" height="618"></rect>
    </defs>
    <g id="Page-1" stroke="none" stroke-width="1" fill="none" fill-rule="evenodd">
        <g id="Group-21" transform="translate(-0.500000, 0.500000)">
            <mask id="mask-3" fill="white">
                <use xlink:href="#path-2"></use>
            </mask>
            <use id="Mask" fill="url(#linearGradient-1)" xlink:href="#path-2"></use>
            <path d="M701.977486,-592.362363 C702.759093,-590.076297 703.400186,-587.744626 703.89718,-585.380387 L821.624,-25.343 L1058.65434,-106.298221 C1089.65915,-116.887694 1123.38247,-100.350947 1133.97749,-69.3623631 C1134.75909,-67.0762973 1135.40019,-64.7446259 1135.89718,-62.3803875 L1199.08,238.188 L1387.805,173.73 L1290.77565,-287.851042 C1284.61368,-317.164031 1301.29194,-346.467115 1329.65055,-356.152796 L1915.65434,-556.298221 C1946.65915,-566.887694 1980.38247,-550.350947 1990.97749,-519.362363 C1991.75909,-517.076297 1992.40019,-514.744626 1992.89718,-512.380387 L2159.22435,278.851042 C2165.38632,308.164031 2148.70806,337.467115 2120.34945,347.152796 L1625.194,516.269 L1722.22435,977.851042 C1728.38632,1007.16403 1711.70806,1036.46711 1683.34945,1046.1528 L1097.34566,1246.29822 C1066.34085,1256.88769 1032.61753,1240.35095 1022.02251,1209.36236 C1021.24091,1207.0763 1020.59981,1204.74463 1020.10282,1202.38039 L956.919,901.811 L677.345665,997.298221 C646.340855,1007.88769 612.617532,991.350947 602.022514,960.362363 C601.240907,958.076297 600.599814,955.744626 600.10282,953.380387 L482.375,393.342 L245.345665,474.298221 C214.340855,484.887694 180.617532,468.350947 170.022514,437.362363 C169.240907,435.076297 168.599814,432.744626 168.10282,430.380387 L1.77565318,-360.851042 C-4.38631953,-390.164031 12.291938,-419.467115 40.6505462,-429.152796 L626.654335,-629.298221 C657.659145,-639.887694 691.382468,-623.350947 701.977486,-592.362363 Z M1389.204,180.383 L1200.479,244.84 L1302.22435,728.851042 C1308.38632,758.164031 1291.70806,787.467115 1263.34945,797.152796 L963.354,899.613 L1026.70884,1200.99317 C1027.14928,1203.0884 1027.71743,1205.15477 1028.41011,1207.18073 C1037.79961,1234.64339 1067.68585,1249.29856 1095.16289,1239.91397 L1681.16668,1039.76855 C1706.2986,1031.18492 1721.07919,1005.21598 1715.61833,979.23826 L1618.758,518.467 L1534.34566,547.298221 C1503.34085,557.887694 1469.61753,541.350947 1459.02251,510.362363 C1458.24091,508.076297 1457.59981,505.744626 1457.10282,503.380387 L1389.204,180.383 Z M1060.83711,-99.9139728 L823.023,-18.69 L870.224347,205.851042 C876.38632,235.164031 859.708062,264.467115 831.349454,274.152796 L488.81,391.144 L606.708837,951.99317 C607.149282,954.088402 607.717431,956.154773 608.410106,958.180727 C617.799608,985.643387 647.685845,1000.29856 675.162886,990.913973 L955.52,895.159 L853.775653,411.148958 C847.61368,381.835969 864.291938,352.532885 892.650546,342.847204 L1192.645,240.386 L1129.29116,-60.9931697 C1128.85072,-63.0884019 1128.28257,-65.1547726 1127.58989,-67.1807267 C1118.20039,-94.6433871 1088.31415,-109.298561 1060.83711,-99.9139728 Z M1194.043,247.038 L894.833325,349.231453 L894.082482,349.49416 C869.40781,358.334463 854.975423,384.0438 860.38167,409.76174 L961.956,892.961 L1261.16668,790.768547 C1286.2986,782.184916 1301.07919,756.215977 1295.61833,730.23826 L1194.043,247.038 Z M1480.83711,149.086027 L1395.639,178.185 L1463.70884,501.99317 C1464.14928,504.088402 1464.71743,506.154773 1465.41011,508.180727 C1474.79961,535.643387 1504.68585,550.298561 1532.16289,540.913973 L1617.36,511.814 L1549.29116,188.00683 C1548.85072,185.911598 1548.28257,183.845227 1547.58989,181.819273 C1538.20039,154.356613 1508.31415,139.701439 1480.83711,149.086027 Z M1917.83711,-549.913973 L1331.83332,-349.768547 C1306.7014,-341.184916 1291.92081,-315.215977 1297.38167,-289.23826 L1394.241,171.532 L1478.65434,142.701779 C1509.65915,132.112306 1543.38247,148.649053 1553.97749,179.637637 C1554.75909,181.923703 1555.40019,184.255374 1555.89718,186.619613 L1623.795,509.616 L2118.16668,340.768547 C2143.2986,332.184916 2158.07919,306.215977 2152.61833,280.23826 L1986.29116,-510.99317 C1985.85072,-513.088402 1985.28257,-515.154773 1984.58989,-517.180727 C1975.20039,-544.643387 1945.31415,-559.298561 1917.83711,-549.913973 Z M628.837114,-622.913973 L42.833325,-422.768547 C17.7013977,-414.184916 2.92081488,-388.215977 8.38166998,-362.23826 L174.708837,428.99317 C175.149282,431.088402 175.717431,433.154773 176.410106,435.180727 C185.799608,462.643387 215.685845,477.298561 243.162886,467.913973 L480.976,386.689 L433.775653,162.148958 C427.61368,132.835969 444.291938,103.532885 472.650546,93.8472044 L815.189,-23.145 L697.291163,-583.99317 C696.850718,-586.088402 696.282569,-588.154773 695.589894,-590.180727 C686.200392,-617.643387 656.314155,-632.298561 628.837114,-622.913973 Z M816.587,-16.492 L474.833325,100.231453 C449.701398,108.815084 434.920815,134.784023 440.38167,160.76174 L487.412,384.491 L829.166675,267.768547 C854.298602,259.184916 869.079185,233.215977 863.61833,207.23826 L816.587,-16.492 Z" id="Combined-Shape" fill="#FFFFFF" fill-rule="nonzero" opacity="0.0502697173" mask="url(#mask-3)"></path>
        </g>
    </g>
</svg>