<?xml version="1.0" encoding="UTF-8"?>
<svg width="264px" height="58px" viewBox="0 0 264 58" version="1.1" xmlns="http://www.w3.org/2000/svg" xmlns:xlink="http://www.w3.org/1999/xlink">
  <!-- Generator: Sketch 57.1 (83088) - https://sketch.com -->
  <title>Group 3 Copy</title>
  <desc>Created with Sketch.</desc>
  <defs>
    <linearGradient x1="19.9019025%" y1="0%" x2="80.0980975%" y2="100%" id="linearGradient-1">
      <stop stop-color="#2380FF" offset="0%"></stop>
      <stop stop-color="#006CFF" offset="100%"></stop>
    </linearGradient>
    <linearGradient x1="19.9019025%" y1="0%" x2="80.0980975%" y2="100%" id="linearGradient-2">
      <stop stop-color="#579BFF" offset="0%"></stop>
      <stop stop-color="#2B81FF" offset="100%"></stop>
    </linearGradient>
    <linearGradient x1="36.9069765%" y1="0%" x2="63.0930235%" y2="100%" id="linearGradient-3">
      <stop stop-color="#579BFF" offset="0%"></stop>
      <stop stop-color="#006CFF" offset="100%"></stop>
    </linearGradient>
    <linearGradient x1="19.9019025%" y1="0%" x2="80.0980975%" y2="100%" id="linearGradient-4">
      <stop stop-color="#88B8FF" offset="0%"></stop>
      <stop stop-color="#5D9FFF" offset="100%"></stop>
    </linearGradient>
    <linearGradient x1="36.9069765%" y1="0%" x2="63.0930235%" y2="100%" id="linearGradient-5">
      <stop stop-color="#88B8FF" offset="0%"></stop>
      <stop stop-color="#2B81FF" offset="100%"></stop>
    </linearGradient>
    <linearGradient x1="19.9019025%" y1="0%" x2="80.0980975%" y2="100%" id="linearGradient-6">
      <stop stop-color="#BDD7FF" offset="0%"></stop>
      <stop stop-color="#6DA6FF" offset="100%"></stop>
    </linearGradient>
    <linearGradient x1="36.9069765%" y1="0%" x2="63.0930235%" y2="100%" id="linearGradient-7">
      <stop stop-color="#BDD7FF" offset="0%"></stop>
      <stop stop-color="#5D9FFF" offset="100%"></stop>
    </linearGradient>
  </defs>
  <g id="Page-1" stroke="none" stroke-width="1" fill="none" fill-rule="evenodd">
    <g id="schema_" transform="translate(-1060.000000, -400.000000)">
      <g id="Group-3-Copy" transform="translate(1060.000000, 400.000000)">
        <path
          d="M130.625185,9.42345551 L130.625185,6.14676944 L142.115869,6.14676944 L142.115869,9.42345551 L138.23281,9.42345551 L138.23281,22.5301998 L134.508244,22.5301998 L134.508244,9.42345551 L130.625185,9.42345551 Z M148.353003,15.9569689 L148.353003,22.5301998 L144.628436,22.5301998 L144.628436,6.14676944 L148.353003,6.14676944 L148.353003,12.6802829 L153.622868,12.6802829 L153.622868,6.14676944 L157.347434,6.14676944 L157.347434,22.5301998 L153.622868,22.5301998 L153.622868,15.9569689 L148.353003,15.9569689 Z M170.24124,6.14676944 L170.24124,9.42345551 L164.614767,9.42345551 L164.614767,12.6802829 L170.003501,12.6802829 L170.003501,15.9569689 L164.614767,15.9569689 L164.614767,19.2535137 L170.24124,19.2535137 L170.24124,22.5301998 L160.890201,22.5301998 L160.890201,6.14676944 L170.24124,6.14676944 Z M178.139045,9.42345551 L178.139045,6.14676944 L189.629729,6.14676944 L189.629729,9.42345551 L185.74667,9.42345551 L185.74667,22.5301998 L182.022104,22.5301998 L182.022104,9.42345551 L178.139045,9.42345551 Z M195.866863,15.9569689 L195.866863,22.5301998 L192.142296,22.5301998 L192.142296,6.14676944 L195.866863,6.14676944 L195.866863,12.6802829 L201.136728,12.6802829 L201.136728,6.14676944 L204.861294,6.14676944 L204.861294,22.5301998 L201.136728,22.5301998 L201.136728,15.9569689 L195.866863,15.9569689 Z M212.128627,6.14676944 L212.128627,22.5301998 L208.404061,22.5301998 L208.404061,6.14676944 L212.128627,6.14676944 Z M219.39596,12.3625436 L219.39596,22.5301998 L215.671394,22.5301998 L215.671394,6.14676944 L219.39596,6.14676944 L225.89414,16.3144256 L225.933763,16.3144256 L225.933763,6.14676944 L229.658329,6.14676944 L229.658329,22.5301998 L225.933763,22.5301998 L219.435583,12.3625436 L219.39596,12.3625436 Z M247.980492,13.3554788 L247.980492,16.9101867 C247.088974,21.0606557 243.641769,22.8280803 240.432302,22.8280803 C236.034144,22.8280803 232.46807,19.035068 232.46807,14.348414 C232.46807,9.64190125 235.836029,5.84888889 240.432302,5.84888889 C243.304973,5.84888889 245.305937,6.92125887 246.732366,8.64896607 L244.295549,11.329891 C243.344596,9.80077087 242.09647,9.22486847 240.650229,9.22486847 C238.352092,9.22486847 236.489809,11.5086194 236.489809,14.348414 C236.489809,17.1286324 238.352092,19.3925246 240.650229,19.3925246 C242.433266,19.3925246 244.196491,18.2407198 244.196491,16.2349908 L240.432302,16.2349908 L240.432302,13.3554788 L247.980492,13.3554788 Z M256.416705,5.84888889 C259.388434,5.84888889 261.488455,7.39786776 261.488455,7.39786776 L259.98278,10.3766733 C259.98278,10.3766733 258.358235,9.24472718 256.674255,9.24472718 C255.406318,9.24472718 254.732726,9.82062958 254.732726,10.7142712 C254.732726,11.6277716 256.278025,12.2831088 258.140308,13.0774569 C259.962968,13.8519464 261.963932,15.4009252 261.963932,17.5456652 C261.963932,21.4578298 258.992203,22.8280803 255.802548,22.8280803 C251.978924,22.8280803 249.660976,20.6634817 249.660976,20.6634817 L251.523259,17.5258065 C251.523259,17.5258065 253.702527,19.3726659 255.525187,19.3726659 C256.337459,19.3726659 257.882758,19.2932311 257.882758,17.764111 C257.882758,16.5725887 256.139344,16.0364038 254.197815,15.0633273 C252.236474,14.0902508 251.087406,12.5611307 251.087406,10.8532822 C251.087406,7.79504183 253.781773,5.84888889 256.416705,5.84888889 Z M139.495057,29.4331344 C143.215536,29.4331344 145.844675,31.372391 145.844675,31.372391 L143.959632,35.1017306 C143.959632,35.1017306 141.92577,33.6845816 139.817498,33.6845816 C138.230094,33.6845816 137.386785,34.4055872 137.386785,35.5243891 C137.386785,36.6680533 139.321434,37.488508 141.652935,38.4829986 C143.934829,39.4526269 146.439952,41.3918835 146.439952,44.0770081 C146.439952,48.9748741 142.719472,50.6903704 138.726158,50.6903704 C133.939141,50.6903704 131.037167,47.9803836 131.037167,47.9803836 L133.368667,44.0521458 C133.368667,44.0521458 136.097019,46.3643364 138.378913,46.3643364 C139.395844,46.3643364 141.330493,46.2648873 141.330493,44.350493 C141.330493,42.8587571 139.147812,42.187476 136.717099,40.969225 C134.261582,39.7509741 132.822997,37.8365797 132.822997,35.698425 C132.822997,31.8696363 136.196231,29.4331344 139.495057,29.4331344 Z M157.697253,33.9083419 L157.697253,29.8060683 L172.083107,29.8060683 L172.083107,33.9083419 L167.22168,33.9083419 L167.22168,50.3174364 L162.558679,50.3174364 L162.558679,33.9083419 L157.697253,33.9083419 Z M194.526649,29.8060683 L202.786114,50.3174364 L197.775868,50.3174364 L196.262873,46.2151628 L188.474669,46.2151628 L186.961674,50.3174364 L181.951428,50.3174364 L190.210893,29.8060683 L194.526649,29.8060683 Z M194.675468,42.1128892 L192.393574,36.1459457 L192.343968,36.1459457 L190.062074,42.1128892 L194.675468,42.1128892 Z M225.229656,46.0908515 C227.610763,46.0908515 229.247774,44.822876 229.247774,44.822876 L231.23203,48.8008383 C231.23203,48.8008383 228.950136,50.6903704 224.510364,50.6903704 C218.731219,50.6903704 213.423335,45.9665401 213.423335,40.0990458 C213.423335,34.2066891 218.706415,29.4331344 224.510364,29.4331344 C228.950136,29.4331344 231.23203,31.3226664 231.23203,31.3226664 L229.247774,35.3006287 C229.247774,35.3006287 227.610763,34.0326533 225.229656,34.0326533 C220.541852,34.0326533 218.483187,37.3144722 218.483187,40.0493212 C218.483187,42.8090326 220.541852,46.0908515 225.229656,46.0908515 Z M263.2,50.3174364 L256.775972,50.3174364 L249.2358,41.6156439 L249.2358,50.3174364 L244.572799,50.3174364 L244.572799,29.8060683 L249.2358,29.8060683 L249.2358,38.1846514 L256.255105,29.8060683 L261.910234,29.8060683 L253.675572,39.5272137 L263.2,50.3174364 Z"
          id="THETHINGSSTACK"
          fill="#333333"
          fill-rule="nonzero"></path>
        <g id="Group-5-Copy-7">
          <g id="Group">
            <path
              d="M2.53245211,11.3079142 L32.400308,1.1048779 C33.9809303,0.564927946 35.6999939,1.40855962 36.2399438,2.98918199 C36.2797205,3.10562227 36.312354,3.22438153 36.3376624,3.34479754 L44.8148446,43.6788632 C45.129113,45.1741387 44.2787288,46.6689531 42.832822,47.1628835 L12.9649661,57.3659198 C11.3843437,57.9058698 9.66528021,57.0622381 9.12533026,55.4816157 C9.08555356,55.3651754 9.05292006,55.2464162 9.02761172,55.1260002 L0.55042949,14.7919345 C0.236161064,13.296659 1.08654532,11.8018446 2.53245211,11.3079142 Z"
              id="Rectangle-Copy-102"
              fill="url(#linearGradient-1)"></path>
            <path
              d="M24.013591,11.3079142 L53.8814468,1.1048779 C55.4620692,0.564927946 57.1811327,1.40855962 57.7210827,2.98918199 C57.7608594,3.10562227 57.7934929,3.22438153 57.8188012,3.34479754 L66.2959835,43.6788632 C66.6102519,45.1741387 65.7598676,46.6689531 64.3139608,47.1628835 L34.446105,57.3659198 C32.8654826,57.9058698 31.1464191,57.0622381 30.6064691,55.4816157 C30.5666924,55.3651754 30.5340589,55.2464162 30.5087506,55.1260002 L22.0315684,14.7919345 C21.7172999,13.296659 22.5676842,11.8018446 24.013591,11.3079142 Z"
              id="Rectangle-Copy-103"
              fill="url(#linearGradient-2)"></path>
            <path
              d="M37.0734952,6.84629116 L44.8148446,43.6788632 C45.129113,45.1741387 44.2787288,46.6689531 42.832822,47.1628835 L29.7724952,51.6232912 L22.0315684,14.7919345 C21.7172999,13.296659 22.5676842,11.8018446 24.013591,11.3079142 L37.0734952,6.84629116 Z"
              id="Combined-Shape"
              fill="url(#linearGradient-3)"></path>
            <path
              d="M45.4947298,11.3079142 L75.3625857,1.1048779 C76.9432081,0.564927946 78.6622716,1.40855962 79.2022216,2.98918199 C79.2419982,3.10562227 79.2746317,3.22438153 79.2999401,3.34479754 L87.7771223,43.6788632 C88.0913907,45.1741387 87.2410065,46.6689531 85.7950997,47.1628835 L55.9272438,57.3659198 C54.3466215,57.9058698 52.6275579,57.0622381 52.087608,55.4816157 C52.0478313,55.3651754 52.0151978,55.2464162 51.9898894,55.1260002 L43.5127072,14.7919345 C43.1984388,13.296659 44.048823,11.8018446 45.4947298,11.3079142 Z"
              id="Rectangle-Copy-104"
              fill="url(#linearGradient-4)"></path>
            <path
              d="M58.554634,6.84629116 L66.2959835,43.6788632 C66.6102519,45.1741387 65.7598676,46.6689531 64.3139608,47.1628835 L51.253634,51.6232912 L43.5127072,14.7919345 C43.1984388,13.296659 44.048823,11.8018446 45.4947298,11.3079142 L58.554634,6.84629116 Z"
              id="Combined-Shape"
              fill="url(#linearGradient-5)"></path>
            <path
              d="M66.9758687,11.3079142 L96.8437246,1.1048779 C98.4243469,0.564927946 100.14341,1.40855962 100.68336,2.98918199 C100.723137,3.10562227 100.755771,3.22438153 100.781079,3.34479754 L109.258261,43.6788632 C109.57253,45.1741387 108.722145,46.6689531 107.276239,47.1628835 L77.4083827,57.3659198 C75.8277603,57.9058698 74.1086968,57.0622381 73.5687469,55.4816157 C73.5289702,55.3651754 73.4963367,55.2464162 73.4710283,55.1260002 L64.9938461,14.7919345 C64.6795777,13.296659 65.5299619,11.8018446 66.9758687,11.3079142 Z"
              id="Rectangle-Copy-111"
              fill="url(#linearGradient-6)"></path>
            <path
              d="M80.0357729,6.84629116 L87.7771223,43.6788632 C88.0913907,45.1741387 87.2410065,46.6689531 85.7950997,47.1628835 L72.7347729,51.6232912 L64.9938461,14.7919345 C64.6795777,13.296659 65.5299619,11.8018446 66.9758687,11.3079142 L80.0357729,6.84629116 Z"
              id="Combined-Shape"
              fill="url(#linearGradient-7)"></path>
          </g>
        </g>
      </g>
    </g>
  </g>
</svg>
