<?xml version="1.0" encoding="UTF-8" standalone="no"?>
<!DOCTYPE svg PUBLIC "-//W3C//DTD SVG 1.1//EN" "http://www.w3.org/Graphics/SVG/1.1/DTD/svg11.dtd">
<svg width="100%" height="100%" viewBox="0 0 311 240" version="1.1" xmlns="http://www.w3.org/2000/svg" xmlns:xlink="http://www.w3.org/1999/xlink" xml:space="preserve" xmlns:serif="http://www.serif.com/" style="fill-rule:evenodd;clip-rule:evenodd;stroke-linejoin:round;stroke-miterlimit:2;">
    <g transform="matrix(1,0,0,1,0,213.636)">
        <path d="M9.934,25.032L4.534,25.032L4.534,1.332L9.934,1.332L19.434,16.132L19.434,1.332L24.834,1.332L24.834,25.032L19.434,25.032L9.934,10.232L9.934,25.032Z" style="fill:rgb(51,51,51);fill-rule:nonzero;"/>
    </g>
    <g transform="matrix(1,0,0,1,0,213.436)">
        <path d="M66.434,6.132L58.234,6.132L58.234,10.732L66.034,10.732L66.034,15.532L58.234,15.532L58.234,20.332L66.434,20.332L66.434,25.132L52.834,25.132L52.834,1.432L66.434,1.432L66.434,6.132Z" style="fill:rgb(51,51,51);fill-rule:nonzero;"/>
    </g>
    <g transform="matrix(1,0,0,1,0,213.436)">
        <path d="M92.434,1.432L109.134,1.432L109.134,6.232L103.534,6.232L103.534,25.132L98.134,25.132L98.134,6.232L92.534,6.232L92.534,1.432L92.434,1.432Z" style="fill:rgb(51,51,51);fill-rule:nonzero;"/>
    </g>
    <g transform="matrix(1,0,0,1,0,213.636)">
        <path d="M150.134,11.732L146.334,25.032L140.334,25.032L133.634,1.332L139.534,1.332L143.534,17.732L143.634,17.732L147.934,1.332L151.934,1.332L156.234,17.732L156.634,17.732L160.634,1.332L166.634,1.332L159.934,25.032L153.934,25.032L150.134,11.732Z" style="fill:rgb(51,51,51);fill-rule:nonzero;"/>
    </g>
    <g transform="matrix(1,0,0,1,0,213.436)">
        <path d="M202.434,1.032C209.034,1.032 214.434,6.432 214.434,13.232C214.434,20.232 209.334,25.532 202.434,25.532C195.334,25.532 190.434,20.132 190.434,13.232C190.434,6.332 195.834,1.032 202.434,1.032ZM202.434,20.332C206.734,20.332 208.534,16.832 208.534,13.232C208.534,9.832 206.534,6.132 202.434,6.132C198.234,6.132 196.334,9.632 196.334,13.232C196.334,16.832 198.034,20.332 202.434,20.332Z" style="fill:rgb(51,51,51);fill-rule:nonzero;"/>
    </g>
    <g transform="matrix(1,0,0,1,0,213.536)">
        <path d="M249.734,1.332C254.134,1.332 257.534,3.732 257.534,8.432C257.534,11.932 255.534,14.432 252.634,15.232L260.834,25.132L254.034,25.132L246.834,15.732L246.834,25.132L241.434,25.132L241.434,1.432L249.734,1.332ZM247.234,11.932C249.334,11.932 251.634,11.832 251.634,8.732C251.634,5.632 249.234,5.532 247.234,5.532L246.634,5.532L246.634,11.732L247.234,11.732L247.234,11.932Z" style="fill:rgb(51,51,51);fill-rule:nonzero;"/>
    </g>
    <g transform="matrix(1,0,0,1,0,213.636)">
        <path d="M300.434,25.032L291.634,14.932L291.634,25.032L286.234,25.032L286.234,1.332L291.634,1.332L291.634,11.132L299.834,1.332L306.434,1.332L296.734,12.532L307.734,25.032L300.434,25.032Z" style="fill:rgb(51,51,51);fill-rule:nonzero;"/>
    </g>
    <g transform="matrix(1,0,0,1,0,-95.1642)">
        <path d="M281.034,206.032C281.734,214.632 279.034,222.732 273.534,228.932C267.634,235.532 258.834,239.132 248.934,239.132L34.634,239.132L34.334,239.132L34.234,239.132L34.034,239.132C25.334,239.032 17.134,235.632 11.034,229.532C4.534,223.132 1.034,214.532 0.934,205.432C0.934,188.532 12.434,174.832 28.134,172.232C30.234,158.132 42.534,146.632 57.734,144.232C58.634,138.632 61.334,133.232 65.634,128.832C71.834,122.432 80.234,118.832 88.834,118.832C99.934,118.832 109.634,124.832 114.834,133.832C120.934,112.032 140.934,96.032 164.634,96.032C190.534,96.032 212.134,115.232 215.734,140.232C228.734,130.532 246.034,131.432 259.034,143.632L257.634,142.432C268.034,150.832 271.634,162.232 271.134,171.832C270.834,177.532 268.934,182.532 265.534,186.632C268.834,187.732 271.534,189.632 274.134,192.232C277.734,195.832 280.234,200.332 280.934,205.332L280.934,205.932C281.034,205.732 281.034,205.832 281.034,206.032ZM297.134,125.332C289.534,115.032 278.234,107.432 265.834,104.232C263.034,103.632 260.134,105.532 259.534,108.232C258.434,111.032 260.234,114.632 263.234,115.232C275.734,118.532 286.534,127.332 292.234,138.932C296.934,148.432 298.134,159.632 295.534,169.932C294.834,172.832 296.934,175.932 299.934,176.332C302.634,177.132 305.634,175.532 306.534,172.932C310.634,156.832 307.134,138.732 297.134,125.332ZM261.434,123.732C257.134,122.932 253.834,128.232 255.734,131.932C256.434,133.532 258.034,134.632 259.734,135.032C266.234,136.732 271.934,141.232 274.934,147.232C277.634,152.532 278.234,158.732 276.734,164.432C275.934,167.332 278.034,170.532 281.034,171.032C283.734,171.832 286.934,170.232 287.734,167.432C290.534,157.232 288.434,145.832 282.234,137.332C277.234,130.532 269.734,125.332 261.434,123.732Z" style="fill:rgb(13,131,208);fill-rule:nonzero;"/>
    </g>
    <g transform="matrix(1,0,0,1,0,122.936)">
        <path d="M1.034,38.832L28.734,38.832L28.734,46.732L19.334,46.732L19.334,78.232L10.334,78.232L10.334,46.732L0.934,46.732L1.034,38.832Z" style="fill:rgb(54,54,54);fill-rule:nonzero;"/>
    </g>
    <g transform="matrix(1,0,0,1,0,123.036)">
        <path d="M42.934,78.232L33.934,78.232L33.934,38.732L42.934,38.732L42.934,54.532L55.634,54.532L55.634,38.732L64.634,38.732L64.634,78.232L55.634,78.232L55.634,62.332L42.934,62.332L42.934,78.232Z" style="fill:rgb(54,54,54);fill-rule:nonzero;"/>
    </g>
    <g transform="matrix(1,0,0,1,0,123.036)">
        <path d="M94.834,46.732L81.334,46.732L81.334,54.532L94.334,54.532L94.334,62.432L81.334,62.432L81.334,70.332L94.934,70.332L94.934,78.232L72.234,78.232L72.234,38.732L94.834,38.732L94.834,46.732Z" style="fill:rgb(54,54,54);fill-rule:nonzero;"/>
    </g>
    <g transform="matrix(1,0,0,1,0,122.936)">
        <path d="M112.134,38.832L139.834,38.832L139.834,46.732L130.434,46.732L130.434,78.232L121.434,78.232L121.434,46.732L112.034,46.732L112.134,38.832Z" style="fill:rgb(54,54,54);fill-rule:nonzero;"/>
    </g>
    <g transform="matrix(1,0,0,1,0,123.036)">
        <path d="M154.034,78.232L145.034,78.232L145.034,38.732L154.034,38.732L154.034,54.532L166.734,54.532L166.734,38.732L175.734,38.732L175.734,78.232L166.734,78.232L166.734,62.332L154.034,62.332L154.034,78.232Z" style="fill:rgb(54,54,54);fill-rule:nonzero;"/>
    </g>
    <g transform="matrix(-1,0,0,1,375.868,123.036)">
        <rect x="183.434" y="38.732" width="9" height="39.5" style="fill:rgb(54,54,54);"/>
    </g>
    <g transform="matrix(1,0,0,1,0,123.036)">
        <path d="M209.034,78.232L200.034,78.232L200.034,38.732L209.034,38.732L224.634,63.132L224.734,63.132L224.734,38.732L233.734,38.732L233.734,78.232L224.734,78.232L209.134,53.832L209.034,53.832L209.034,78.232Z" style="fill:rgb(54,54,54);fill-rule:nonzero;"/>
    </g>
    <g transform="matrix(1,0,0,1,0,123.136)">
        <path d="M277.034,64.532C274.834,74.532 266.534,78.832 258.834,78.832C248.234,78.832 239.634,69.632 239.634,58.432C239.634,47.032 247.834,38.032 258.834,38.032C265.834,38.032 270.534,40.632 274.034,44.732L268.134,51.232C265.834,47.532 262.834,46.232 259.334,46.232C253.834,46.232 249.334,51.732 249.334,58.532C249.334,65.232 253.834,70.632 259.334,70.632C263.634,70.632 267.934,67.832 267.934,63.032L258.934,63.032L258.934,56.032L277.134,56.032L277.134,64.532L277.034,64.532Z" style="fill:rgb(54,54,54);fill-rule:nonzero;"/>
    </g>
    <g transform="matrix(1,0,0,1,0,123.036)">
        <path d="M308.834,41.832L305.134,49.032C305.134,49.032 301.234,46.332 297.234,46.332C294.134,46.332 292.634,47.632 292.634,49.832C292.634,52.032 296.434,53.632 300.834,55.532C305.234,57.332 310.134,61.132 310.134,66.332C310.134,75.732 302.934,79.032 295.234,79.032C285.934,79.032 280.434,73.732 280.434,73.732L284.934,66.132C284.934,66.132 290.234,70.532 294.634,70.532C296.634,70.532 300.334,70.332 300.334,66.632C300.334,63.832 296.134,62.432 291.434,60.132C286.634,57.832 283.934,54.132 283.934,50.032C283.934,42.732 290.434,37.932 296.734,37.932C303.734,38.032 308.834,41.832 308.834,41.832Z" style="fill:rgb(54,54,54);fill-rule:nonzero;"/>
    </g>
</svg>
