<svg viewBox="0 0 800 117" xmlns="http://www.w3.org/2000/svg"><g fill="none" fill-rule="evenodd"><path d="M288.75 104.53c10.521 0 18.437-7.641 18.437-20.611s-7.915-20.611-18.437-20.611c-10.541 0-18.437 7.641-18.437 20.611 0 12.951 7.896 20.611 18.437 20.611zm0-6.524c-6.524 0-11.129-4.957-11.129-14.087 0-9.13 4.604-14.087 11.129-14.087 6.544 0 11.129 4.957 11.129 14.087 0 9.13-4.585 14.087-11.129 14.087zm32.112 17.26V99.24h.294c1.117 2.194 3.448 5.27 8.62 5.27 7.093 0 12.403-5.623 12.403-15.537 0-10.03-5.467-15.478-12.422-15.478-5.31 0-7.524 3.194-8.602 5.368h-.41l-.001-4.976h-6.975v41.379h7.093zm6.936-16.574c-4.526 0-7.073-3.919-7.073-9.757 0-5.839 2.508-9.62 7.073-9.62 4.722 0 7.15 4.016 7.15 9.62 0 5.642-2.468 9.757-7.15 9.757zm33.758 5.877c7.014 0 11.834-3.428 13.088-8.66l-6.622-.744c-.96 2.547-3.312 3.88-6.368 3.88-4.585 0-7.622-3.018-7.68-8.17h20.964v-2.176c0-10.56-6.348-15.204-13.754-15.204-8.62 0-14.244 6.329-14.244 15.615 0 9.444 5.544 15.458 14.616 15.458zm6.583-18.476h-14.146c.215-3.84 3.056-7.073 7.288-7.073 4.075 0 6.818 2.979 6.858 7.073zm19.886 17.888V86.348c0-4.35 2.625-6.857 6.367-6.857 3.664 0 5.858 2.41 5.858 6.426v18.064h7.093v-19.16c.02-7.21-4.095-11.325-10.306-11.325-4.506 0-7.602 2.156-8.973 5.506h-.353v-5.114h-6.78v30.094h7.093zm54.683.608c9.62 0 15.204-4.8 15.223-11.873-.02-6.956-5.76-10.13-11.795-11.56l-3.762-.94c-3.292-.784-6.857-2.175-6.818-5.526.02-3.017 2.723-5.231 7.269-5.231 4.33 0 7.19 2.018 7.562 5.427h6.995c-.137-6.779-5.917-11.579-14.46-11.579-8.424 0-14.752 4.742-14.733 11.834 0 5.76 4.095 9.071 10.697 10.776l4.565 1.176c4.33 1.097 7.19 2.449 7.21 5.564-.02 3.429-3.272 5.72-8.013 5.72-4.546 0-8.073-2.037-8.366-6.25h-7.152c.294 7.975 6.23 12.462 15.576 12.462zm34.502-.02c8.816 0 14.42-6.21 14.42-15.517 0-9.326-5.604-15.556-14.42-15.556-8.817 0-14.42 6.23-14.42 15.556 0 9.307 5.603 15.517 14.42 15.517zm.039-5.682c-4.879 0-7.269-4.35-7.269-9.855 0-5.505 2.39-9.913 7.269-9.913 4.8 0 7.19 4.408 7.19 9.913 0 5.506-2.39 9.855-7.19 9.855zm30.408 5.486c4.506 0 7.68-2.37 9.052-5.74h.313v5.348h6.877V73.887h-7.092v17.437c0 4.585-3.272 6.858-6.407 6.858-3.41 0-5.682-2.41-5.682-6.23V73.886h-7.092v19.161c0 7.23 4.114 11.324 10.03 11.324zm30.623-.392V86.29c0-3.82 2.88-6.524 6.779-6.524 1.195 0 2.684.216 3.291.412v-6.525c-.646-.117-1.763-.196-2.547-.196-3.448 0-6.328 1.96-7.425 5.447h-.313v-5.016h-6.877v30.094h7.092zm27.919.588c7.563 0 12.382-4.487 12.892-10.874h-6.779c-.607 3.233-2.939 5.094-6.054 5.094-4.428 0-7.289-3.703-7.289-9.855 0-6.074 2.92-9.718 7.289-9.718 3.409 0 5.505 2.195 6.054 5.094h6.779c-.49-6.524-5.584-10.815-12.931-10.815-8.817 0-14.381 6.368-14.381 15.556 0 9.11 5.427 15.517 14.42 15.517zm32.053 0c7.014 0 11.834-3.429 13.088-8.66l-6.622-.744c-.96 2.547-3.311 3.88-6.368 3.88-4.584 0-7.621-3.018-7.68-8.171h20.964v-2.175c0-10.56-6.348-15.204-13.754-15.204-8.62 0-14.244 6.329-14.244 15.615 0 9.444 5.545 15.458 14.616 15.458zm6.583-18.476H590.69c.216-3.84 3.056-7.073 7.288-7.073 4.076 0 6.819 2.978 6.858 7.073z" fill="#00C1FF" fill-rule="nonzero"/><path d="M544.35 6.366c8.184 0 16.097 5.116 19.012 12.128l.133.33.04.125a1.057 1.057 0 01-.91 1.31l-.115.007h-8.621a2.122 2.122 0 01-1.752-.925 8.14 8.14 0 00-.252-.352c-1.871-2.443-4.561-3.816-7.8-3.816-6.313 0-10.716 5.092-10.716 11.406 0 6.525 4.137 11.777 10.769 11.777 4.562 0 8.01-2.179 9.303-6.041l.086-.272h-9.602a2.122 2.122 0 01-2.116-1.97l-.006-.152v-3.767c0-1.121.87-2.039 1.97-2.117l.152-.005h19.098c1.121 0 2.04.87 2.117 1.97l.005.152v.106c0 10.557-7.745 20.902-20.955 20.902-11.618 0-20.849-9.071-20.849-20.584 0-11.883 9.603-20.212 21.008-20.212zm89.602 0c2.6 0 4.88.584 6.95 1.645 3.94 2.044 5.957 4.933 6.229 9.636l.001.025v.025c0 .48-.39.87-.87.87h-8.168a1.03 1.03 0 01-1.004-.796l-.057-.23c-.54-2.035-1.644-2.793-3.346-2.793-1.857 0-3.448 1.326-3.448 3.077 0 2.334 2.122 3.395 6.419 5.252 8.647 3.713 10.822 6.843 10.822 11.989 0 7.586-5.2 12.042-13.687 12.042-8.541 0-14.164-4.456-14.164-12.891l.006-.107a.849.849 0 01.842-.742h8.433c.378 0 .693.29.726.666l.026.257c.315 2.71 1.83 4.435 4.078 4.435a3.747 3.747 0 003.767-3.766c0-3.13-4.35-4.51-7.905-5.942-6.419-2.6-9.337-5.995-9.337-11.088 0-6.684 6.472-11.565 13.687-11.565zm106.01 0c5.411 0 9.761 1.485 13.687 4.828 3.04 2.605 5.084 5.495 6.104 8.67l.123.398.03.126a1.37 1.37 0 01-1.213 1.622l-.132.006h-7.426a2.122 2.122 0 01-1.898-1.171 7.944 7.944 0 00-.172-.328c-1.902-3.384-5.2-5.345-8.785-5.345-6.26 0-10.504 5.359-10.504 11.46 0 6.365 4.35 11.67 10.557 11.67 3.578 0 6.684-1.801 8.778-5.365l.1-.176a2.122 2.122 0 011.69-1.084l.164-.006h7.67a1.155 1.155 0 011.127 1.401l-.034.122-.132.38c-2.981 8.338-10.613 13.535-19.256 13.535-5.464 0-10.61-1.91-14.642-5.889-4.244-4.138-6.048-9.124-6.048-15.066 0-10.398 8.966-19.788 20.212-19.788zm-155.4 0c2.6 0 4.88.584 6.95 1.645 3.836 1.99 5.85 4.782 6.204 9.268l.025.368.001.025v.025c0 .444-.332.81-.761.864l-.11.007h-8.167c-.439 0-.825-.277-.97-.683l-.034-.114-.058-.23c-.54-2.035-1.643-2.793-3.345-2.793-1.857 0-3.449 1.326-3.449 3.077 0 2.334 2.122 3.395 6.42 5.252 8.647 3.713 10.822 6.843 10.822 11.989 0 7.586-5.2 12.042-13.687 12.042-8.423 0-14.008-4.333-14.161-12.542l-.004-.35.007-.106a.85.85 0 01.736-.735l.106-.007h8.433c.343 0 .635.239.71.565l.016.1.026.258c.315 2.71 1.83 4.435 4.078 4.435a3.747 3.747 0 003.766-3.767c0-2.504-2.784-3.887-5.717-5.074l-.49-.196c-.572-.227-1.144-.448-1.697-.671-6.42-2.6-9.337-5.995-9.337-11.088 0-6.685 6.472-11.565 13.687-11.565zm90.133.743c1.172 0 2.122.95 2.122 2.122v4.562c0 1.172-.95 2.122-2.122 2.122h-5.57v28.329c0 1.172-.95 2.122-2.122 2.122h-5.783a2.122 2.122 0 01-2.122-2.122V15.915h-5.623a2.122 2.122 0 01-2.122-2.122V9.231c0-1.172.95-2.122 2.122-2.122zm26.093 0c.87 0 1.651.53 1.972 1.338l13.911 35.013a2.122 2.122 0 01-1.972 2.906h-6.224c-.911 0-1.72-.582-2.011-1.446l-1.424-4.23h-13.634l-1.56 4.28a2.122 2.122 0 01-1.994 1.396h-6.146a2.122 2.122 0 01-1.969-2.913L693.79 8.44a2.122 2.122 0 011.97-1.331zm75.764 0c1.172 0 2.122.95 2.122 2.122v15.544l.048-.006a.192.192 0 00.115-.084l10.407-16.582a2.122 2.122 0 011.797-.994h5.374a2.122 2.122 0 011.768 3.296l-10.809 16.28 11.494 16.339a2.122 2.122 0 01-1.735 3.343h-6.467a2.122 2.122 0 01-1.795-.99L778.78 29.39l-.041.009a.106.106 0 00-.065.097v14.748c0 1.172-.95 2.122-2.122 2.122h-5.782a2.122 2.122 0 01-2.122-2.122V9.231c0-1.172.95-2.122 2.122-2.122zm-286.44 0c.68 0 1.315.325 1.713.87l.094.14 14.657 23.818-.387-22.67v-.036c0-1.12.869-2.039 1.97-2.116l.151-.006h5.322c1.12 0 2.039.87 2.117 1.97l.005.152v35.013c0 1.121-.87 2.04-1.97 2.117l-.152.005h-5.405c-.674 0-1.304-.32-1.703-.854l-.094-.139-14.442-22.986.241 21.833v.024c0 1.12-.869 2.039-1.97 2.116l-.152.006h-5.334a2.122 2.122 0 01-2.117-1.97l-.005-.152V9.23c0-1.121.87-2.04 1.97-2.117l.152-.005h5.34zm-195.15 0c1.121 0 2.039.869 2.117 1.97l.005.152v4.562c0 1.121-.87 2.04-1.97 2.117l-.152.005h-5.57v28.33c0 1.12-.87 2.038-1.97 2.116l-.152.005h-5.783a2.122 2.122 0 01-2.117-1.97l-.005-.152V15.915h-5.623a2.122 2.122 0 01-2.117-1.97l-.005-.152V9.231c0-1.121.869-2.04 1.97-2.117l.152-.005h21.22zm16.18 0c1.121 0 2.039.869 2.117 1.97l.005.152v12.626h12.838V9.23c0-1.121.87-2.04 1.97-2.117l.152-.005h5.783c1.12 0 2.039.869 2.116 1.97l.006.152v35.013c0 1.12-.87 2.039-1.97 2.116l-.152.006h-5.783a2.122 2.122 0 01-2.117-1.97l-.005-.152V30.663h-12.838v13.58c0 1.122-.87 2.04-1.97 2.117l-.152.006h-5.783a2.122 2.122 0 01-2.116-1.97l-.006-.152V9.23c0-1.121.87-2.04 1.971-2.117l.152-.005h5.782zm53.899 0c1.121 0 2.039.869 2.117 1.97l.005.152v4.562c0 1.121-.87 2.04-1.97 2.117l-.152.005h-10.08v6.1h9.708c1.121 0 2.04.87 2.117 1.971l.005.152V28.7c0 1.121-.869 2.04-1.97 2.117l-.152.005h-9.708v6.738h10.08c1.121 0 2.039.869 2.117 1.97l.005.152v4.562c0 1.121-.87 2.039-1.97 2.117l-.152.005h-17.56a2.122 2.122 0 01-2.117-1.97l-.005-.152V9.231c0-1.121.87-2.039 1.97-2.117l.152-.005h17.56zm47.958 0c1.121 0 2.039.869 2.117 1.97l.005.152v4.562c0 1.121-.87 2.04-1.97 2.117l-.152.005h-5.57v28.33c0 1.12-.87 2.038-1.97 2.116l-.152.005h-5.783a2.122 2.122 0 01-2.117-1.97l-.005-.152V15.915h-5.623a2.122 2.122 0 01-2.117-1.97l-.005-.152V9.231c0-1.121.869-2.04 1.97-2.117l.152-.005h21.22zm16.18 0c1.121 0 2.039.869 2.117 1.97l.005.152v12.626h12.838V9.23c0-1.121.87-2.04 1.97-2.117l.152-.005h5.783c1.12 0 2.039.869 2.116 1.97l.006.152v35.013c0 1.12-.87 2.039-1.97 2.116l-.152.006h-5.783a2.122 2.122 0 01-2.117-1.97l-.005-.152V30.663h-12.838v13.58c0 1.122-.87 2.04-1.97 2.117l-.152.006h-5.783a2.122 2.122 0 01-2.116-1.97l-.006-.152V9.23c0-1.121.87-2.04 1.971-2.117l.151-.005h5.783zm42.122 0c1.121 0 2.039.869 2.117 1.97l.005.152v35.013c0 1.12-.87 2.039-1.97 2.116l-.152.006h-5.783a2.122 2.122 0 01-2.116-1.97l-.006-.152V9.23c0-1.121.87-2.04 1.971-2.117l.151-.005h5.783zm226.9 12.202l-4.032 13.422h8.223l-4.032-13.37-.159-.052z" fill="#000" fill-rule="nonzero"/><path d="M72.789 4.21c.081.24.147.484.199.731l.645 3.099-27.09 9.348c-4.926 1.7-7.811 6.823-6.747 11.938l15.867 76.257-30.257 10.44c-.585.202-1.18.31-1.767.331l-.22.005a6.164 6.164 0 01-5.83-4.21 6.27 6.27 0 01-.199-.732L.132 28.48c-.64-3.075 1.092-6.148 4.035-7.164L64.972.335A6.102 6.102 0 0166.74.004l.22-.005a6.164 6.164 0 015.83 4.21zm1.697 7.931l15.76 75.738c.64 3.075-1.092 6.148-4.035 7.164l-26.588 9.174-15.76-75.737c-.64-3.075 1.092-6.148 4.036-7.164l26.587-9.175z" fill="#0047FF"/><path d="M116.52 4.21c.081.24.147.484.199.731l.702 3.373-26.297 9.074c-4.927 1.7-7.812 6.823-6.748 11.938l15.81 75.984-31.05 10.713c-.584.202-1.178.31-1.766.331l-.22.005a6.164 6.164 0 01-5.83-4.21 6.27 6.27 0 01-.199-.732L43.863 28.48c-.64-3.075 1.092-6.148 4.035-7.164L108.703.335a6.102 6.102 0 011.767-.331l.22-.005a6.164 6.164 0 015.83 4.21zm1.754 8.205l15.703 75.464c.64 3.075-1.092 6.148-4.035 7.164l-25.795 8.9L88.444 28.48c-.64-3.075 1.091-6.148 4.035-7.164l25.795-8.9z" fill="#1E5DFF"/><path d="M161.1 4.21c.081.24.147.484.199.731l.645 3.099-27.09 9.348c-4.926 1.7-7.811 6.823-6.747 11.938l15.867 76.257-30.257 10.44c-.585.202-1.18.31-1.767.331l-.22.005a6.164 6.164 0 01-5.83-4.21 6.27 6.27 0 01-.199-.732L88.443 28.48c-.64-3.075 1.092-6.148 4.035-7.164L153.283.335a6.102 6.102 0 011.767-.331l.22-.005a6.164 6.164 0 015.83 4.21zm1.697 7.931l15.76 75.738c.64 3.075-1.092 6.148-4.035 7.164l-26.588 9.174-15.76-75.737c-.64-3.075 1.092-6.148 4.036-7.164l26.587-9.175z" fill="#3D73FF"/><path d="M204.83 4.21c.081.24.147.484.199.731l17.258 82.938c.64 3.075-1.091 6.149-4.035 7.165l-60.805 20.98c-.585.201-1.18.31-1.767.331l-.22.004a6.164 6.164 0 01-5.83-4.21 6.27 6.27 0 01-.199-.731L132.173 28.48c-.64-3.075 1.092-6.149 4.035-7.164L197.013.336a6.102 6.102 0 011.767-.332L199 0a6.164 6.164 0 015.83 4.21z" fill="#6C95FF"/></g></svg>