<?xml version="1.0" encoding="UTF-8" standalone="no"?>
<!DOCTYPE svg PUBLIC "-//W3C//DTD SVG 1.1//EN" "http://www.w3.org/Graphics/SVG/1.1/DTD/svg11.dtd">
<svg width="100%" height="100%" viewBox="0 0 1803 1384" version="1.1" xmlns="http://www.w3.org/2000/svg" xmlns:xlink="http://www.w3.org/1999/xlink" xml:space="preserve" xmlns:serif="http://www.serif.com/" style="fill-rule:evenodd;clip-rule:evenodd;stroke-linejoin:round;stroke-miterlimit:2;">
    <g transform="matrix(1,0,0,1,0,1241.05)">
        <path d="M59.168,3L27.96,3L27.96,139.95L59.168,139.95L59.168,3ZM196.776,54.958L197.108,54.958L251.556,139.95L282.764,139.95L282.764,3L251.556,3L251.556,87.992L251.224,87.992L196.776,3L165.568,3L165.568,139.95L196.776,139.95L196.776,54.958ZM389.164,3L389.164,139.95L428.838,139.95C466.52,139.95 497.894,111.398 497.894,71.392C497.894,31.552 466.354,3 428.838,3L389.164,3ZM420.372,112.062L420.372,30.888L425.186,30.888C448.426,30.888 464.196,48.65 464.196,71.558C464.03,94.466 448.26,112.062 425.186,112.062L420.372,112.062ZM703.396,3L672.188,3L672.188,82.182C672.188,105.09 665.216,111.73 649.944,111.73C634.672,111.73 627.7,105.09 627.7,82.182L627.7,3L596.492,3L596.492,91.312C596.492,125.176 615.084,142.44 649.944,142.44C684.804,142.44 703.396,125.176 703.396,91.312L703.396,3ZM855.28,0.51C833.202,0.51 810.626,16.778 810.626,42.342C810.626,56.618 820.254,69.4 836.688,77.534C852.956,85.668 867.564,90.15 867.564,100.11C867.564,112.892 854.616,113.556 847.81,113.556C832.538,113.556 814.278,98.118 814.278,98.118L798.674,124.346C798.674,124.346 818.096,142.44 850.134,142.44C876.86,142.44 901.76,130.986 901.76,98.284C901.76,80.356 884.994,67.408 869.722,60.934C854.118,54.294 841.17,48.816 841.17,41.18C841.17,33.71 846.814,28.896 857.438,28.896C871.548,28.896 885.16,38.358 885.16,38.358L897.776,13.458C897.776,13.458 880.18,0.51 855.28,0.51ZM986.248,30.39L1018.78,30.39L1018.78,139.95L1049.99,139.95L1049.99,30.39L1082.53,30.39L1082.53,3L986.248,3L986.248,30.39ZM1180.3,3L1180.3,139.95L1211.5,139.95L1211.5,85.834L1253.34,139.95L1293.01,139.95L1245.87,83.344C1262.63,78.032 1273.92,64.254 1273.92,43.67C1273.92,16.778 1254.66,3 1229.27,3L1180.3,3ZM1211.5,63.756L1211.5,27.9L1215.16,27.9C1226.94,27.9 1241.05,28.73 1241.05,45.828C1241.05,62.926 1226.94,63.756 1215.16,63.756L1211.5,63.756ZM1416.84,3L1385.63,3L1385.63,139.95L1416.84,139.95L1416.84,3ZM1601.59,3L1523.24,3L1523.24,139.95L1601.59,139.95L1601.59,112.56L1554.45,112.56L1554.45,85.004L1599.6,85.004L1599.6,57.614L1554.45,57.614L1554.45,30.39L1601.59,30.39L1601.59,3ZM1756.46,0.51C1734.39,0.51 1711.81,16.778 1711.81,42.342C1711.81,56.618 1721.44,69.4 1737.87,77.534C1754.14,85.668 1768.75,90.15 1768.75,100.11C1768.75,112.892 1755.8,113.556 1748.99,113.556C1733.72,113.556 1715.46,98.118 1715.46,98.118L1699.86,124.346C1699.86,124.346 1719.28,142.44 1751.32,142.44C1778.04,142.44 1802.94,130.986 1802.94,98.284C1802.94,80.356 1786.18,67.408 1770.91,60.934C1755.3,54.294 1742.35,48.816 1742.35,41.18C1742.35,33.71 1748,28.896 1758.62,28.896C1772.73,28.896 1786.34,38.358 1786.34,38.358L1798.96,13.458C1798.96,13.458 1781.36,0.51 1756.46,0.51Z" style="fill:rgb(54,54,54);"/>
    </g>
    <g transform="matrix(1,0,0,1,0,710.175)">
        <path d="M0.248,267.365L55.324,267.365L55.324,452.825L108.152,452.825L108.152,267.365L163.228,267.365L163.228,221L0.248,221L0.248,267.365ZM244.214,359.814L318.96,359.814L318.96,452.825L371.788,452.825L371.788,221L318.96,221L318.96,313.449L244.214,313.449L244.214,221L191.386,221L191.386,452.825L244.214,452.825L244.214,359.814ZM547.19,221L414.558,221L414.558,452.825L547.19,452.825L547.19,406.46L467.386,406.46L467.386,359.814L543.818,359.814L543.818,313.449L467.386,313.449L467.386,267.365L547.19,267.365L547.19,221ZM644.251,267.365L699.327,267.365L699.327,452.825L752.155,452.825L752.155,267.365L807.231,267.365L807.231,221L644.251,221L644.251,267.365ZM888.217,359.814L962.963,359.814L962.963,452.825L1015.79,452.825L1015.79,221L962.963,221L962.963,313.449L888.217,313.449L888.217,221L835.389,221L835.389,452.825L888.217,452.825L888.217,359.814ZM1111.39,221L1058.56,221L1058.56,452.825L1111.39,452.825L1111.39,221ZM1206.99,308.953L1207.55,308.953L1299.72,452.825L1352.55,452.825L1352.55,221L1299.72,221L1299.72,364.872L1299.15,364.872L1206.99,221L1154.16,221L1154.16,452.825L1206.99,452.825L1206.99,308.953ZM1604.94,323.003L1497.88,323.003L1497.88,363.748L1551.27,363.748C1551.27,392.129 1526.26,408.427 1500.97,408.427C1468.38,408.427 1441.96,376.393 1441.96,337.053C1441.96,296.87 1468.38,264.555 1500.97,264.555C1521.48,264.555 1539.19,272.704 1552.67,294.341L1587.24,256.406C1567.01,231.959 1538.62,216.785 1497.88,216.785C1432.69,216.785 1384.92,270.456 1384.92,337.053C1384.92,403.369 1435.5,457.04 1497.88,457.04C1543.4,457.04 1592.3,432.031 1604.94,373.302L1604.94,323.003ZM1722.74,216.785C1685.37,216.785 1647.15,244.323 1647.15,287.597C1647.15,311.763 1663.45,333.4 1691.27,347.169C1718.8,360.938 1743.53,368.525 1743.53,385.385C1743.53,407.022 1721.61,408.146 1710.09,408.146C1684.24,408.146 1653.33,382.013 1653.33,382.013L1626.92,426.411C1626.92,426.411 1659.79,457.04 1714.03,457.04C1759.27,457.04 1801.42,437.651 1801.42,382.294C1801.42,351.946 1773.04,330.028 1747.18,319.069C1720.77,307.829 1698.85,298.556 1698.85,285.63C1698.85,272.985 1708.41,264.836 1726.39,264.836C1750.28,264.836 1773.32,280.853 1773.32,280.853L1794.67,238.703C1794.67,238.703 1764.89,216.785 1722.74,216.785Z" style="fill:rgb(54,54,54);"/>
    </g>
    <g transform="matrix(1,0,0,1,0,-90)">
        <path d="M0,587.004C0,569.328 14.327,555 31.993,555L124.008,555C141.676,555 156,569.325 156,587.004L156,886.997C156,904.672 141.673,919 124.008,919L31.993,919C14.324,919 0,904.675 0,886.997L0,587.004Z" style="fill:rgb(13,131,208);"/>
    </g>
    <g transform="matrix(1,0,0,1,0,-266)">
        <path d="M188,587C188,569.327 202.327,555 219.993,555L312.008,555C329.676,555 344,569.322 344,587L344,1063C344,1080.67 329.673,1095 312.008,1095L219.993,1095C202.324,1095 188,1080.68 188,1063L188,587Z" style="fill:rgb(13,131,208);"/>
    </g>
    <g transform="matrix(1,0,0,1,0,-414)">
        <path d="M376,587.003C376,569.328 390.332,555 408.005,555L567.996,555C585.671,555 600,569.33 600,587.003L600,1211C600,1228.67 585.668,1243 567.996,1243L408.005,1243C390.329,1243 376,1228.67 376,1211L376,587.003Z" style="fill:rgb(13,131,208);"/>
    </g>
    <g transform="matrix(1,0,0,1,0,-555)">
        <path d="M887,587.006C887,569.329 901.323,555 918.997,555L1214,555C1231.67,555 1246,569.323 1246,587.006L1246,1351.99C1246,1369.67 1231.68,1384 1214,1384L918.997,1384C901.325,1384 887,1369.68 887,1351.99L887,587.006Z" style="fill:rgb(13,131,208);"/>
    </g>
    <g transform="matrix(1,0,0,1,0,-343)">
        <path d="M631,587.008C631,569.33 645.332,555 663.005,555L822.996,555C840.671,555 855,569.325 855,587.008L855,1139.99C855,1157.67 840.668,1172 822.996,1172L663.005,1172C645.329,1172 631,1157.67 631,1139.99L631,587.008Z" style="fill:rgb(13,131,208);"/>
    </g>
    <g transform="matrix(1,0,0,1,0,-343)">
        <path d="M1280,587.008C1280,569.33 1294.33,555 1312,555L1472,555C1489.67,555 1504,569.325 1504,587.008L1504,1139.99C1504,1157.67 1489.67,1172 1472,1172L1312,1172C1294.33,1172 1280,1157.67 1280,1139.99L1280,587.008Z" style="fill:rgb(13,131,208);"/>
    </g>
    <g transform="matrix(1,0,0,1,0,-90)">
        <path d="M1540,587.004C1540,569.328 1554.33,555 1572.01,555L1762.99,555C1780.67,555 1795,569.325 1795,587.004L1795,886.997C1795,904.672 1780.67,919 1762.99,919L1572.01,919C1554.33,919 1540,904.675 1540,886.997L1540,587.004Z" style="fill:rgb(13,131,208);"/>
    </g>
</svg>
