<?xml version="1.0" encoding="UTF-8" standalone="no"?>
<!DOCTYPE svg PUBLIC "-//W3C//DTD SVG 1.1//EN" "http://www.w3.org/Graphics/SVG/1.1/DTD/svg11.dtd">
<svg width="100%" height="100%" viewBox="0 0 1440 192" version="1.1" xmlns="http://www.w3.org/2000/svg" xmlns:xlink="http://www.w3.org/1999/xlink" xml:space="preserve" xmlns:serif="http://www.serif.com/" style="fill-rule:evenodd;clip-rule:evenodd;">
    <g id="Group">
        <rect id="Mask" x="0" y="0" width="1440" height="192" style="fill:rgb(0,68,255);"/>
        <g transform="matrix(1,0,0,1,69,-138)">
            <g opacity="0.3">
                <path id="Rectangle-Copy-101" d="M20.303,191.048C9.605,194.704 3.313,205.763 5.638,216.827L72.166,533.473C72.354,534.366 72.596,535.246 72.89,536.109C76.887,547.805 89.609,554.046 101.305,550.049L335.697,469.952C346.395,466.296 352.687,455.237 350.362,444.173L283.834,127.527C283.646,126.634 283.404,125.754 283.11,124.891C279.113,113.195 266.391,106.954 254.695,110.951L20.303,191.048Z" style="fill:none;stroke:white;stroke-width:2.7px;"/>
                <path id="Rectangle-Copy-102" d="M193.303,210.048C182.605,213.704 176.313,224.763 178.638,235.827L245.166,552.473C245.354,553.366 245.596,554.246 245.89,555.109C249.887,566.805 262.609,573.046 274.305,569.049L508.697,488.952C519.395,485.296 525.687,474.237 523.362,463.173L456.834,146.527C456.646,145.634 456.404,144.754 456.11,143.891C452.113,132.195 439.391,125.954 427.695,129.951L193.303,210.048Z" style="fill:none;stroke:white;stroke-width:2.7px;"/>
                <path id="Rectangle-Copy-103" d="M361.303,90.048C350.605,93.704 344.313,104.763 346.638,115.827L413.166,432.473C413.354,433.366 413.596,434.246 413.89,435.109C417.887,446.805 430.609,453.046 442.305,449.049L676.697,368.952C687.395,365.296 693.687,354.237 691.362,343.173L624.834,26.527C624.646,25.634 624.404,24.754 624.11,23.891C620.113,12.195 607.391,5.954 595.695,9.951L361.303,90.048Z" style="fill:none;stroke:white;stroke-width:2.7px;"/>
                <path id="Rectangle-Copy-104" d="M536.303,310.048C525.605,313.704 519.313,324.763 521.638,335.827L588.166,652.473C588.354,653.366 588.596,654.246 588.89,655.109C592.887,666.805 605.609,673.046 617.305,669.049L851.697,588.952C862.395,585.296 868.687,574.237 866.362,563.173L799.834,246.527C799.646,245.634 799.404,244.754 799.11,243.891C795.113,232.195 782.391,225.954 770.695,229.951L536.303,310.048Z" style="fill:none;stroke:white;stroke-width:2.7px;"/>
                <path id="Rectangle-Copy-105" d="M726.303,180.048C715.605,183.704 709.313,194.763 711.638,205.827L778.166,522.473C778.354,523.366 778.596,524.246 778.89,525.109C782.887,536.805 795.609,543.046 807.305,539.049L1041.7,458.952C1052.39,455.296 1058.69,444.237 1056.36,433.173L989.834,116.527C989.646,115.634 989.404,114.754 989.11,113.891C985.113,102.195 972.391,95.954 960.695,99.951L726.303,180.048Z" style="fill:none;stroke:white;stroke-width:2.7px;"/>
                <path id="Rectangle-Copy-106" d="M966.303,210.048C955.605,213.704 949.313,224.763 951.638,235.827L1018.17,552.473C1018.35,553.366 1018.6,554.246 1018.89,555.109C1022.89,566.805 1035.61,573.046 1047.31,569.049L1281.7,488.952C1292.39,485.296 1298.69,474.237 1296.36,463.173L1229.83,146.527C1229.65,145.634 1229.4,144.754 1229.11,143.891C1225.11,132.195 1212.39,125.954 1200.69,129.951L966.303,210.048Z" style="fill:none;stroke:white;stroke-width:2.7px;"/>
            </g>
        </g>
    </g>
</svg>
