<svg width="39" height="39" viewBox="0 0 39 39" fill="none" xmlns="http://www.w3.org/2000/svg">
<rect x="2" y="2" width="35.0004" height="35.0004" rx="17.5002" fill="#1E5DFF"/>
<rect x="2" y="2" width="35.0004" height="35.0004" rx="17.5002" stroke="white" stroke-width="3"/>
<path d="M22.2125 29.2566H16.7874C16.5541 29.2566 16.3426 29.1582 16.153 28.9613C15.9634 28.7644 15.8686 28.5493 15.8686 28.316V17.7283C15.8686 17.4949 15.9634 17.2835 16.153 17.0939C16.3426 16.9043 16.5541 16.8095 16.7874 16.8095H22.2125C22.4604 16.8095 22.6755 16.9043 22.8578 17.0939C23.0401 17.2835 23.1313 17.4949 23.1313 17.7283V28.316C23.1313 28.5493 23.0401 28.7644 22.8578 28.9613C22.6755 29.1582 22.4604 29.2566 22.2125 29.2566ZM19.5 21.4252C19.7479 21.4252 19.963 21.3341 20.1453 21.1518C20.3276 20.9695 20.4187 20.7544 20.4187 20.5065C20.4187 20.2439 20.3312 20.0179 20.1562 19.8283C19.9812 19.6387 19.7625 19.5439 19.5 19.5439C19.2375 19.5439 19.0114 19.6387 18.8218 19.8283C18.6322 20.0179 18.5374 20.2439 18.5374 20.5065C18.5374 20.769 18.6322 20.9877 18.8218 21.1627C19.0114 21.3377 19.2375 21.4252 19.5 21.4252ZM19.5 13.8126C18.9458 13.8126 18.4244 13.8964 17.9359 14.0642C17.4473 14.2319 16.9989 14.4688 16.5905 14.7751C16.4301 14.8918 16.2624 14.9501 16.0874 14.9501C15.9124 14.9501 15.7593 14.8845 15.628 14.7532C15.4968 14.622 15.4311 14.4688 15.4311 14.2938C15.4311 14.1188 15.5041 13.973 15.6499 13.8563C16.1749 13.4334 16.7619 13.1016 17.4109 12.861C18.0598 12.6204 18.7562 12.5001 19.5 12.5001C20.2437 12.5001 20.9401 12.6204 21.5891 12.861C22.238 13.1016 22.825 13.4334 23.35 13.8563C23.4959 13.973 23.5688 14.1188 23.5688 14.2938C23.5688 14.4688 23.5032 14.622 23.3719 14.7532C23.2406 14.8845 23.0875 14.9501 22.9125 14.9501C22.7375 14.9501 22.5698 14.8918 22.4094 14.7751C22.001 14.4688 21.5526 14.2319 21.064 14.0642C20.5755 13.8964 20.0541 13.8126 19.5 13.8126ZM19.5 10.3125C18.4645 10.3125 17.4911 10.4839 16.5796 10.8266C15.6681 11.1693 14.8478 11.6469 14.1186 12.2594C13.9728 12.3761 13.8051 12.4417 13.6155 12.4563C13.4259 12.4709 13.2655 12.4126 13.1342 12.2813C13.003 12.1501 12.9446 11.9823 12.9592 11.7782C12.9738 11.574 13.0613 11.4136 13.2217 11.2969C14.0676 10.5823 15.0228 10.0209 16.0874 9.61251C17.152 9.20417 18.2895 9 19.5 9C20.7104 9 21.8479 9.20782 22.9125 9.62345C23.9771 10.0391 24.9251 10.6115 25.7563 11.3407C25.9022 11.4719 25.9824 11.6323 25.9969 11.8219C26.0115 12.0115 25.9532 12.1719 25.8219 12.3032C25.6907 12.4344 25.5303 12.4928 25.3407 12.4782C25.1511 12.4636 24.9834 12.398 24.8376 12.2813C24.123 11.6688 23.3099 11.1875 22.3984 10.8375C21.487 10.4875 20.5208 10.3125 19.5 10.3125ZM17.3562 27.7472H21.6437V18.3189H17.3562V27.7472ZM17.3562 27.7472H21.6437H17.3562Z" fill="white"/>
</svg>
