<svg width="39" height="39" viewBox="0 0 39 39" fill="none" xmlns="http://www.w3.org/2000/svg">
<rect x="2" y="2.00049" width="35.0004" height="35.0004" rx="17.5002" fill="#1E5DFF"/>
<rect x="2" y="2.00049" width="35.0004" height="35.0004" rx="17.5002" stroke="white" stroke-width="3"/>
<path fill-rule="evenodd" clip-rule="evenodd" d="M22.1252 12.6436C21.1524 12.6436 20.1937 12.8753 19.3282 13.3195C18.4628 13.7637 17.7156 14.4076 17.1485 15.198C16.8668 15.5906 16.3201 15.6806 15.9275 15.3988C15.5349 15.1171 15.4449 14.5704 15.7266 14.1778C16.4558 13.1616 17.4164 12.3337 18.5291 11.7626C19.6418 11.1914 20.8745 10.8936 22.1252 10.8936C23.3759 10.8936 24.6086 11.1914 25.7213 11.7626C26.834 12.3337 27.7946 13.1616 28.5237 14.1778C28.8055 14.5704 28.7155 15.1171 28.3229 15.3988C27.9303 15.6806 27.3836 15.5906 27.1018 15.198C26.5348 14.4076 25.7876 13.7637 24.9222 13.3195C24.0567 12.8753 23.098 12.6436 22.1252 12.6436ZM22.1252 16.0721C21.7083 16.0721 21.2974 16.1714 20.9265 16.3617C20.5556 16.5521 20.2354 16.8281 19.9923 17.1668C19.7106 17.5595 19.1639 17.6494 18.7713 17.3677C18.3787 17.086 18.2887 16.5393 18.5704 16.1466C18.9755 15.5821 19.5092 15.1221 20.1274 14.8048C20.7455 14.4875 21.4304 14.3221 22.1252 14.3221C22.82 14.3221 23.5049 14.4875 24.123 14.8048C24.7412 15.1221 25.2749 15.5821 25.6799 16.1466C25.9617 16.5393 25.8717 17.086 25.4791 17.3677C25.0865 17.6494 24.5398 17.5595 24.258 17.1668C24.015 16.8281 23.6948 16.5521 23.3239 16.3617C22.953 16.1714 22.5421 16.0721 22.1252 16.0721ZM22.1252 17.7505C22.6085 17.7505 23.0002 18.1423 23.0002 18.6256V19.5006H25.6253C26.3215 19.5006 26.9892 19.7771 27.4814 20.2694C27.9737 20.7617 28.2503 21.4294 28.2503 22.1256V25.6257C28.2503 26.3219 27.9737 26.9896 27.4814 27.4819C26.9892 27.9742 26.3215 28.2507 25.6253 28.2507H13.375C12.6788 28.2507 12.0111 27.9742 11.5189 27.4819C11.0266 26.9896 10.75 26.3219 10.75 25.6257V22.1256C10.75 21.4294 11.0266 20.7617 11.5189 20.2694C12.0111 19.7771 12.6788 19.5006 13.375 19.5006H21.2502V18.6256C21.2502 18.1423 21.6419 17.7505 22.1252 17.7505ZM13.375 21.2506C13.143 21.2506 12.9204 21.3428 12.7563 21.5069C12.5922 21.671 12.5 21.8936 12.5 22.1256V25.6257C12.5 25.8578 12.5922 26.0803 12.7563 26.2444C12.9204 26.4085 13.143 26.5007 13.375 26.5007H25.6253C25.8573 26.5007 26.0799 26.4085 26.244 26.2444C26.4081 26.0803 26.5003 25.8578 26.5003 25.6257V22.1256C26.5003 21.8936 26.4081 21.671 26.244 21.5069C26.0799 21.3428 25.8573 21.2506 25.6253 21.2506H13.375ZM20.3752 23.0006C20.8584 23.0006 21.2502 23.3924 21.2502 23.8757V23.8844C21.2502 24.3677 20.8584 24.7594 20.3752 24.7594C19.8919 24.7594 19.5002 24.3677 19.5002 23.8844V23.8757C19.5002 23.3924 19.8919 23.0006 20.3752 23.0006ZM23.8752 23.0006C24.3585 23.0006 24.7502 23.3924 24.7502 23.8757V23.8844C24.7502 24.3677 24.3585 24.7594 23.8752 24.7594C23.392 24.7594 23.0002 24.3677 23.0002 23.8844V23.8757C23.0002 23.3924 23.392 23.0006 23.8752 23.0006Z" fill="white"/>
</svg>
