<svg width="32" height="32" xmlns="http://www.w3.org/2000/svg"><path d="M17.6 25.6h1.6a1.6 1.6 0 0 1 1.6 1.6H32v3.2H20.8a1.6 1.6 0 0 1-1.6 1.6h-6.4a1.6 1.6 0 0 1-1.6-1.6H0v-3.2h11.2a1.6 1.6 0 0 1 1.6-1.6h1.6v-3.2H3.2a1.6 1.6 0 0 1-1.6-1.6v-6.4a1.6 1.6 0 0 1 1.6-1.6h25.6a1.6 1.6 0 0 1 1.6 1.6v6.4a1.6 1.6 0 0 1-1.6 1.6H17.6v3.2zM3.2 0h25.6a1.6 1.6 0 0 1 1.6 1.6V8a1.6 1.6 0 0 1-1.6 1.6H3.2A1.6 1.6 0 0 1 1.6 8V1.6A1.6 1.6 0 0 1 3.2 0zm8 6.4h1.6V3.2h-1.6v3.2zm0 12.8h1.6V16h-1.6v3.2zm-6.4-16v3.2H8V3.2H4.8zm0 12.8v3.2H8V16H4.8z" fill="#323232" fill-rule="nonzero"/></svg>