<svg viewBox="0 0 720 675" xmlns="http://www.w3.org/2000/svg"><defs><linearGradient id="a" x1="50%" x2="50%" y1="100%" y2="38.054%"><stop stop-color="#87CCFF" offset="0"/><stop stop-color="#DDF0FF" offset="1"/></linearGradient><linearGradient id="b" x1="50%" x2="50%" y2="100%"><stop stop-color="#81B1FF" offset="0"/><stop stop-color="#1879FF" offset="1"/></linearGradient></defs><g fill="none" fill-rule="evenodd"><path d="M486.56 632.81c-11.618 0-21.094-9.4556-21.094-21.094v-84.375c0-11.659-9.4345-21.094-21.094-21.094h-168.75c-11.659 0-21.094 9.4345-21.094 21.094v84.375c0 11.638-9.4753 21.094-21.094 21.094-11.659 0-21.094 9.4345-21.094 21.094s9.4345 21.094 21.094 21.094h253.12c11.659 0 21.094-9.4345 21.094-21.094s-9.4345-21.094-21.094-21.094z" fill="url(#a)" fill-rule="nonzero"/><rect width="720" height="548.44" rx="63.281" fill="url(#b)"/><rect x="195.47" y="258.75" width="91.406" height="203.91" rx="14.062" fill="url(#a)" fill-rule="nonzero"/><rect x="315" y="274.22" width="91.406" height="188.44" rx="14.062" fill="url(#a)" fill-rule="nonzero"/><rect x="434.53" y="213.75" width="91.406" height="248.91" rx="14.062" fill="url(#a)" fill-rule="nonzero"/></g></svg>