<?xml version="1.0" encoding="UTF-8"?><svg version="1.1" viewBox="0 0 500 500" xmlns="http://www.w3.org/2000/svg" xmlns:xlink="http://www.w3.org/1999/xlink"><title>Artboard</title><desc>Created with Sketch.</desc><defs><rect id="a" x="10" y="13" width="480" height="475" rx="62"/><mask id="b" x="0" y="0" width="480" height="475" fill="white"><use xlink:href="#a"/></mask></defs><g fill="none" fill-rule="evenodd"><g transform="translate(86 78)"><rect y="59" width="76" height="23" rx="4" fill="#EDEDED"/><rect y="207" width="76" height="23" rx="4" fill="#EDEDED"/><rect y="33" width="76" height="10" rx="4" fill="#CFCFCF"/><rect width="113" height="17" rx="4" fill="#CFCFCF"/><rect y="180" width="76" height="10" rx="4" fill="#CFCFCF"/><rect y="141" width="76" height="23" rx="4" fill="#EDEDED"/><rect y="99" width="76" height="23" rx="4" fill="#EDEDED"/><rect y="247" width="76" height="23" rx="4" fill="#EDEDED"/><rect x="105" y="59" width="223" height="23" rx="4" fill="#EDEDED"/><rect x="105" y="207" width="223" height="23" rx="4" fill="#EDEDED"/><rect x="105" y="141" width="223" height="23" rx="4" fill="#EDEDED"/><rect x="105" y="99" width="223" height="23" rx="4" fill="#EDEDED"/><rect x="105" y="247" width="223" height="23" rx="4" fill="#EDEDED"/><rect y="301" width="328" height="43" rx="4" fill="#EDEDED"/><rect x="8" y="312" width="76" height="22" rx="4" fill="#0D83D0" opacity=".3228"/></g><use mask="url(#b)" stroke="#CFCFCF" stroke-dasharray="30" stroke-width="10" xlink:href="#a"/></g></svg>
