<svg width="254" height="177" xmlns="http://www.w3.org/2000/svg"><g fill="none" fill-rule="evenodd"><path d="M40.1524394 170.64912704c.23278427 1.2283764 1.4266214 2.02879345 2.65048934 1.79089762l191.0224968-37.13101198c1.23105276-.23929241 2.05492878-1.43515269 1.84158467-2.66294268l-1.95081975-11.22689573c-.10744035-.61831664.0950681-1.54755581.43679737-2.05258056l11.37051476-16.80392798c.70296692-1.03887956 1.08164935-2.8646165.84196362-4.09769269l-12.66260836-65.1434727c-.23796305-1.22421376-1.2777059-2.78601567-2.30031811-3.4735825l-16.32834366-10.9785757c-.5168314-.34749804-1.04053699-1.11655841-1.17239817-1.73016428l-2.43650627-11.33802308c-.2621464-1.21987446-1.47887688-2.01357771-2.70161231-1.77590202L17.9180419 41.12188676c-1.22991231.23907073-2.03744146 1.43301935-1.8055055 2.65705567l24.039903 126.8701846z" fill="#E5E5E5"/><path d="M216.050317 101.49570784c3.42102669-.66498022 6.7451765 1.55159675 7.41063087 4.97506268l2.1670168 11.14833502c.6648978 3.42060262-1.57940139 6.72254813-5.00732597 7.38886917l-115.4201054 22.43539577c-3.4210258.66498005-6.74517583-1.55159698-7.41063022-4.97506301l-2.1670168-11.14833502c-.66489767-3.42060193 1.57940153-6.72254796 5.00732532-7.38886884l115.4201054-22.43539577zM61.74943533 139.19422887c3.0755052-.59781765 6.05332173 1.41074512 6.65113929 4.48624984.59781775 3.0755057-1.41074499 6.0533214-4.4862502 6.65113905l-9.96209628 1.93643535c-3.0755052.59781766-6.05332163-1.41074412-6.65113938-4.48624982-.59781756-3.07550471 1.41074508-6.05332141 4.48625029-6.65113907l9.96209628-1.93643535zm155.26305469-32.74856995l-115.4201054 22.43539576c-.69246092.13460077-1.13717435.79347752-1.00491356 1.47390025l2.1670168 11.14833501c.13247697.68153492.7966134 1.1237199 1.48387258.99013025l115.4201054-22.43539577c.6924614-.13460086 1.13717444-.79347753 1.00491347-1.47390124l-2.1670168-11.14833502c-.13247698-.68153492-.7966137-1.12371882-1.4838725-.99012924zm-106.39372848 25.8178246c1.0281992-.19986168 2.0232616.46918167 2.22253412 1.49434991.19927251 1.02516824-.47270521 2.01825137-1.50090442 2.21811305-1.02819921.19986168-2.0232617-.46918166-2.22253422-1.4943499-.19927252-1.02516823.4727053-2.01825138 1.50090452-2.21811306zm12.41146264-2.41254395c1.02819852-.19986154 2.0232611.46918177 2.22253362 1.49435001.19927252 1.02516824-.4727054 2.0182514-1.50090392 2.21811296-1.0281995.19986173-2.0232621-.46918159-2.22253461-1.49434982-.19927252-1.02516824.4727054-2.01825141 1.5009049-2.21811315zm12.41146244-2.4125439c1.0281995-.19986174 2.0232611.46918177 2.22253363 1.49435.19927252 1.02516824-.47270443 2.01825122-1.50090393 2.21811296-1.0281995.19986174-2.02326209-.46918158-2.2225346-1.49434982-.19927253-1.02516824.4727054-2.0182514 1.5009049-2.21811314zm12.41146244-2.41254391c1.02819853-.19986155 2.02326111.46918177 2.22253363 1.49435.19927252 1.02516825-.4727054 2.01825142-1.50090393 2.21811296-1.0281995.19986174-2.02326209-.46918158-2.2225346-1.49434982-.19927252-1.02516824.4727054-2.0182514 1.5009049-2.21811314zm12.41146147-2.41254372c1.0281995-.19986173 2.02326209.46918158 2.2225346 1.49434982.19927252 1.02516824-.4727054 2.0182514-1.5009049 2.21811315-1.02819853.19986154-2.02326111-.46918178-2.22253363-1.49435001-.19927252-1.02516824.4727054-2.01825141 1.50090393-2.21811296zm12.41146244-2.4125439c1.0281995-.19986174 2.0232611.46918177 2.22253363 1.49435.19927252 1.02516825-.47270443 2.01825122-1.50090393 2.21811296-1.0281995.19986174-2.0232621-.46918158-2.22253461-1.49434982-.19927252-1.02516824.4727054-2.0182514 1.50090491-2.21811314zm12.41146244-2.41254391c1.02819853-.19986155 2.02326111.46918177 2.22253363 1.49435001.19927252 1.02516824-.4727054 2.0182514-1.50090393 2.21811295-1.0281995.19986174-2.02326209-.46918158-2.2225346-1.49434982-.19927253-1.02516824.4727054-2.0182514 1.5009049-2.21811314zm12.41146147-2.41254372c1.0281995-.19986173 2.02326208.46918158 2.2225346 1.49434982.19927252 1.02516824-.4727054 2.01825141-1.5009049 2.21811315-1.02819853.19986154-2.02326111-.46918177-2.22253363-1.49435001-.19927252-1.02516824.4727054-2.01825141 1.50090393-2.21811296zm12.41146244-2.4125439c1.0281995-.19986174 2.0232611.46918177 2.22253363 1.49435.19927251 1.02516825-.47270443 2.01825122-1.50090393 2.21811296-1.0281995.19986174-2.0232621-.46918158-2.22253461-1.49434982-.19927252-1.02516824.4727054-2.0182514 1.5009049-2.21811314zM41.52085676 98.17770505c3.42855263-.66644311 6.79959383 1.83707447 7.52967552 5.5930192l2.64848761 13.62528755c.72997236 3.75538225-1.45772267 7.33999253-4.88621169 8.00642329l-23.57735337 4.58297323c-3.42855258.66644312-6.79959384-1.83707456-7.52967554-5.59301929l-2.6484876-13.62528755c-.72997238-3.75538235 1.45772269-7.33999243 4.8862117-8.00642319l23.57735337-4.58297324zm38.35472211-4.88691355c3.0755052-.59781766 6.0533217 1.41074492 6.65113934 4.48625013.59781766 3.0755052-1.41074492 6.0533217-4.48625013 6.65113934l-9.96209628 1.93643536c-3.07550521.59781765-6.0533217-1.41074493-6.65113935-4.48625014-.59781765-3.0755052 1.41074493-6.05332169 4.48625014-6.65113934l9.96209628-1.93643535zM34.54510261 62.29056098c3.42855262-.66644312 6.79959382 1.83707447 7.5296755 5.5930191l2.6484876 13.62528755c.7299724 3.75538245-1.45772267 7.33999253-4.88621168 8.00642329l-23.57735337 4.58297323c-3.42855259.66644312-6.79959383-1.83707446-7.52967554-5.59301929l-2.6484876-13.62528755c-.72997237-3.75538225 1.4577227-7.33999234 4.88621172-8.0064231l23.57735337-4.58297323zm170.55123007-37.0045347c1.37509182-.26729077 2.70588363.6275539 2.96869703 1.97961165l3.8531203 19.82258551c.26447388 1.36060016-.6313755 2.67939486-2.01095238 2.94755744L121.80088068 67.161914c-1.3750928.26729097-2.7058846-.6275537-2.96869801-1.97961145l-3.8531203-19.82258551c-.26447388-1.36060017.63137452-2.67939467 2.01095337-2.94755763l88.10631694-17.12613313zM66.1965439 56.13814393c5.14099595-.99930838 10.11630833 2.34590801 11.11267108 7.47175.99636277 5.12584207-2.36352643 10.09125752-7.50452237 11.0905659-5.14099605.9993084-10.11630833-2.345908-11.1126711-7.47175009-.99636275-5.12584197 2.36352635-10.0912574 7.5045224-11.0905658zm24.8229246-4.82508775c5.14099594-.99930838 10.11630823 2.34590803 11.11267097 7.47175.99636277 5.12584208-2.36352632 10.09125751-7.50452227 11.0905659-5.14099605.9993084-10.11630833-2.34590801-11.1126711-7.4717501-.99636274-5.12584197 2.36352635-10.0912574 7.5045224-11.0905658z" fill="#D2D2D2" fill-rule="nonzero"/></g></svg>
