<svg viewBox="0 0 760 533" xmlns="http://www.w3.org/2000/svg"><defs><linearGradient id="a" x1="50%" x2="50%" y2="100%"><stop stop-color="#81B1FF" offset="0"/><stop stop-color="#1879FF" offset="1"/></linearGradient><linearGradient id="b" x1="50%" x2="50%" y1="100%" y2="38.054%"><stop stop-color="#87CCFF" offset="0"/><stop stop-color="#DDF0FF" offset="1"/></linearGradient></defs><g fill="none" fill-rule="evenodd"><path d="M47.889 415.03c-.018554 3.9464 3.1985 7.1456 7.134 7.1456h614.26c3.9586 0 7.2317-3.2092 7.3101-7.1421l.71722-35.962c.0395-1.9806 1.2267-4.7379 2.5897-6.0969l45.353-45.219c2.8039-2.7956 5.0769-8.2247 5.0769-12.19v-209.48c0-3.9366-2.281-9.4022-5.0355-12.149l-43.982-43.852c-1.3921-1.388-2.5517-4.0864-2.5907-6.0671l-.72078-36.599c-.077548-3.9377-3.3696-7.1299-7.3015-7.1299h-613.69c-3.9549 0-7.1762 3.2131-7.1948 7.1456l-1.9247 407.59z" fill="url(#a)" transform="rotate(-11 659.08456573 154.97213762)"/><path d="M634.57 306.7c11.001 0 19.966 8.8703 19.966 19.879v35.849c0 10.999-8.9428 19.879-19.966 19.879H263.42c-11.001 0-19.966-8.8703-19.966-19.879v-35.849c0-10.999 8.9428-19.879 19.966-19.879h371.15zm-500.81 23.876c9.8897 0 17.907 8.0172 17.907 17.907s-8.0172 17.907-17.907 17.907h-32.034c-9.8897 0-17.907-8.0172-17.907-17.907s8.0172-17.907 17.907-17.907h32.034zm500.81-7.9586H263.42c-2.2267 0-4.0015 1.7737-4.0015 3.9617v35.849c0 2.1916 1.7915 3.9617 4.0015 3.9617h371.15c2.2267 0 4.0015-1.7737 4.0015-3.9617v-35.849c0-2.1916-1.7915-3.9617-4.0015-3.9617zm-345.22 15.917c3.3063 0 5.9866 2.6724 5.9866 5.9689 0 3.2966-2.6803 5.9689-5.9866 5.9689-3.3063 0-5.9866-2.6724-5.9866-5.9689 0-3.2966 2.6803-5.9689 5.9866-5.9689zm39.911 0c3.3063 0 5.9866 2.6724 5.9866 5.9689 0 3.2966-2.6803 5.9689-5.9866 5.9689-3.3063 0-5.9866-2.6724-5.9866-5.9689 0-3.2966 2.6803-5.9689 5.9866-5.9689zm39.911 0c3.3063 0 5.9866 2.6724 5.9866 5.9689 0 3.2966-2.6803 5.9689-5.9866 5.9689s-5.9866-2.6724-5.9866-5.9689c0-3.2966 2.6803-5.9689 5.9866-5.9689zm39.911 0c3.3063 0 5.9866 2.6724 5.9866 5.9689 0 3.2966-2.6803 5.9689-5.9866 5.9689-3.3063 0-5.9866-2.6724-5.9866-5.9689 0-3.2966 2.6803-5.9689 5.9866-5.9689zm39.911 0c3.3063 0 5.9866 2.6724 5.9866 5.9689 0 3.2966-2.6803 5.9689-5.9866 5.9689-3.3063 0-5.9866-2.6724-5.9866-5.9689 0-3.2966 2.6803-5.9689 5.9866-5.9689zm39.911 0c3.3063 0 5.9866 2.6724 5.9866 5.9689 0 3.2966-2.6803 5.9689-5.9866 5.9689s-5.9866-2.6724-5.9866-5.9689c0-3.2966 2.6803-5.9689 5.9866-5.9689zm39.911 0c3.3063 0 5.9866 2.6724 5.9866 5.9689 0 3.2966-2.6803 5.9689-5.9866 5.9689-3.3063 0-5.9866-2.6724-5.9866-5.9689 0-3.2966 2.6803-5.9689 5.9866-5.9689zm39.911 0c3.3063 0 5.9866 2.6724 5.9866 5.9689 0 3.2966-2.6803 5.9689-5.9866 5.9689-3.3063 0-5.9866-2.6724-5.9866-5.9689 0-3.2966 2.6803-5.9689 5.9866-5.9689zm39.911 0c3.3063 0 5.9866 2.6724 5.9866 5.9689 0 3.2966-2.6803 5.9689-5.9866 5.9689s-5.9866-2.6724-5.9866-5.9689c0-3.2966 2.6803-5.9689 5.9866-5.9689zm-512.86-147.23c11.025 0 19.962 9.7876 19.962 21.865v43.814c0 12.076-8.9377 21.865-19.962 21.865H19.962C8.937 278.8484 0 269.0608 0 256.9834v-43.814c0-12.076 8.9377-21.865 19.962-21.865h75.816zm121.79 7.9586c9.8897 0 17.907 8.0172 17.907 17.907s-8.0172 17.907-17.907 17.907h-32.034c-9.8897 0-17.907-8.0172-17.907-17.907s8.0172-17.907 17.907-17.907h32.034zM95.778 75.903c11.025 0 19.962 9.7876 19.962 21.865v43.814c0 12.076-8.9377 21.865-19.962 21.865H19.962C8.937 163.447 0 153.6594 0 141.582V97.768c0-12.076 8.9377-21.865 19.962-21.865h75.816zm550.75-11.938c4.4218 0 8.0063 3.5743 8.0063 7.922v63.742c0 4.3752-3.5701 7.922-8.0063 7.922h-283.32c-4.4218 0-8.0063-3.5743-8.0063-7.922V71.887c0-4.3752 3.5701-7.922 8.0063-7.922h283.32zm-448.97 11.938c16.532 0 29.933 13.362 29.933 29.845 0 16.483-13.401 29.845-29.933 29.845s-29.933-13.362-29.933-29.845c0-16.483 13.401-29.845 29.933-29.845zm79.821 0c16.532 0 29.933 13.362 29.933 29.845 0 16.483-13.401 29.845-29.933 29.845s-29.933-13.362-29.933-29.845c0-16.483 13.401-29.845 29.933-29.845z" fill="url(#b)" fill-rule="nonzero" transform="rotate(-11 659.08456573 154.97213762)"/></g></svg>