<svg viewBox="0 0 676 771" xmlns="http://www.w3.org/2000/svg"><defs><linearGradient id="a" x1="50%" x2="50%" y2="100%"><stop stop-color="#3C8EFF" offset="0"/><stop stop-color="#002FE1" offset="1"/></linearGradient><linearGradient id="b" x1="50%" x2="50%" y1="100%" y2="38.054%"><stop stop-color="#87CCFF" offset="0"/><stop stop-color="#DDF0FF" offset="1"/></linearGradient><linearGradient id="c" x1="50%" x2="50%" y2="100%"><stop stop-color="#81B1FF" offset="0"/><stop stop-color="#1879FF" offset="1"/></linearGradient></defs><g fill="none" fill-rule="evenodd"><path transform="rotate(45 359.64 385.902583)" d="M121.04 232.47c3.7361-30.998 31.92-58.992 63.032-62.388l54.362-5.5467c71.95-4.9907 188.7-6.386 260.63-.61092l70.223 6.6331c31.063 3.1952 59.061 30.981 62.399 62.107l5.8038 57.903c4.9071 71.918 6.2028 188.65.33184 260.56l-6.4083 66.723c-3.2489 31.052-31.138 58.65-62.266 61.532l-70.084 6.0576c-71.994 4.2585-188.81 5.1479-260.71-.56602l-54.284-5.0691c-31.076-3.1645-59.364-30.868-63.04-61.925l-6.9127-62.517c-5.4189-71.882-6.7459-188.55.0085-260.39l6.912-62.504z" fill="url(#a)"/><path d="M455.94 698.01c3.402-3.402 8.9178-3.402 12.32 0l57.724 57.724c3.402 3.402 3.402 8.9178 0 12.32-3.402 3.402-8.9178 3.402-12.32 0L455.94 710.33c-3.402-3.402-3.402-8.9178 0-12.32zm-26.134 21.779c3.402-3.402 8.9178-3.402 12.32 0l26.919 26.919c3.402 3.402 3.402 8.9178 0 12.32-3.402 3.402-8.9178 3.402-12.32 0l-26.919-26.919c-3.402-3.402-3.402-8.9178 0-12.32zm-314.26-612.35c7.1994 0 13.036 5.8685 13.036 13.067v100.18c0 9.6206 1.5653 25.038 3.5116 34.511l3.3281 16.198c3.3892 16.496 6.1368 43.534 6.1368 60.332v34.845c0 9.6373 7.8138 17.45 17.416 17.45h41.427v69.727l-19.641-.03529h-37.012c-31.279 0-56.636-25.345-56.636-56.658v-65.307c0-16.836 3.1959-43.724 7.1538-60.121l4.0058-16.596c2.2563-9.3475 4.0854-24.708 4.0854-34.345v-100.18c0-7.2168 5.8202-13.067 13.036-13.067h.15366z" fill="url(#b)" fill-rule="nonzero" transform="translate(-32)"/><path transform="rotate(45 359.64 385.902583)" d="M121.04 232.47c3.7361-30.998 31.92-58.992 63.032-62.388l54.362-5.5467c71.95-4.9907 188.7-6.386 260.63-.61092l70.223 6.6331c31.063 3.1952 59.061 30.981 62.399 62.107l5.8038 57.903c4.9071 71.918 6.2028 188.65.33184 260.56l-6.4083 66.723c-3.2489 31.052-31.138 58.65-62.266 61.532l-70.084 6.0576c-71.994 4.2585-188.81 5.1479-260.71-.56602l-54.284-5.0691c-31.076-3.1645-59.364-30.868-63.04-61.925l-6.9127-62.517c-5.4189-71.882-6.7459-188.55.0085-260.39l6.912-62.504z" fill="url(#c)"/><path d="M521.46 482.18l.17111.15692 78.321 75.633-6.0515 6.2665-78.321-75.633c-1.6738-1.6164-1.7833-4.2611-.27416-5.9983l.15632-.17063.16611-.16329c1.6366-1.5268 4.1488-1.5565 5.8321-.091152zm17.423-17.423l.17111.15692 78.321 75.633-6.0515 6.2665-78.321-75.633c-1.6738-1.6164-1.7833-4.2611-.27416-5.9983l.15632-.17063.16611-.16329c1.6366-1.5268 4.1488-1.5565 5.8321-.091152zm92.699-61.125c14.434 0 26.134 11.701 26.134 26.134S646.015 455.9 631.582 455.9s-26.134-11.701-26.134-26.134 11.701-26.134 26.134-26.134z" fill="url(#b)" fill-rule="nonzero" transform="translate(-32)"/><path d="M117.6 39.927c25.259 0 45.735 20.476 45.735 45.735 0 3.6084-2.9252 6.5336-6.5336 6.5336s-6.5336-2.9252-6.5336-6.5336c0-18.042-14.626-32.668-32.668-32.668s-32.668 14.626-32.668 32.668c0 3.6084-2.9252 6.5336-6.5336 6.5336s-6.5336-2.9252-6.5336-6.5336c0-25.259 20.476-45.735 45.735-45.735zm0-39.201c46.909 0 84.936 38.027 84.936 84.936 0 3.6084-2.9252 6.5336-6.5336 6.5336s-6.5336-2.9252-6.5336-6.5336c0-39.692-32.177-71.869-71.869-71.869s-71.869 32.177-71.869 71.869c0 3.6084-2.9252 6.5336-6.5336 6.5336s-6.5336-2.9252-6.5336-6.5336c0-46.909 38.027-84.936 84.936-84.936z" fill="url(#c)" transform="translate(-32)"/></g></svg>