<svg viewBox="0 0 780 520" xmlns="http://www.w3.org/2000/svg"><defs><linearGradient id="a" x1="50%" x2="50%" y2="100%"><stop stop-color="#81B1FF" offset="0"/><stop stop-color="#1879FF" offset="1"/></linearGradient><linearGradient id="b" x1="50%" x2="50%" y1="100%" y2="38.054%"><stop stop-color="#87CCFF" offset="0"/><stop stop-color="#DDF0FF" offset="1"/></linearGradient></defs><g fill="none" fill-rule="evenodd"><path d="M90.214 288.67l59.857 59.858 59.857-59.857h14.965c74.221 0 134.68 60.453 134.68 134.68v31.686c0 8.3957-6.806 15.202-15.202 15.202l-284.65-.000057.0009588-35.793c0-49.742-23.31-94.157-59.542-122.83 21.466-14.48 47.309-22.942 75.078-22.942h14.965z" fill="url(#a)" transform="translate(419.86 29.856)"/><path d="M209.93 239.59v79.011l-59.857 59.857-59.857-59.857V239.59l21.547 10.474c23.645 11.372 52.973 11.372 76.618 0l21.548-10.474z" fill="url(#b)" fill-rule="nonzero" transform="translate(419.86 29.856)"/><path d="M194.96 19.319c-20.351 0-38.907 7.7817-52.674 21.848-17.657 17.359-45.789 38.009-81.705 38.009l-30.227 29.929v59.857c0 46.089 26.936 88.288 68.237 108.04 15.861 7.7818 33.22 11.672 51.476 11.672s35.615-3.8916 51.178-11.672c41.599-19.752 68.535-61.951 68.535-108.04V124.07c0-41.303-33.52-104.75-74.821-104.75z" fill="url(#b)" fill-rule="nonzero" transform="translate(419.86 29.856)"/><path transform="matrix(-1 0 0 1 720 29.856)" d="M269.78 119.71v44.892c0-41.301-22.971-27.78-72.823-35.909-33.071-5.3924-58.345-27.751-89.283-32.099-20.625-2.8986-46.399 4.8066-77.321 23.116C30.353 53.569 83.925 0 150.063 0s119.71 53.572 119.71 119.71z" fill="url(#a)"/><path d="M17.108 519.5c-9.2752 0-16.794-7.519-16.794-16.794V467.7c0-82 66.789-148.79 148.79-148.79h16.532l66.127 66.129 66.127-66.127h16.532c81.996 0 148.79 66.786 148.79 148.79v35.006c0 9.2752-7.519 16.794-16.794 16.794h-429.3z" fill="url(#a)"/><path d="M297.89 264.69v87.288l-66.127 66.127-66.127-66.127V264.69l23.804 11.571c26.122 12.564 58.523 12.564 84.645 0l23.806-11.571z" fill="url(#b)" fill-rule="nonzero"/><path d="M281.36 21.343c-22.482 0-42.983 8.597-58.192 24.137-19.507 19.177-50.586 41.991-90.264 41.991L99.51 120.536v66.127c0 50.917 29.758 97.538 75.386 119.36 17.523 8.597 36.7 12.895 56.869 12.895 20.168 0 39.346-4.2993 56.54-12.895 45.957-21.821 75.715-68.442 75.715-119.36v-49.595c0-45.63-37.031-115.72-82.66-115.72z" fill="url(#b)" fill-rule="nonzero"/><path d="M364.02 132.25v49.595c0-45.628-37.031-82.66-82.66-82.66-18.482 0-35.632 5.8075-49.595 16.521-3.0196 2.3142-5.8965 4.8485-8.597 7.6162-19.508 19.177-50.588 41.991-90.264 41.991H99.51v-33.063c0-73.07 59.185-132.25 132.25-132.25 73.07 0 132.25 59.185 132.25 132.25z" fill="url(#a)"/></g></svg>