<svg viewBox="0 0 250 100" xmlns="http://www.w3.org/2000/svg"><defs><linearGradient id="a" x1="79.056%" x2="0%" y1="6.545%" y2="95.87%"><stop stop-color="#CFB2E8" offset="0"/><stop stop-color="#C2B2D8" offset="1"/></linearGradient><linearGradient id="b" x1="68.594%" x2="0%" y1="12.768%" y2="95.87%"><stop stop-color="#DFCCF0" offset="0"/><stop stop-color="#D7CCE6" offset="1"/></linearGradient><linearGradient id="c" x1="50%" x2="0%" y2="97.028%"><stop stop-color="#6200B4" offset="0"/><stop stop-color="#33007D" offset="1"/></linearGradient><linearGradient id="d" x1="64.707%" x2="0%" y1="6.452%" y2="95.87%"><stop stop-color="#6F19B8" offset="0"/><stop stop-color="#47198A" offset="1"/></linearGradient><linearGradient id="e" x1="50%" x2="0%" y1="3.83%" y2="95.87%"><stop stop-color="#7F33C1" offset="0"/><stop stop-color="#5C3397" offset="1"/></linearGradient><linearGradient id="f" x1="50%" x2="0%" y1="7.477%" y2="95.87%"><stop stop-color="#8E4CC7" offset="0"/><stop stop-color="#704CA4" offset="1"/></linearGradient><linearGradient id="g" x1="67.899%" x2="0%" y1="17.895%" y2="95.87%"><stop stop-color="#9F66D0" offset="0"/><stop stop-color="#8768B3" offset="1"/></linearGradient><linearGradient id="h" x1="75.62%" x2="0%" y1="21.751%" y2="95.87%"><stop stop-color="#B07FD9" offset="0"/><stop stop-color="#9C82C0" offset="1"/></linearGradient><linearGradient id="i" x1="63.63%" x2="0%" y1="9.853%" y2="95.87%"><stop stop-color="#BF99E0" offset="0"/><stop stop-color="#AE99CB" offset="1"/></linearGradient></defs><g fill="none" fill-rule="evenodd"><ellipse cx="50.563" cy="50" rx="45.575" ry="45.686"/><path transform="rotate(5 64.304 22.157)" d="M53.106 5.42c.62 2.642.93 7.54.93 14.694s-.31 13.423-.93 18.807a843.298 843.298 0 0012.017-13.759c4.266-4.985 7.726-9.609 10.38-13.872-2.927-1.969-6.66-3.477-11.198-4.524-4.539-1.047-8.271-1.496-11.198-1.346z" fill="url(#a)"/><path transform="rotate(45 78.68 37.647)" d="M67.482 20.91c.62 2.642.93 7.54.93 14.694 0 7.154-.31 13.423-.93 18.807a843.298 843.298 0 0012.017-13.759c4.266-4.985 7.726-9.61 10.38-13.872-2.927-1.97-6.66-3.477-11.198-4.524-4.539-1.047-8.272-1.496-11.198-1.346z" fill="url(#b)"/><path transform="rotate(85 80.05 58.137)" d="M68.851 41.401c.62 2.642.93 7.54.93 14.694 0 7.154-.31 13.423-.93 18.807 3.745-4.188 7.75-8.774 12.017-13.759s7.726-9.61 10.38-13.872c-2.927-1.97-6.66-3.477-11.198-4.524-4.539-1.047-8.272-1.496-11.198-1.346z" fill="url(#c)"/><path transform="rotate(124 67.922 75.196)" d="M56.724 58.459c.62 2.642.93 7.54.93 14.694 0 7.154-.31 13.423-.93 18.807a843.298 843.298 0 0012.017-13.759c4.266-4.985 7.726-9.61 10.38-13.872-2.927-1.97-6.66-3.477-11.198-4.524-4.539-1.047-8.271-1.496-11.198-1.346z" fill="url(#d)"/><path transform="rotate(163 47.678 80.588)" d="M36.479 63.852c.62 2.642.93 7.54.93 14.694 0 7.154-.31 13.423-.93 18.807a843.298 843.298 0 0012.017-13.759c4.266-4.985 7.726-9.61 10.38-13.872-2.927-1.97-6.66-3.477-11.198-4.524s-8.271-1.496-11.198-1.346z" fill="url(#e)"/><path transform="rotate(-156 28.411 71.275)" d="M17.213 54.538c.62 2.642.93 7.54.93 14.694 0 7.154-.31 13.423-.93 18.807 3.745-4.188 7.75-8.774 12.017-13.759s7.726-9.61 10.38-13.872c-2.927-1.97-6.66-3.477-11.198-4.524-4.539-1.047-8.271-1.496-11.198-1.346z" fill="url(#f)"/><path transform="rotate(-116 20 52.647)" d="M8.802 35.91c.62 2.642.93 7.54.93 14.694 0 7.154-.31 13.423-.93 18.807 3.745-4.188 7.75-8.774 12.017-13.759s7.726-9.61 10.38-13.872c-2.927-1.97-6.66-3.477-11.198-4.524-4.539-1.047-8.272-1.496-11.198-1.346z" fill="url(#g)"/><path transform="rotate(-75 25.184 32.843)" d="M13.985 16.106c.62 2.642.93 7.54.93 14.694 0 7.154-.31 13.423-.93 18.807a843.298 843.298 0 0012.017-13.759c4.266-4.985 7.726-9.61 10.38-13.872-2.927-1.97-6.66-3.477-11.198-4.524-4.539-1.047-8.272-1.496-11.198-1.346z" fill="url(#h)"/><path transform="rotate(-36 42.494 20.196)" d="M31.296 3.46c.62 2.642.93 7.54.93 14.693 0 7.154-.31 13.423-.93 18.807a843.298 843.298 0 0012.017-13.759c4.266-4.985 7.726-9.609 10.38-13.872-2.927-1.969-6.66-3.477-11.198-4.524-4.539-1.047-8.271-1.495-11.198-1.346z" fill="url(#i)"/><path d="M126.38 19.592c.975-.186 2.05-.331 3.223-.436s2.34-.156 3.5-.156c1.208 0 2.422.098 3.641.296 1.22.197 2.317.592 3.293 1.185.975.592 1.77 1.417 2.386 2.473s.923 2.434.923 4.13c0 1.486-.267 2.758-.801 3.815s-1.243 1.928-2.125 2.613a8.636 8.636 0 01-3.014 1.498c-1.126.314-2.293.47-3.501.47h-.557a19.27 19.27 0 01-1.62-.069 5.923 5.923 0 01-.575-.07v8.398h-4.773V19.592zm7.107 3.52c-.465 0-.906.017-1.324.052-.418.034-.755.075-1.01.122v7.91c.093.022.232.046.418.069s.383.04.592.052c.21.012.412.018.61.018h.435c.627 0 1.249-.058 1.864-.175s1.167-.33 1.655-.644a3.36 3.36 0 001.167-1.307c.29-.557.435-1.29.435-2.195 0-.767-.139-1.4-.418-1.9-.278-.499-.644-.9-1.097-1.201a4.273 4.273 0 00-1.55-.627 9.036 9.036 0 00-1.777-.175zm13.631 4.39c.929-.418 2.003-.778 3.223-1.08 1.219-.302 2.665-.453 4.337-.453 1.208 0 2.235.145 3.083.435.848.29 1.533.703 2.056 1.237s.9 1.173 1.132 1.916.348 1.58.348 2.51c0 1.184-.04 2.194-.122 3.03-.081.837-.122 1.58-.122 2.23 0 .489.024 1.034.07 1.638.046.326.081.64.105.941h2.264v3.833h-5.783l-.453-2.37h-.174c-.465.72-1.127 1.342-1.986 1.865s-2.02.784-3.484.784c-1.742 0-3.124-.465-4.145-1.394s-1.533-2.16-1.533-3.693c0-.976.18-1.818.54-2.527.36-.708.882-1.289 1.567-1.742.685-.453 1.51-.79 2.474-1.01.964-.22 2.038-.331 3.222-.331.418 0 .86.023 1.324.07s1.034.092 1.707.139c.047-.232.07-.465.07-.697v-.662c0-.883-.255-1.516-.766-1.9-.511-.382-1.266-.574-2.265-.574-1.184 0-2.253.15-3.205.453s-1.754.604-2.404.906l-1.08-3.554zm5.957 12.788c1.115 0 1.951-.204 2.509-.61s.964-.842 1.219-1.307v-2.09c-.232-.047-.58-.1-1.045-.157s-.964-.087-1.498-.087c-.441 0-.883.04-1.324.122-.441.08-.836.209-1.185.383s-.627.4-.836.68c-.209.278-.313.615-.313 1.01 0 .65.191 1.156.575 1.516.383.36 1.016.54 1.898.54zm30.074 1.777c-.952.72-2.067 1.26-3.344 1.62-1.278.36-2.613.54-4.007.54-1.51 0-2.85-.22-4.023-.662s-2.16-1.063-2.962-1.864c-.8-.801-1.41-1.771-1.829-2.91-.418-1.138-.627-2.392-.627-3.763 0-1.463.244-2.764.732-3.902a8.213 8.213 0 012.038-2.892c.87-.79 1.899-1.388 3.083-1.795 1.185-.406 2.474-.61 3.867-.61 1.3 0 2.52.151 3.658.453s2.01.593 2.613.871v6.133h-3.832V30.08a9.777 9.777 0 00-2.16-.244c-.65 0-1.295.1-1.934.297a4.73 4.73 0 00-1.707.94c-.5.43-.906.97-1.22 1.62-.313.651-.47 1.43-.47 2.335 0 .744.128 1.429.384 2.056a4.908 4.908 0 001.08 1.638c.464.464 1.04.83 1.724 1.097.685.267 1.446.401 2.282.401 1.324 0 2.41-.186 3.258-.557.847-.372 1.48-.697 1.898-.976l1.498 3.38zm1.124-22.718h7.386v13.903h1.045l5.713-6.934h5.33l-7.037 7.944 4.564 5.645h3.24v3.833h-5.644l-5.992-7.213h-1.22v7.213h-4.528V23.182h-2.857v-3.833zm38.75 22.544a6.173 6.173 0 01-1.168.819c-.476.267-1.033.516-1.672.749s-1.341.418-2.108.557c-.766.14-1.58.21-2.438.21-1.487 0-2.817-.21-3.99-.628s-2.165-1.028-2.978-1.83-1.434-1.765-1.864-2.891c-.43-1.127-.645-2.41-.645-3.85 0-1.534.244-2.875.732-4.025.488-1.15 1.156-2.108 2.003-2.875s1.84-1.341 2.979-1.725c1.138-.383 2.369-.574 3.693-.574.882 0 1.794.116 2.735.348.94.232 1.805.633 2.595 1.202.79.57 1.434 1.33 1.934 2.282.499.953.749 2.16.749 3.624 0 .999-.117 2.08-.349 3.24H210.69c.023.744.18 1.371.47 1.882.29.511.674.93 1.15 1.255a4.975 4.975 0 001.638.714 8.24 8.24 0 001.968.226c1.394 0 2.537-.162 3.432-.487.894-.326 1.62-.72 2.177-1.185l1.498 2.962zm-7.526-12.44c-.604 0-1.173.082-1.707.245-.534.162-1.016.4-1.446.714-.43.314-.784.703-1.062 1.167s-.442.988-.488 1.568h8.57c0-1.138-.32-2.038-.958-2.7s-1.608-.993-2.909-.993zm13.108.698h-3.449v-3.833h3.45v-3.972l4.528-1.29v5.262h9.128v3.833h-9.128v4.982c0 1.79.337 3.084 1.01 3.886.674.801 1.615 1.202 2.822 1.202.627 0 1.196-.076 1.707-.227.511-.15.97-.342 1.376-.575s.779-.488 1.115-.766l.924-.767 2.09 3.136a6.7 6.7 0 01-1.48 1.272c-.593.383-1.232.72-1.917 1.01-.685.29-1.4.517-2.142.68-.744.162-1.475.244-2.195.244-2.602 0-4.558-.726-5.87-2.178-1.313-1.452-1.969-3.757-1.969-6.917v-4.982zm-86.2 31.772c0 .604-.075 1.208-.226 1.812-.151.604-.401 1.155-.75 1.655s-.8.94-1.358 1.324c-.557.383-1.231.668-2.02.853v.21c.696.116 1.358.313 1.985.592s1.173.662 1.638 1.15c.464.488.83 1.08 1.097 1.777s.4 1.521.4 2.474c0 1.254-.267 2.34-.8 3.258a6.612 6.612 0 01-2.143 2.247c-.894.58-1.91 1.01-3.049 1.29-1.138.278-2.31.418-3.518.418h-1.516a40.57 40.57 0 01-1.986-.053 47.273 47.273 0 01-2.16-.157c-.731-.07-1.399-.174-2.003-.313V56.417c.441-.07.947-.14 1.516-.21.569-.069 1.178-.127 1.829-.173.65-.047 1.318-.082 2.003-.105a60.144 60.144 0 012.038-.035c1.138 0 2.247.087 3.327.262s2.044.482 2.891.923 1.528 1.057 2.038 1.847c.511.79.767 1.788.767 2.996zm-8.71 15.122c.581 0 1.144-.07 1.69-.21.546-.139 1.028-.354 1.446-.644s.755-.656 1.01-1.098c.256-.441.384-.964.384-1.568 0-.766-.151-1.37-.453-1.812a3.077 3.077 0 00-1.185-1.027 4.883 4.883 0 00-1.637-.47 15.789 15.789 0 00-1.812-.105h-2.543v6.725c.116.046.302.08.557.104.256.023.529.04.819.052l.906.035c.313.012.586.018.819.018zm-1.567-10.558c.325 0 .702-.012 1.132-.035.43-.023.784-.058 1.063-.105.882-.278 1.643-.697 2.282-1.254.638-.558.958-1.29.958-2.195 0-.604-.117-1.104-.349-1.499s-.54-.708-.923-.94a3.907 3.907 0 00-1.306-.488 8.178 8.178 0 00-1.533-.14c-.604 0-1.162.012-1.673.035-.51.023-.905.058-1.184.105v6.516h1.533zM145.34 76.8h4.32v-9.757h-4.32v-3.833h7.838l.523 2.3h.14c.65-.766 1.393-1.405 2.229-1.916s1.812-.767 2.926-.767c1.394 0 2.491.511 3.293 1.533.8 1.022 1.201 2.73 1.201 5.122h-4.076c0-.836-.122-1.446-.365-1.829-.244-.383-.633-.575-1.168-.575-.929 0-1.678.232-2.247.697s-1.05.999-1.445 1.603V76.8h7.56v3.832h-16.41v-3.832zm20.006-4.879c0-1.463.22-2.764.662-3.902.441-1.138 1.068-2.102 1.881-2.892s1.783-1.388 2.909-1.795 2.386-.61 3.78-.61c1.463 0 2.77.221 3.92.663 1.149.44 2.119 1.062 2.908 1.864.79.801 1.388 1.77 1.794 2.91.407 1.138.61 2.392.61 3.762 0 1.464-.22 2.765-.662 3.903-.441 1.138-1.068 2.102-1.881 2.892s-1.783 1.388-2.91 1.795-2.386.61-3.779.61c-1.463 0-2.77-.221-3.92-.663s-2.119-1.062-2.908-1.864c-.79-.801-1.388-1.771-1.795-2.91-.406-1.138-.61-2.392-.61-3.763zm4.668 0c0 .767.105 1.476.314 2.126.209.65.51 1.22.905 1.707.395.488.871.866 1.429 1.133.557.267 1.196.4 1.916.4 1.347 0 2.444-.43 3.292-1.289.848-.86 1.272-2.218 1.272-4.076 0-1.603-.395-2.898-1.185-3.886s-1.916-1.48-3.38-1.48c-.65 0-1.253.098-1.81.296s-1.04.517-1.446.958c-.407.441-.726.999-.959 1.672-.232.674-.348 1.487-.348 2.44zm14.258-15.68h7.386v13.903h1.045l5.713-6.934h5.33l-7.037 7.945 4.564 5.645h3.24v3.833h-5.644l-5.992-7.213h-1.22v7.213h-4.528V60.076h-2.857v-3.833zm38.75 22.544a6.173 6.173 0 01-1.168.82c-.476.266-1.034.516-1.672.748s-1.342.419-2.108.558c-.766.14-1.58.21-2.439.21-1.486 0-2.816-.21-3.989-.628s-2.165-1.028-2.978-1.83-1.435-1.765-1.864-2.892c-.43-1.126-.645-2.41-.645-3.85 0-1.533.244-2.874.732-4.024s1.155-2.108 2.003-2.875 1.84-1.342 2.979-1.725c1.138-.383 2.369-.575 3.693-.575.882 0 1.794.116 2.735.349.94.232 1.805.633 2.595 1.202.79.569 1.434 1.33 1.933 2.282.5.952.75 2.16.75 3.624 0 .999-.117 2.079-.349 3.24H210.69c.023.744.18 1.37.47 1.882.29.511.674.93 1.15 1.254a4.975 4.975 0 001.638.715 8.24 8.24 0 001.968.226c1.393 0 2.537-.162 3.432-.488.894-.325 1.62-.72 2.177-1.184l1.498 2.961zm-7.526-12.439c-.604 0-1.173.082-1.707.244-.534.163-1.016.401-1.446.715-.43.313-.784.702-1.062 1.167s-.442.987-.488 1.568h8.57c0-1.138-.32-2.038-.958-2.7s-1.608-.993-2.91-.993zM225.923 76.8h4.32v-9.756h-4.32v-3.833h7.839l.522 2.3h.14a9.208 9.208 0 012.23-1.917c.835-.51 1.81-.766 2.926-.766 1.393 0 2.49.511 3.292 1.533.801 1.022 1.202 2.73 1.202 5.122h-4.076c0-.836-.122-1.446-.366-1.83-.244-.382-.633-.574-1.167-.574-.93 0-1.678.232-2.247.697s-1.051.999-1.446 1.603V76.8h7.56v3.833h-16.41V76.8z" fill="#000"/></g></svg>