<svg width="85" height="85" viewBox="0 0 85 85" fill="none" xmlns="http://www.w3.org/2000/svg">
<path fill-rule="evenodd" clip-rule="evenodd" d="M35.5 7.50049C37.433 7.50049 39 9.06749 39 11.0005V14.5005H46V11.0005C46 9.06749 47.567 7.50049 49.5 7.50049C51.433 7.50049 53 9.06749 53 11.0005V14.5005H63.5C65.3565 14.5005 67.137 15.238 68.4497 16.5507C69.7625 17.8635 70.5 19.644 70.5 21.5005V32.0005H74C75.933 32.0005 77.5 33.5675 77.5 35.5005C77.5 37.4335 75.933 39.0005 74 39.0005H70.5V46.0005H74C75.933 46.0005 77.5 47.5675 77.5 49.5005C77.5 51.4335 75.933 53.0005 74 53.0005H70.5V63.5005C70.5 65.357 69.7625 67.1375 68.4497 68.4502C67.137 69.763 65.3565 70.5005 63.5 70.5005H53V74.0005C53 75.9335 51.433 77.5005 49.5 77.5005C47.567 77.5005 46 75.9335 46 74.0005V70.5005H39V74.0005C39 75.9335 37.433 77.5005 35.5 77.5005C33.567 77.5005 32 75.9335 32 74.0005V70.5005H21.5C19.6435 70.5005 17.863 69.763 16.5503 68.4502C15.2375 67.1375 14.5 65.357 14.5 63.5005V53.0005H11C9.067 53.0005 7.5 51.4335 7.5 49.5005C7.5 47.5675 9.067 46.0005 11 46.0005H14.5V39.0005H11C9.067 39.0005 7.5 37.4335 7.5 35.5005C7.5 33.5675 9.067 32.0005 11 32.0005H14.5V21.5005C14.5 19.644 15.2375 17.8635 16.5503 16.5507C17.863 15.238 19.6435 14.5005 21.5 14.5005H32V11.0005C32 9.06749 33.567 7.50049 35.5 7.50049ZM21.5 21.5005V63.5005H63.5V21.5005H21.5ZM28.5 32.0005C28.5 30.0675 30.067 28.5005 32 28.5005H53C54.933 28.5005 56.5 30.0675 56.5 32.0005V53.0005C56.5 54.9335 54.933 56.5005 53 56.5005H32C30.067 56.5005 28.5 54.9335 28.5 53.0005V32.0005ZM35.5 35.5005V49.5005H49.5V35.5005H35.5Z" fill="#E7EAF6"/>
</svg>
